<?xml version="1.0" encoding="UTF-8"?> <svg xmlns="http://www.w3.org/2000/svg" id="Warstwa_1" data-name="Warstwa 1" viewBox="0 0 100 100"><defs><style> .cls-1 { fill: none; stroke: #fc6623; stroke-linejoin: round; stroke-width: 3px; } </style></defs><g><path class="cls-1" d="m44.27,55.61c0,2.95,2.57,5.34,5.74,5.34s5.75-2.39,5.75-5.34-3.07-4.24-5.76-5.61-5.75-2.66-5.75-5.61,2.57-5.34,5.74-5.34,5.74,2.39,5.74,5.34"></path><line class="cls-1" x1="49.99" y1="39.03" x2="49.99" y2="35.45"></line><line class="cls-1" x1="49.99" y1="64.55" x2="49.99" y2="60.97"></line></g><g><g><g><line class="cls-1" x1="60.34" y1="17.08" x2="73.28" y2="24.56"></line><line class="cls-1" x1="39.66" y1="17.08" x2="26.72" y2="24.56"></line></g><g><line class="cls-1" x1="60.34" y1="82.92" x2="73.28" y2="75.44"></line><line class="cls-1" x1="39.66" y1="82.92" x2="26.72" y2="75.44"></line></g></g><g><g><path class="cls-1" d="m55.73,11.02c0,3.16-2.57,5.73-5.73,5.73s-5.73-2.57-5.73-5.73,2.57-5.73,5.73-5.73,5.73,2.57,5.73,5.73Z"></path><line class="cls-1" x1="50" y1="17.39" x2="50" y2="26.14"></line></g><g><path class="cls-1" d="m44.27,88.98c0-3.17,2.57-5.73,5.73-5.73s5.73,2.56,5.73,5.73-2.57,5.73-5.73,5.73-5.73-2.57-5.73-5.73Z"></path><line class="cls-1" x1="50" y1="82.61" x2="50" y2="73.86"></line></g></g><g><g><g><path class="cls-1" d="m86.59,35.4c-2.74,1.59-6.24.66-7.83-2.08-1.59-2.74-.65-6.24,2.08-7.83,2.74-1.59,6.24-.65,7.83,2.08,1.59,2.74.65,6.24-2.08,7.83Z"></path><line class="cls-1" x1="78.21" y1="33.64" x2="70.64" y2="38.03"></line></g><g><path class="cls-1" d="m13.41,35.4c2.74,1.59,6.24.66,7.83-2.08,1.59-2.74.65-6.24-2.08-7.83-2.74-1.59-6.24-.65-7.83,2.08-1.59,2.74-.65,6.24,2.08,7.83Z"></path><line class="cls-1" x1="21.79" y1="33.64" x2="29.36" y2="38.03"></line></g></g><g><g><path class="cls-1" d="m13.41,64.6c2.74-1.59,6.24-.65,7.83,2.08,1.59,2.74.65,6.24-2.08,7.83-2.74,1.59-6.24.66-7.83-2.08-1.59-2.74-.65-6.25,2.08-7.83Z"></path><line class="cls-1" x1="21.79" y1="66.36" x2="29.36" y2="61.97"></line></g><g><path class="cls-1" d="m86.59,64.6c-2.74-1.59-6.24-.65-7.83,2.08-1.59,2.74-.65,6.24,2.08,7.83,2.74,1.59,6.24.66,7.83-2.08,1.59-2.74.65-6.25-2.08-7.83Z"></path><line class="cls-1" x1="78.21" y1="66.36" x2="70.64" y2="61.97"></line></g></g></g><path class="cls-1" d="m73.67,50c0,13.07-10.6,23.67-23.68,23.67s-23.67-10.6-23.67-23.67,10.6-23.67,23.67-23.67,23.68,10.6,23.68,23.67Z"></path><g><line class="cls-1" x1="16.35" y1="42.52" x2="16.35" y2="57.48"></line><line class="cls-1" x1="83.65" y1="42.52" x2="83.65" y2="57.48"></line></g></g></svg> 