<?xml version="1.0" encoding="UTF-8"?> <svg xmlns="http://www.w3.org/2000/svg" id="Warstwa_1" data-name="Warstwa 1" viewBox="0 0 100 100"><defs><style> .cls-1 { fill: none; stroke: #fc6623; stroke-linecap: round; stroke-linejoin: round; stroke-width: 3px; } </style></defs><path class="cls-1" d="m57.58,34.4c0,2.01-.79,3.84-2.09,5.19-1.38,1.44-3.33,2.34-5.49,2.34-2.51,0-4.72-1.2-6.11-3.06-.93-1.25-1.48-2.79-1.48-4.46s.55-3.21,1.48-4.46c1.38-1.86,3.6-3.06,6.11-3.06,2.16,0,4.11.9,5.49,2.34,1.3,1.35,2.09,3.17,2.09,5.19Z"></path><path class="cls-1" d="m50.94,34.4c0,.25-.1.48-.26.65-.17.18-.41.29-.68.29-.31,0-.59-.15-.76-.38-.12-.16-.18-.35-.18-.56s.07-.4.18-.56c.17-.23.45-.38.76-.38.27,0,.51.11.68.29.16.17.26.4.26.65Z"></path><path class="cls-1" d="m34.01,47.09c-2.81-3.48-4.49-7.89-4.49-12.69s1.68-9.21,4.49-12.69"></path><path class="cls-1" d="m65.38,20.98c3.18,3.58,5.11,8.27,5.11,13.42s-1.93,9.84-5.11,13.42"></path><path class="cls-1" d="m73.93,13.86c4.8,5.51,7.71,12.68,7.71,20.54s-2.91,15.03-7.71,20.54"></path><path class="cls-1" d="m25.46,54.21c-4.44-5.4-7.1-12.3-7.1-19.81s2.66-14.41,7.1-19.81"></path><path class="cls-1" d="m82.48,6.75c6.44,7.43,10.32,17.09,10.32,27.65s-3.89,20.22-10.32,27.65"></path><path class="cls-1" d="m16.91,61.33c-6.07-7.33-9.71-16.7-9.71-26.92s3.64-19.6,9.71-26.92"></path><line class="cls-1" x1="55.5" y1="39.57" x2="55.49" y2="39.52"></line><line class="cls-1" x1="44.51" y1="39.52" x2="44.5" y2="39.58"></line><polyline class="cls-1" points="58.66 58.04 50 63.42 36.18 72"></polyline><polyline class="cls-1" points="41.34 58.04 50 63.42 63.82 72 63.82 72"></polyline><path class="cls-1" d="m36.18,72l34.91,21.21c.11.07.24.06.34-.03.1-.08.13-.21.09-.33l-17.5-47.38"></path><path class="cls-1" d="m63.82,72l-34.91,21.21c-.11.07-.24.06-.34-.03-.1-.08-.13-.21-.09-.33l9.72-26.31,4.85-13.12,2.94-7.95"></path></svg> 