<?xml version="1.0" encoding="UTF-8"?> <svg xmlns="http://www.w3.org/2000/svg" id="Warstwa_1" data-name="Warstwa 1" viewBox="0 0 100 100"><defs><style> .cls-1 { fill: none; stroke: #fc6623; stroke-linejoin: round; stroke-width: 3px; } </style></defs><g><g><path class="cls-1" d="m57.07,34.22c0,3.91-3.17,7.08-7.07,7.08s-7.08-3.17-7.08-7.08,3.17-7.08,7.08-7.08,7.07,3.17,7.07,7.08Z"></path><path class="cls-1" d="m40.75,81.04c-5.17,0-6.95-4.23-6.95-9.39v-13.75c0-5.17,4.23-9.4,9.39-9.4h13.61c5.17,0,9.4,4.23,9.4,9.4v13.75c0,5.17-1.78,9.39-6.95,9.39"></path><g><line class="cls-1" x1="59.33" y1="60.73" x2="59.33" y2="91.78"></line><line class="cls-1" x1="40.67" y1="60.73" x2="40.67" y2="91.78"></line></g></g><g><path class="cls-1" d="m32.96,34.22c0,3.91-3.17,7.08-7.07,7.08s-7.08-3.17-7.08-7.08,3.17-7.08,7.08-7.08,7.07,3.17,7.07,7.08Z"></path><path class="cls-1" d="m16.63,81.04c-5.17,0-6.95-4.23-6.95-9.39v-13.75c0-5.17,4.23-9.4,9.39-9.4h10.1"></path><line class="cls-1" x1="16.55" y1="60.73" x2="16.55" y2="91.78"></line></g><g><path class="cls-1" d="m67.04,34.22c0,3.91,3.17,7.08,7.07,7.08s7.08-3.17,7.08-7.08-3.17-7.08-7.08-7.08-7.07,3.17-7.07,7.08Z"></path><path class="cls-1" d="m83.37,81.04c5.16,0,6.94-4.23,6.94-9.39v-13.75c0-5.17-4.23-9.4-9.39-9.4h-10.1"></path><line class="cls-1" x1="83.45" y1="60.73" x2="83.45" y2="91.78"></line></g></g><g><path class="cls-1" d="m69.13,15.3c0,3.91-3.17,7.08-7.07,7.08s-7.08-3.17-7.08-7.08,3.17-7.08,7.08-7.08,7.07,3.17,7.07,7.08Z"></path><path class="cls-1" d="m45.02,15.3c0,3.91-3.17,7.08-7.07,7.08s-7.08-3.17-7.08-7.08,3.17-7.08,7.08-7.08,7.07,3.17,7.07,7.08Z"></path></g></svg> 