<svg width="25" height="24" viewBox="0 0 25 24" fill="none" xmlns="http://www.w3.org/2000/svg">
<path d="M18.25 17H7.25V17.5C7.25 18.9587 7.82946 20.3576 8.86091 21.3891C9.89236 22.4205 11.2913 23 12.75 23C14.2087 23 15.6076 22.4205 16.6391 21.3891C17.6705 20.3576 18.25 18.9587 18.25 17.5V17Z" fill="#F5F5F5"/>
<path d="M18.25 17H7.25V17.5C7.25 18.9587 7.82946 20.3576 8.86091 21.3891C9.89236 22.4205 11.2913 23 12.75 23C14.2087 23 15.6076 22.4205 16.6391 21.3891C17.6705 20.3576 18.25 18.9587 18.25 17.5V17Z" stroke="#333333" stroke-linecap="round" stroke-linejoin="round"/>
<path d="M19.9819 16H20.2499C20.7804 16 21.2891 15.7893 21.6641 15.4142C22.0392 15.0391 22.2499 14.5304 22.2499 14C22.2499 13.4696 22.0392 12.9609 21.6641 12.5858C21.2891 12.2107 20.7804 12 20.2499 12H20.0999L19.9819 16Z" fill="#EE2C3C"/>
<path d="M22.25 14C22.25 13.4696 22.0393 12.9609 21.6642 12.5858C21.2892 12.2107 20.7804 12 20.25 12H20.1L20.041 14H22.25Z" fill="#EE2C3C"/>
<path d="M19.9819 16H20.2499C20.7804 16 21.2891 15.7893 21.6641 15.4142C22.0392 15.0391 22.2499 14.5304 22.2499 14C22.2499 13.4696 22.0392 12.9609 21.6641 12.5858C21.2891 12.2107 20.7804 12 20.2499 12H20.0999" stroke="#333333" stroke-linecap="round" stroke-linejoin="round"/>
<path d="M5.459 12H5.25C4.71957 12 4.21086 12.2107 3.83579 12.5858C3.46071 12.9609 3.25 13.4696 3.25 14C3.25 14.5304 3.46071 15.0391 3.83579 15.4142C4.21086 15.7893 4.71957 16 5.25 16H5.518L5.459 12Z" fill="#EE2C3C"/>
<path d="M5.459 12H5.25C4.71957 12 4.21086 12.2107 3.83579 12.5858C3.46071 12.9609 3.25 13.4696 3.25 14H5.488L5.459 12Z" fill="#EE2C3C"/>
<path d="M5.459 12H5.25C4.71957 12 4.21086 12.2107 3.83579 12.5858C3.46071 12.9609 3.25 13.4696 3.25 14C3.25 14.5304 3.46071 15.0391 3.83579 15.4142C4.21086 15.7893 4.71957 16 5.25 16H5.518" stroke="#333333" stroke-linecap="round" stroke-linejoin="round"/>
<path d="M20.2499 13.4996C20.2504 12.4951 20.049 11.5006 19.6578 10.5754C19.2666 9.65009 18.6935 8.81285 17.9725 8.11332C17.2515 7.41379 16.3974 6.86622 15.4607 6.50313C14.524 6.14004 13.524 5.96881 12.5199 5.99962C10.5345 6.1124 8.66957 6.9881 7.31475 8.44374C5.95994 9.89937 5.22012 11.8223 5.24989 13.8106V14.9996C5.24989 15.5301 5.4606 16.0388 5.83567 16.4138C6.21075 16.7889 6.71946 16.9996 7.24989 16.9996H18.2499C18.7803 16.9996 19.289 16.7889 19.6641 16.4138C20.0392 16.0388 20.2499 15.5301 20.2499 14.9996V13.4996Z" fill="#F5F5F5"/>
<path d="M12.5199 5.99962C10.5345 6.1124 8.66957 6.9881 7.31475 8.44374C5.95994 9.89937 5.22012 11.8223 5.24989 13.8106V14.9996C5.25017 15.2032 5.28153 15.4055 5.34289 15.5996C5.58452 13.8364 6.43344 12.2125 7.74347 11.0078C9.05349 9.80314 10.7426 9.09297 12.5199 8.99962C14.3754 8.94232 16.1863 9.57522 17.6021 10.7759C19.018 11.9766 19.9382 13.6597 20.1849 15.4996C20.2273 15.3363 20.2492 15.1683 20.2499 14.9996V13.4996C20.2504 12.4951 20.049 11.5006 19.6578 10.5754C19.2666 9.65009 18.6935 8.81285 17.9725 8.11332C17.2515 7.41379 16.3974 6.86622 15.4607 6.50313C14.524 6.14004 13.524 5.96881 12.5199 5.99962Z" fill="#F5F5F5"/>
<path d="M20.2499 13.4996C20.2504 12.4951 20.049 11.5006 19.6578 10.5754C19.2666 9.65009 18.6935 8.81285 17.9725 8.11332C17.2515 7.41379 16.3974 6.86622 15.4607 6.50313C14.524 6.14004 13.524 5.96881 12.5199 5.99962C10.5345 6.1124 8.66957 6.9881 7.31475 8.44374C5.95994 9.89937 5.22012 11.8223 5.24989 13.8106V14.9996C5.24989 15.5301 5.4606 16.0388 5.83567 16.4138C6.21075 16.7889 6.71946 16.9996 7.24989 16.9996H18.2499C18.7803 16.9996 19.289 16.7889 19.6641 16.4138C20.0392 16.0388 20.2499 15.5301 20.2499 14.9996V13.4996Z" stroke="#333333" stroke-linecap="round" stroke-linejoin="round"/>
<path d="M8.25 12.5C8.25 12.8978 8.40804 13.2794 8.68934 13.5607C8.97064 13.842 9.35218 14 9.75 14C10.1478 14 10.5294 13.842 10.8107 13.5607C11.092 13.2794 11.25 12.8978 11.25 12.5C11.25 12.1022 11.092 11.7206 10.8107 11.4393C10.5294 11.158 10.1478 11 9.75 11C9.35218 11 8.97064 11.158 8.68934 11.4393C8.40804 11.7206 8.25 12.1022 8.25 12.5Z" fill="#EE2C3C" stroke="#333333" stroke-linecap="round" stroke-linejoin="round"/>
<path d="M14.25 12.5C14.25 12.8978 14.408 13.2794 14.6893 13.5607C14.9706 13.842 15.3522 14 15.75 14C16.1478 14 16.5294 13.842 16.8107 13.5607C17.092 13.2794 17.25 12.8978 17.25 12.5C17.25 12.1022 17.092 11.7206 16.8107 11.4393C16.5294 11.158 16.1478 11 15.75 11C15.3522 11 14.9706 11.158 14.6893 11.4393C14.408 11.7206 14.25 12.1022 14.25 12.5Z" fill="#EE2C3C" stroke="#333333" stroke-linecap="round" stroke-linejoin="round"/>
<path d="M12.75 19C12.087 19 11.4511 19.2634 10.9822 19.7322C10.5134 20.2011 10.25 20.837 10.25 21.5V22.4C11.0234 22.7976 11.8804 23.005 12.75 23.005C13.6196 23.005 14.4766 22.7976 15.25 22.4V21.5C15.25 20.837 14.9866 20.2011 14.5178 19.7322C14.0489 19.2634 13.413 19 12.75 19Z" fill="#EE2C3C" stroke="#333333" stroke-linecap="round" stroke-linejoin="round"/>
<path d="M22.25 14H23.25" stroke="#333333" stroke-linecap="round" stroke-linejoin="round"/>
<path d="M3.25 14H2.25" stroke="#333333" stroke-linecap="round" stroke-linejoin="round"/>
<path d="M12.25 6.017V4.5C12.25 4.10217 12.408 3.72064 12.6893 3.43934C12.9706 3.15804 13.3522 3 13.75 3C14.1478 3 14.5294 2.84196 14.8107 2.56066C15.092 2.27936 15.25 1.89782 15.25 1.5V1" stroke="#333333" stroke-linecap="round" stroke-linejoin="round"/>
</svg>
