<svg width="24" height="24" viewBox="0 0 24 24" fill="none" xmlns="http://www.w3.org/2000/svg">
<g clip-path="url(#clip0_19053_96893)">
<path d="M0.5 23.04H23.5" stroke="#333333" stroke-linecap="round" stroke-linejoin="round"/>
<path d="M4.5 18.7203C4.4987 18.656 4.48473 18.5925 4.4589 18.5336C4.43307 18.4746 4.39587 18.4213 4.34944 18.3768C4.30301 18.3322 4.24825 18.2972 4.18829 18.2738C4.12833 18.2504 4.06435 18.239 4 18.2403H2C1.93565 18.239 1.87167 18.2504 1.81171 18.2738C1.75175 18.2972 1.69699 18.3322 1.65056 18.3768C1.60413 18.4213 1.56693 18.4746 1.5411 18.5336C1.51527 18.5925 1.5013 18.656 1.5 18.7203V23.0403H4.5V18.7203Z" fill="#EE2C3C"/>
<path d="M10.5 13.9196C10.4987 13.8552 10.4847 13.7917 10.4589 13.7328C10.4331 13.6738 10.3959 13.6205 10.3494 13.576C10.303 13.5314 10.2482 13.4964 10.1883 13.473C10.1283 13.4496 10.0644 13.4382 10 13.4396H8C7.93565 13.4382 7.87167 13.4496 7.81171 13.473C7.75175 13.4964 7.69699 13.5314 7.65056 13.576C7.60413 13.6205 7.56693 13.6738 7.5411 13.7328C7.51527 13.7917 7.5013 13.8552 7.5 13.9196V23.0396H10.5V13.9196Z" fill="#EE2C3C"/>
<path d="M16.5 15.8405C16.4987 15.7761 16.4847 15.7126 16.4589 15.6537C16.4331 15.5947 16.3959 15.5414 16.3494 15.4969C16.303 15.4523 16.2482 15.4173 16.1883 15.3939C16.1283 15.3705 16.0644 15.3591 16 15.3605H14C13.9356 15.3591 13.8717 15.3705 13.8117 15.3939C13.7518 15.4173 13.697 15.4523 13.6506 15.4969C13.6041 15.5414 13.5669 15.5947 13.5411 15.6537C13.5153 15.7126 13.5013 15.7761 13.5 15.8405V23.0405H16.5V15.8405Z" fill="#EE2C3C"/>
<path d="M22.5 9.11975C22.4987 9.0554 22.4847 8.99193 22.4589 8.93298C22.4331 8.87403 22.3959 8.82074 22.3494 8.77617C22.303 8.73159 22.2482 8.6966 22.1883 8.6732C22.1283 8.64979 22.0644 8.63843 22 8.63975H20C19.9356 8.63843 19.8717 8.64979 19.8117 8.6732C19.7518 8.6966 19.697 8.73159 19.6506 8.77617C19.6041 8.82074 19.5669 8.87403 19.5411 8.93298C19.5153 8.99193 19.5013 9.0554 19.5 9.11975V23.0398H22.5V9.11975Z" fill="#EE2C3C"/>
<path d="M4 18.2403H2C1.93565 18.239 1.87167 18.2504 1.81171 18.2738C1.75175 18.2972 1.69699 18.3322 1.65056 18.3768C1.60413 18.4213 1.56693 18.4746 1.5411 18.5336C1.51527 18.5925 1.5013 18.656 1.5 18.7203V21.0803C1.5013 21.016 1.51527 20.9525 1.5411 20.8936C1.56693 20.8346 1.60413 20.7813 1.65056 20.7368C1.69699 20.6922 1.75175 20.6572 1.81171 20.6338C1.87167 20.6104 1.93565 20.599 2 20.6003H4C4.06435 20.599 4.12833 20.6104 4.18829 20.6338C4.24825 20.6572 4.30301 20.6922 4.34944 20.7368C4.39587 20.7813 4.43307 20.8346 4.4589 20.8936C4.48473 20.9525 4.4987 21.016 4.5 21.0803V18.7203C4.4987 18.656 4.48473 18.5925 4.4589 18.5336C4.43307 18.4746 4.39587 18.4213 4.34944 18.3768C4.30301 18.3322 4.24825 18.2972 4.18829 18.2738C4.12833 18.2504 4.06435 18.239 4 18.2403Z" fill="#F5F5F5"/>
<path d="M10 13.4386H8C7.86994 13.4362 7.74424 13.4854 7.6505 13.5756C7.55675 13.6658 7.50263 13.7895 7.5 13.9196V16.2796C7.5013 16.2152 7.51527 16.1517 7.5411 16.0928C7.56693 16.0338 7.60413 15.9806 7.65056 15.936C7.69699 15.8914 7.75175 15.8564 7.81171 15.833C7.87167 15.8096 7.93565 15.7982 8 15.7996H10C10.0644 15.7982 10.1283 15.8096 10.1883 15.833C10.2482 15.8564 10.303 15.8914 10.3494 15.936C10.3959 15.9806 10.4331 16.0338 10.4589 16.0928C10.4847 16.1517 10.4987 16.2152 10.5 16.2796V13.9196C10.4974 13.7895 10.4432 13.6658 10.3495 13.5756C10.2558 13.4854 10.1301 13.4362 10 13.4386Z" fill="#F5F5F5"/>
<path d="M16 15.3605H14C13.9356 15.3591 13.8717 15.3705 13.8117 15.3939C13.7518 15.4173 13.697 15.4523 13.6506 15.4969C13.6041 15.5414 13.5669 15.5947 13.5411 15.6537C13.5153 15.7126 13.5013 15.7761 13.5 15.8405V18.2005C13.5013 18.1361 13.5153 18.0726 13.5411 18.0137C13.5669 17.9547 13.6041 17.9014 13.6506 17.8569C13.697 17.8123 13.7518 17.7773 13.8117 17.7539C13.8717 17.7305 13.9356 17.7191 14 17.7205H16C16.0644 17.7191 16.1283 17.7305 16.1883 17.7539C16.2482 17.7773 16.303 17.8123 16.3494 17.8569C16.3959 17.9014 16.4331 17.9547 16.4589 18.0137C16.4847 18.0726 16.4987 18.1361 16.5 18.2005V15.8405C16.4987 15.7761 16.4847 15.7126 16.4589 15.6537C16.4331 15.5947 16.3959 15.5414 16.3494 15.4969C16.303 15.4523 16.2482 15.4173 16.1883 15.3939C16.1283 15.3705 16.0644 15.3591 16 15.3605Z" fill="#F5F5F5"/>
<path d="M22 8.63975H20C19.9356 8.63843 19.8717 8.64979 19.8117 8.6732C19.7518 8.6966 19.697 8.73159 19.6506 8.77617C19.6041 8.82074 19.5669 8.87403 19.5411 8.93298C19.5153 8.99193 19.5013 9.0554 19.5 9.11975V11.4798C19.5013 11.4154 19.5153 11.3519 19.5411 11.293C19.5669 11.234 19.6041 11.1807 19.6506 11.1362C19.697 11.0916 19.7518 11.0566 19.8117 11.0332C19.8717 11.0098 19.9356 10.9984 20 10.9998H22C22.0644 10.9984 22.1283 11.0098 22.1883 11.0332C22.2482 11.0566 22.303 11.0916 22.3494 11.1362C22.3959 11.1807 22.4331 11.234 22.4589 11.293C22.4847 11.3519 22.4987 11.4154 22.5 11.4798V9.11975C22.4987 9.0554 22.4847 8.99193 22.4589 8.93298C22.4331 8.87403 22.3959 8.82074 22.3494 8.77617C22.303 8.73159 22.2482 8.6966 22.1883 8.6732C22.1283 8.64979 22.0644 8.63843 22 8.63975Z" fill="#F5F5F5"/>
<path d="M4.5 18.7203C4.4987 18.656 4.48473 18.5925 4.4589 18.5336C4.43307 18.4746 4.39587 18.4213 4.34944 18.3768C4.30301 18.3322 4.24825 18.2972 4.18829 18.2738C4.12833 18.2504 4.06435 18.239 4 18.2403H2C1.93565 18.239 1.87167 18.2504 1.81171 18.2738C1.75175 18.2972 1.69699 18.3322 1.65056 18.3768C1.60413 18.4213 1.56693 18.4746 1.5411 18.5336C1.51527 18.5925 1.5013 18.656 1.5 18.7203V23.0403H4.5V18.7203Z" stroke="#333333" stroke-linecap="round" stroke-linejoin="round"/>
<path d="M10.5 13.9196C10.4987 13.8552 10.4847 13.7917 10.4589 13.7328C10.4331 13.6738 10.3959 13.6205 10.3494 13.576C10.303 13.5314 10.2482 13.4964 10.1883 13.473C10.1283 13.4496 10.0644 13.4382 10 13.4396H8C7.93565 13.4382 7.87167 13.4496 7.81171 13.473C7.75175 13.4964 7.69699 13.5314 7.65056 13.576C7.60413 13.6205 7.56693 13.6738 7.5411 13.7328C7.51527 13.7917 7.5013 13.8552 7.5 13.9196V23.0396H10.5V13.9196Z" stroke="#333333" stroke-linecap="round" stroke-linejoin="round"/>
<path d="M16.5 15.8405C16.4987 15.7761 16.4847 15.7126 16.4589 15.6537C16.4331 15.5947 16.3959 15.5414 16.3494 15.4969C16.303 15.4523 16.2482 15.4173 16.1883 15.3939C16.1283 15.3705 16.0644 15.3591 16 15.3605H14C13.9356 15.3591 13.8717 15.3705 13.8117 15.3939C13.7518 15.4173 13.697 15.4523 13.6506 15.4969C13.6041 15.5414 13.5669 15.5947 13.5411 15.6537C13.5153 15.7126 13.5013 15.7761 13.5 15.8405V23.0405H16.5V15.8405Z" stroke="#333333" stroke-linecap="round" stroke-linejoin="round"/>
<path d="M22.5 9.11975C22.4987 9.0554 22.4847 8.99193 22.4589 8.93298C22.4331 8.87403 22.3959 8.82074 22.3494 8.77617C22.303 8.73159 22.2482 8.6966 22.1883 8.6732C22.1283 8.64979 22.0644 8.63843 22 8.63975H20C19.9356 8.63843 19.8717 8.64979 19.8117 8.6732C19.7518 8.6966 19.697 8.73159 19.6506 8.77617C19.6041 8.82074 19.5669 8.87403 19.5411 8.93298C19.5153 8.99193 19.5013 9.0554 19.5 9.11975V23.0398H22.5V9.11975Z" stroke="#333333" stroke-linecap="round" stroke-linejoin="round"/>
<path d="M3.00005 12.9601C3.19366 12.9673 3.38675 12.9354 3.56776 12.8663C3.74876 12.7972 3.91397 12.6923 4.0535 12.5578C4.19304 12.4234 4.30403 12.2622 4.37984 12.0839C4.45565 11.9056 4.49472 11.7139 4.49472 11.5201C4.49472 11.3263 4.45565 11.1346 4.37984 10.9563C4.30403 10.778 4.19304 10.6168 4.0535 10.4824C3.91397 10.3479 3.74876 10.243 3.56776 10.1739C3.38675 10.1048 3.19366 10.0729 3.00005 10.0801C2.80643 10.0729 2.61334 10.1048 2.43234 10.1739C2.25133 10.243 2.08612 10.3479 1.94659 10.4824C1.80705 10.6168 1.69606 10.778 1.62025 10.9563C1.54444 11.1346 1.50537 11.3263 1.50537 11.5201C1.50537 11.7139 1.54444 11.9056 1.62025 12.0839C1.69606 12.2622 1.80705 12.4234 1.94659 12.5578C2.08612 12.6923 2.25133 12.7972 2.43234 12.8663C2.61334 12.9354 2.80643 12.9673 3.00005 12.9601Z" fill="#F5F5F5" stroke="#333333" stroke-linecap="round" stroke-linejoin="round"/>
<path d="M9 8.16009C9.28224 8.14852 9.55487 8.05426 9.78397 7.88901C10.0131 7.72376 10.1886 7.49482 10.2886 7.23065C10.3886 6.96647 10.4088 6.67872 10.3467 6.40317C10.2845 6.12761 10.1427 5.87641 9.93894 5.68078C9.73516 5.48515 9.47838 5.35373 9.20052 5.30286C8.92265 5.25199 8.63597 5.2839 8.37609 5.39464C8.11622 5.50538 7.89463 5.69006 7.73887 5.92571C7.58311 6.16137 7.50004 6.43761 7.5 6.72009C7.50814 7.1099 7.6707 7.48053 7.95197 7.75054C8.23323 8.02056 8.61018 8.16786 9 8.16009Z" fill="#F5F5F5" stroke="#333333" stroke-linecap="round" stroke-linejoin="round"/>
<path d="M15 10.08C15.2822 10.0684 15.5549 9.97418 15.784 9.80893C16.0131 9.64368 16.1886 9.41474 16.2886 9.15057C16.3886 8.8864 16.4088 8.59865 16.3467 8.32309C16.2845 8.04753 16.1427 7.79633 15.9389 7.6007C15.7352 7.40507 15.4784 7.27365 15.2005 7.22278C14.9227 7.17191 14.636 7.20382 14.3761 7.31456C14.1162 7.4253 13.8946 7.60998 13.7389 7.84564C13.5831 8.08129 13.5 8.35753 13.5 8.64001C13.5081 9.02982 13.6707 9.40045 13.952 9.67046C14.2332 9.94048 14.6102 10.0878 15 10.08Z" fill="#F5F5F5" stroke="#333333" stroke-linecap="round" stroke-linejoin="round"/>
<path d="M21 3.84039C21.3898 3.84816 21.7668 3.70086 22.048 3.43084C22.3293 3.16083 22.4919 2.7902 22.5 2.40039C22.5 2.00257 22.342 1.62104 22.0607 1.33973C21.7794 1.05843 21.3978 0.900391 21 0.900391C20.6022 0.900391 20.2206 1.05843 19.9393 1.33973C19.658 1.62104 19.5 2.00257 19.5 2.40039C19.5081 2.7902 19.6707 3.16083 19.952 3.43084C20.2332 3.70086 20.6102 3.84816 21 3.84039Z" fill="#F5F5F5" stroke="#333333" stroke-linecap="round" stroke-linejoin="round"/>
<path d="M4.26099 10.5096L7.84799 7.63965" stroke="#333333" stroke-linecap="round" stroke-linejoin="round"/>
<path d="M10.4231 7.17969L13.5771 8.18869" stroke="#333333" stroke-linecap="round" stroke-linejoin="round"/>
<path d="M19.8 3.25977L16.041 7.46977" stroke="#333333" stroke-linecap="round" stroke-linejoin="round"/>
</g>
<defs>
<clipPath id="clip0_19053_96893">
<rect width="24" height="24" fill="white"/>
</clipPath>
</defs>
</svg>
