<svg width="25" height="24" viewBox="0 0 25 24" fill="none" xmlns="http://www.w3.org/2000/svg">
<path d="M3 4.50098C3 5.56184 3.42143 6.57926 4.17157 7.3294C4.92172 8.07955 5.93913 8.50098 7 8.50098C8.06087 8.50098 9.07828 8.07955 9.82843 7.3294C10.5786 6.57926 11 5.56184 11 4.50098C11 3.44011 10.5786 2.4227 9.82843 1.67255C9.07828 0.922404 8.06087 0.500977 7 0.500977C5.93913 0.500977 4.92172 0.922404 4.17157 1.67255C3.42143 2.4227 3 3.44011 3 4.50098Z" fill="#EE2C3C"/>
<path d="M14 4.50098C14 5.56184 14.4214 6.57926 15.1716 7.3294C15.9217 8.07955 16.9391 8.50098 18 8.50098C19.0609 8.50098 20.0783 8.07955 20.8284 7.3294C21.5786 6.57926 22 5.56184 22 4.50098C22 3.44011 21.5786 2.4227 20.8284 1.67255C20.0783 0.922404 19.0609 0.500977 18 0.500977C16.9391 0.500977 15.9217 0.922404 15.1716 1.67255C14.4214 2.4227 14 3.44011 14 4.50098Z" fill="#EE2C3C"/>
<path d="M11 4.5C11 4.10218 11.158 3.72064 11.4393 3.43934C11.7206 3.15804 12.1022 3 12.5 3C12.8978 3 13.2794 3.15804 13.5607 3.43934C13.842 3.72064 14 4.10218 14 4.5" stroke="#333333" stroke-linecap="round" stroke-linejoin="round"/>
<path d="M3 4.50098H1.5" stroke="#333333" stroke-linecap="round" stroke-linejoin="round"/>
<path d="M23.5 4.50098H22" stroke="#333333" stroke-linecap="round" stroke-linejoin="round"/>
<path d="M12.5 23.5003L5.191 21.1263C4.99016 21.0611 4.81514 20.9339 4.69101 20.7631C4.56688 20.5922 4.50001 20.3865 4.5 20.1753V12.2753C4.50001 12.1175 4.53737 11.962 4.60901 11.8214C4.68066 11.6808 4.78456 11.5591 4.91223 11.4664C5.0399 11.3736 5.18771 11.3124 5.34357 11.2877C5.49943 11.263 5.65892 11.2756 5.809 11.3243L12.5 13.5003V23.5003Z" fill="#F5F5F5" stroke="#333333" stroke-linecap="round" stroke-linejoin="round"/>
<path d="M12.5 13.5003L19.191 11.3263C19.3412 11.2775 19.5007 11.265 19.6567 11.2897C19.8126 11.3144 19.9605 11.3757 20.0882 11.4686C20.2159 11.5615 20.3197 11.6833 20.3913 11.824C20.4629 11.9647 20.5001 12.1204 20.5 12.2783V20.1783C20.5 20.3895 20.4331 20.5952 20.309 20.766C20.1849 20.9369 20.0098 21.064 19.809 21.1293L12.5 23.5003V13.5003Z" fill="#EE2C3C" stroke="#333333" stroke-linecap="round" stroke-linejoin="round"/>
<path d="M16.275 17.6367L17.775 17.2087C17.984 17.1489 18.1678 17.0227 18.2986 16.8491C18.4294 16.6755 18.5001 16.4641 18.5 16.2467V15.8267C18.4999 15.6719 18.4639 15.5193 18.3949 15.3808C18.3258 15.2423 18.2255 15.1217 18.1019 15.0286C17.9783 14.9354 17.8348 14.8722 17.6826 14.844C17.5305 14.8157 17.3738 14.8231 17.225 14.8657L15.725 15.2937C15.516 15.3535 15.3322 15.4797 15.2014 15.6533C15.0706 15.8269 14.9999 16.0383 15 16.2557V16.6757C15.0001 16.8305 15.0361 16.9831 15.1051 17.1216C15.1742 17.2601 15.2745 17.3807 15.3981 17.4738C15.5217 17.567 15.6652 17.6302 15.8174 17.6584C15.9696 17.6867 16.1262 17.6793 16.275 17.6367Z" fill="#EE2C3C" stroke="#333333" stroke-linecap="round" stroke-linejoin="round"/>
<path d="M7.00006 0.500001C6.20828 0.499773 5.43425 0.73453 4.776 1.17454C4.11774 1.61455 3.60488 2.24002 3.30237 2.97172C2.99986 3.70343 2.9213 4.50846 3.07666 5.28484C3.23201 6.06122 3.61428 6.77404 4.17506 7.333L9.83106 1.676C9.46004 1.30297 9.0189 1.00702 8.53304 0.805193C8.04717 0.603363 7.52618 0.499642 7.00006 0.500001Z" fill="#F5F5F5"/>
<path d="M18 0.500002C17.2085 0.499972 16.4347 0.734802 15.7766 1.17476C15.1186 1.61472 14.6059 2.24003 14.3034 2.97153C14.001 3.70303 13.9223 4.50783 14.0775 5.28405C14.2326 6.06026 14.6146 6.77299 15.175 7.332L20.831 1.675C20.4599 1.30215 20.0188 1.00639 19.5329 0.804732C19.047 0.603076 18.5261 0.499512 18 0.500002Z" fill="#F5F5F5"/>
<path d="M3 4.50098C3 5.56184 3.42143 6.57926 4.17157 7.3294C4.92172 8.07955 5.93913 8.50098 7 8.50098C8.06087 8.50098 9.07828 8.07955 9.82843 7.3294C10.5786 6.57926 11 5.56184 11 4.50098C11 3.44011 10.5786 2.4227 9.82843 1.67255C9.07828 0.922404 8.06087 0.500977 7 0.500977C5.93913 0.500977 4.92172 0.922404 4.17157 1.67255C3.42143 2.4227 3 3.44011 3 4.50098Z" stroke="#333333" stroke-linecap="round" stroke-linejoin="round"/>
<path d="M14 4.50098C14 5.56184 14.4214 6.57926 15.1716 7.3294C15.9217 8.07955 16.9391 8.50098 18 8.50098C19.0609 8.50098 20.0783 8.07955 20.8284 7.3294C21.5786 6.57926 22 5.56184 22 4.50098C22 3.44011 21.5786 2.4227 20.8284 1.67255C20.0783 0.922404 19.0609 0.500977 18 0.500977C16.9391 0.500977 15.9217 0.922404 15.1716 1.67255C14.4214 2.4227 14 3.44011 14 4.50098Z" stroke="#333333" stroke-linecap="round" stroke-linejoin="round"/>
</svg>
