<svg width="24" height="24" viewBox="0 0 24 24" fill="none" xmlns="http://www.w3.org/2000/svg">
<path d="M12 3.5V22" stroke="#333333" stroke-linecap="round" stroke-linejoin="round"/>
<path d="M1 16.005L4.5 8.54004L8 16.005" stroke="#333333" stroke-linecap="round" stroke-linejoin="round"/>
<path d="M23 10.0002L19.5 2.41016L16 10.0002" stroke="#333333" stroke-linecap="round" stroke-linejoin="round"/>
<path d="M13.494 4.895L20.5 2" stroke="#333333" stroke-linecap="round" stroke-linejoin="round"/>
<path d="M2.44604 9.37039L13.494 4.90039" stroke="#333333" stroke-linecap="round" stroke-linejoin="round"/>
<path d="M7.5 22H16.5" stroke="#333333" stroke-linecap="round" stroke-linejoin="round"/>
<path d="M19.5 13.5C19.0372 13.5115 18.5769 13.4289 18.1471 13.2571C17.7172 13.0853 17.3268 12.8279 16.9994 12.5005C16.6721 12.1732 16.4147 11.7828 16.2429 11.3529C16.0711 10.9231 15.9884 10.4628 16 10H23C23.0115 10.4628 22.9288 10.9231 22.757 11.3529C22.5852 11.7828 22.3278 12.1732 22.0005 12.5005C21.6732 12.8279 21.2827 13.0853 20.8529 13.2571C20.423 13.4289 19.9627 13.5115 19.5 13.5Z" fill="#F5F5F5"/>
<path d="M22 10.75C21.6216 11.143 21.156 11.4412 20.6408 11.6205C20.1256 11.7999 19.5754 11.8553 19.0348 11.7822C18.4942 11.7092 17.9785 11.5097 17.5294 11.2001C17.0803 10.8904 16.7105 10.4793 16.45 10H16C16 10.9283 16.3687 11.8185 17.0251 12.4749C17.6815 13.1313 18.5717 13.5 19.5 13.5C20.4283 13.5 21.3185 13.1313 21.9749 12.4749C22.6313 11.8185 23 10.9283 23 10H22.549C22.4012 10.274 22.2165 10.5263 22 10.75Z" fill="#EE2C3C"/>
<path d="M19.5 13.5C19.0372 13.5115 18.5769 13.4289 18.1471 13.2571C17.7172 13.0853 17.3268 12.8279 16.9994 12.5005C16.6721 12.1732 16.4147 11.7828 16.2429 11.3529C16.0711 10.9231 15.9884 10.4628 16 10H23C23.0115 10.4628 22.9288 10.9231 22.757 11.3529C22.5852 11.7828 22.3278 12.1732 22.0005 12.5005C21.6732 12.8279 21.2827 13.0853 20.8529 13.2571C20.423 13.4289 19.9627 13.5115 19.5 13.5Z" stroke="#333333" stroke-linecap="round" stroke-linejoin="round"/>
<path d="M4.49996 19.5C4.03719 19.5115 3.5769 19.4289 3.14705 19.2571C2.7172 19.0853 2.32676 18.8279 1.99942 18.5005C1.67209 18.1732 1.41471 17.7828 1.2429 17.3529C1.07109 16.9231 0.988434 16.4628 0.999961 16H7.99996C8.01149 16.4628 7.92883 16.9231 7.75702 17.3529C7.58521 17.7828 7.32783 18.1732 7.0005 18.5005C6.67317 18.8279 6.28272 19.0853 5.85287 19.2571C5.42302 19.4289 4.96273 19.5115 4.49996 19.5Z" fill="#F5F5F5"/>
<path d="M6.99999 16.75C6.67269 17.0773 6.28234 17.3347 5.85261 17.5065C5.42287 17.6784 4.96269 17.7613 4.49999 17.75C4.03728 17.7613 3.57711 17.6784 3.14737 17.5065C2.71763 17.3347 2.32728 17.0773 1.99999 16.75C1.78349 16.5261 1.59846 16.2738 1.44999 16H0.999987C0.988316 16.4628 1.07087 16.9232 1.24263 17.3531C1.41439 17.783 1.67177 18.1735 1.99913 18.5009C2.32649 18.8282 2.717 19.0856 3.14691 19.2574C3.57683 19.4291 4.03718 19.5117 4.49999 19.5C4.9628 19.5117 5.42315 19.4291 5.85306 19.2574C6.28298 19.0856 6.67348 18.8282 7.00084 18.5009C7.3282 18.1735 7.58558 17.783 7.75734 17.3531C7.9291 16.9232 8.01166 16.4628 7.99999 16H7.54999C7.40151 16.2738 7.21648 16.5261 6.99999 16.75Z" fill="#EE2C3C"/>
<path d="M4.49996 19.5C4.03719 19.5115 3.5769 19.4289 3.14705 19.2571C2.7172 19.0853 2.32676 18.8279 1.99942 18.5005C1.67209 18.1732 1.41471 17.7828 1.2429 17.3529C1.07109 16.9231 0.988434 16.4628 0.999961 16H7.99996C8.01149 16.4628 7.92883 16.9231 7.75702 17.3529C7.58521 17.7828 7.32783 18.1732 7.0005 18.5005C6.67317 18.8279 6.28272 19.0853 5.85287 19.2571C5.42302 19.4289 4.96273 19.5115 4.49996 19.5Z" stroke="#333333" stroke-linecap="round" stroke-linejoin="round"/>
</svg>
