<svg width="24" height="24" viewBox="0 0 24 24" fill="none" xmlns="http://www.w3.org/2000/svg">
<g clip-path="url(#clip0_19053_96920)">
<path d="M7.51001 16.5C7.51001 15.3065 7.98412 14.1619 8.82803 13.318C9.67194 12.4741 10.8165 12 12.01 12C13.2035 12 14.3481 12.4741 15.192 13.318C16.0359 14.1619 16.51 15.3065 16.51 16.5H7.51001Z" fill="#EE2C3C" stroke="#333333" stroke-linecap="round" stroke-linejoin="round"/>
<path d="M9.26001 8.25C9.26001 8.97935 9.54974 9.67882 10.0655 10.1945C10.5812 10.7103 11.2807 11 12.01 11C12.7394 11 13.4388 10.7103 13.9546 10.1945C14.4703 9.67882 14.76 8.97935 14.76 8.25C14.76 7.52065 14.4703 6.82118 13.9546 6.30546C13.4388 5.78973 12.7394 5.5 12.01 5.5C11.2807 5.5 10.5812 5.78973 10.0655 6.30546C9.54974 6.82118 9.26001 7.52065 9.26001 8.25Z" fill="#F5F5F5" stroke="#333333" stroke-linecap="round" stroke-linejoin="round"/>
<path d="M16.9951 7.01959L20.1031 3.93359" stroke="#333333" stroke-linecap="round" stroke-linejoin="round"/>
<path d="M17.957 17.9785L20.071 20.1065" stroke="#333333" stroke-linecap="round" stroke-linejoin="round"/>
<path d="M6.99494 7.01959L3.88794 3.93359" stroke="#333333" stroke-linecap="round" stroke-linejoin="round"/>
<path d="M0.495117 2.5C0.495117 3.03043 0.705831 3.53914 1.0809 3.91421C1.45598 4.28929 1.96468 4.5 2.49512 4.5C3.02555 4.5 3.53426 4.28929 3.90933 3.91421C4.2844 3.53914 4.49512 3.03043 4.49512 2.5C4.49512 1.96957 4.2844 1.46086 3.90933 1.08579C3.53426 0.710714 3.02555 0.5 2.49512 0.5C1.96468 0.5 1.45598 0.710714 1.0809 1.08579C0.705831 1.46086 0.495117 1.96957 0.495117 2.5Z" fill="#EE2C3C"/>
<path d="M2.49999 2.09974C2.88795 2.10111 3.26714 2.21528 3.59135 2.42834C3.91557 2.64141 4.17081 2.94417 4.326 3.29974C4.43918 3.04814 4.49845 2.77563 4.5 2.49974C4.50068 2.20202 4.43489 1.9079 4.30743 1.63884C4.17996 1.36978 3.99403 1.13258 3.76321 0.944537C3.53239 0.756493 3.2625 0.622355 2.97323 0.551909C2.68396 0.481464 2.38261 0.476489 2.09117 0.537348C1.79974 0.598207 1.52556 0.723363 1.28866 0.903685C1.05176 1.08401 0.858101 1.31495 0.721822 1.57965C0.585544 1.84435 0.510082 2.13614 0.500943 2.43372C0.491803 2.7313 0.549217 3.02717 0.668995 3.29974C0.824518 2.94339 1.08054 2.6401 1.40573 2.42698C1.73092 2.21385 2.11119 2.10014 2.49999 2.09974Z" fill="#F5F5F5"/>
<path d="M0.495117 2.5C0.495117 3.03043 0.705831 3.53914 1.0809 3.91421C1.45598 4.28929 1.96468 4.5 2.49512 4.5C3.02555 4.5 3.53426 4.28929 3.90933 3.91421C4.2844 3.53914 4.49512 3.03043 4.49512 2.5C4.49512 1.96957 4.2844 1.46086 3.90933 1.08579C3.53426 0.710714 3.02555 0.5 2.49512 0.5C1.96468 0.5 1.45598 0.710714 1.0809 1.08579C0.705831 1.46086 0.495117 1.96957 0.495117 2.5Z" stroke="#333333" stroke-linecap="round" stroke-linejoin="round"/>
<path d="M0.495117 11.5C0.495117 12.0304 0.705831 12.5391 1.0809 12.9142C1.45598 13.2893 1.96468 13.5 2.49512 13.5C3.02555 13.5 3.53426 13.2893 3.90933 12.9142C4.2844 12.5391 4.49512 12.0304 4.49512 11.5C4.49512 10.9696 4.2844 10.4609 3.90933 10.0858C3.53426 9.71071 3.02555 9.5 2.49512 9.5C1.96468 9.5 1.45598 9.71071 1.0809 10.0858C0.705831 10.4609 0.495117 10.9696 0.495117 11.5Z" fill="#EE2C3C"/>
<path d="M2.49999 11.0997C2.8888 11.1001 3.26907 11.2139 3.59426 11.427C3.91945 11.6401 4.17547 11.9434 4.331 12.2997C4.44246 12.0478 4.50002 11.7753 4.5 11.4997C4.50068 11.202 4.43489 10.9079 4.30743 10.6388C4.17996 10.3698 3.99403 10.1326 3.76321 9.94454C3.53239 9.75649 3.2625 9.62235 2.97323 9.55191C2.68396 9.48146 2.38261 9.47649 2.09117 9.53735C1.79974 9.59821 1.52556 9.72336 1.28866 9.90368C1.05176 10.084 0.858101 10.3149 0.721822 10.5796C0.585544 10.8443 0.510082 11.1361 0.500943 11.4337C0.491803 11.7313 0.549217 12.0272 0.668995 12.2997C0.824518 11.9434 1.08054 11.6401 1.40573 11.427C1.73092 11.2139 2.11119 11.1001 2.49999 11.0997Z" fill="#F5F5F5"/>
<path d="M0.495117 11.5C0.495117 12.0304 0.705831 12.5391 1.0809 12.9142C1.45598 13.2893 1.96468 13.5 2.49512 13.5C3.02555 13.5 3.53426 13.2893 3.90933 12.9142C4.2844 12.5391 4.49512 12.0304 4.49512 11.5C4.49512 10.9696 4.2844 10.4609 3.90933 10.0858C3.53426 9.71071 3.02555 9.5 2.49512 9.5C1.96468 9.5 1.45598 9.71071 1.0809 10.0858C0.705831 10.4609 0.495117 10.9696 0.495117 11.5Z" stroke="#333333" stroke-linecap="round" stroke-linejoin="round"/>
<path d="M0.495117 21.5C0.495117 22.0304 0.705831 22.5391 1.0809 22.9142C1.45598 23.2893 1.96468 23.5 2.49512 23.5C3.02555 23.5 3.53426 23.2893 3.90933 22.9142C4.2844 22.5391 4.49512 22.0304 4.49512 21.5C4.49512 20.9696 4.2844 20.4609 3.90933 20.0858C3.53426 19.7107 3.02555 19.5 2.49512 19.5C1.96468 19.5 1.45598 19.7107 1.0809 20.0858C0.705831 20.4609 0.495117 20.9696 0.495117 21.5Z" fill="#EE2C3C"/>
<path d="M2.49999 21.0997C2.8888 21.1001 3.26907 21.2139 3.59426 21.427C3.91945 21.6401 4.17547 21.9434 4.331 22.2997C4.44246 22.0478 4.50002 21.7753 4.5 21.4997C4.50068 21.202 4.43489 20.9079 4.30743 20.6388C4.17996 20.3698 3.99403 20.1326 3.76321 19.9445C3.53239 19.7565 3.2625 19.6224 2.97323 19.5519C2.68396 19.4815 2.38261 19.4765 2.09117 19.5373C1.79974 19.5982 1.52556 19.7234 1.28866 19.9037C1.05176 20.084 0.858101 20.3149 0.721822 20.5796C0.585544 20.8443 0.510082 21.1361 0.500943 21.4337C0.491803 21.7313 0.549217 22.0272 0.668995 22.2997C0.824518 21.9434 1.08054 21.6401 1.40573 21.427C1.73092 21.2139 2.11119 21.1001 2.49999 21.0997Z" fill="#F5F5F5"/>
<path d="M0.495117 21.5C0.495117 22.0304 0.705831 22.5391 1.0809 22.9142C1.45598 23.2893 1.96468 23.5 2.49512 23.5C3.02555 23.5 3.53426 23.2893 3.90933 22.9142C4.2844 22.5391 4.49512 22.0304 4.49512 21.5C4.49512 20.9696 4.2844 20.4609 3.90933 20.0858C3.53426 19.7107 3.02555 19.5 2.49512 19.5C1.96468 19.5 1.45598 19.7107 1.0809 20.0858C0.705831 20.4609 0.495117 20.9696 0.495117 21.5Z" stroke="#333333" stroke-linecap="round" stroke-linejoin="round"/>
<path d="M19.5049 21.5C19.5049 22.0304 19.7156 22.5391 20.0907 22.9142C20.4657 23.2893 20.9744 23.5 21.5049 23.5C22.0353 23.5 22.544 23.2893 22.9191 22.9142C23.2942 22.5391 23.5049 22.0304 23.5049 21.5C23.5049 20.9696 23.2942 20.4609 22.9191 20.0858C22.544 19.7107 22.0353 19.5 21.5049 19.5C20.9744 19.5 20.4657 19.7107 20.0907 20.0858C19.7156 20.4609 19.5049 20.9696 19.5049 21.5Z" fill="#EE2C3C"/>
<path d="M21.5049 21.0998C21.8937 21.1001 22.274 21.2139 22.5991 21.427C22.9243 21.6401 23.1804 21.9434 23.3359 22.2998C23.4697 21.9953 23.5254 21.6624 23.4981 21.331C23.4708 20.9996 23.3614 20.6802 23.1796 20.4018C22.9978 20.1234 22.7495 19.8946 22.4571 19.7363C22.1647 19.578 21.8374 19.4951 21.5049 19.4951C21.1724 19.4951 20.8451 19.578 20.5527 19.7363C20.2603 19.8946 20.012 20.1234 19.8302 20.4018C19.6484 20.6802 19.5389 20.9996 19.5116 21.331C19.4843 21.6624 19.5401 21.9953 19.6739 22.2998C19.8294 21.9434 20.0854 21.6401 20.4106 21.427C20.7358 21.2139 21.1161 21.1001 21.5049 21.0998Z" fill="#F5F5F5"/>
<path d="M19.5049 21.5C19.5049 22.0304 19.7156 22.5391 20.0907 22.9142C20.4657 23.2893 20.9744 23.5 21.5049 23.5C22.0353 23.5 22.544 23.2893 22.9191 22.9142C23.2942 22.5391 23.5049 22.0304 23.5049 21.5C23.5049 20.9696 23.2942 20.4609 22.9191 20.0858C22.544 19.7107 22.0353 19.5 21.5049 19.5C20.9744 19.5 20.4657 19.7107 20.0907 20.0858C19.7156 20.4609 19.5049 20.9696 19.5049 21.5Z" stroke="#333333" stroke-linecap="round" stroke-linejoin="round"/>
<path d="M19.5049 11.5C19.5049 12.0304 19.7156 12.5391 20.0907 12.9142C20.4657 13.2893 20.9744 13.5 21.5049 13.5C22.0353 13.5 22.544 13.2893 22.9191 12.9142C23.2942 12.5391 23.5049 12.0304 23.5049 11.5C23.5049 10.9696 23.2942 10.4609 22.9191 10.0858C22.544 9.71071 22.0353 9.5 21.5049 9.5C20.9744 9.5 20.4657 9.71071 20.0907 10.0858C19.7156 10.4609 19.5049 10.9696 19.5049 11.5Z" fill="#EE2C3C"/>
<path d="M21.5049 11.0998C21.8937 11.1001 22.274 11.2139 22.5991 11.427C22.9243 11.6401 23.1804 11.9434 23.3359 12.2998C23.4697 11.9953 23.5254 11.6624 23.4981 11.331C23.4708 10.9996 23.3614 10.6802 23.1796 10.4018C22.9978 10.1234 22.7495 9.89464 22.4571 9.73633C22.1647 9.57802 21.8374 9.49512 21.5049 9.49512C21.1724 9.49512 20.8451 9.57802 20.5527 9.73633C20.2603 9.89464 20.012 10.1234 19.8302 10.4018C19.6484 10.6802 19.5389 10.9996 19.5116 11.331C19.4843 11.6624 19.5401 11.9953 19.6739 12.2998C19.8294 11.9434 20.0854 11.6401 20.4106 11.427C20.7358 11.2139 21.1161 11.1001 21.5049 11.0998Z" fill="#F5F5F5"/>
<path d="M19.5049 11.5C19.5049 12.0304 19.7156 12.5391 20.0907 12.9142C20.4657 13.2893 20.9744 13.5 21.5049 13.5C22.0353 13.5 22.544 13.2893 22.9191 12.9142C23.2942 12.5391 23.5049 12.0304 23.5049 11.5C23.5049 10.9696 23.2942 10.4609 22.9191 10.0858C22.544 9.71071 22.0353 9.5 21.5049 9.5C20.9744 9.5 20.4657 9.71071 20.0907 10.0858C19.7156 10.4609 19.5049 10.9696 19.5049 11.5Z" stroke="#333333" stroke-linecap="round" stroke-linejoin="round"/>
<path d="M19.5049 2.5C19.5049 3.03043 19.7156 3.53914 20.0907 3.91421C20.4657 4.28929 20.9744 4.5 21.5049 4.5C22.0353 4.5 22.544 4.28929 22.9191 3.91421C23.2942 3.53914 23.5049 3.03043 23.5049 2.5C23.5049 1.96957 23.2942 1.46086 22.9191 1.08579C22.544 0.710714 22.0353 0.5 21.5049 0.5C20.9744 0.5 20.4657 0.710714 20.0907 1.08579C19.7156 1.46086 19.5049 1.96957 19.5049 2.5Z" fill="#EE2C3C"/>
<path d="M21.5049 2.09975C21.8937 2.10015 22.274 2.21386 22.5991 2.42699C22.9243 2.64011 23.1804 2.9434 23.3359 3.29975C23.4697 2.99534 23.5254 2.66237 23.4981 2.33097C23.4708 1.99958 23.3614 1.68022 23.1796 1.40179C22.9978 1.12336 22.7495 0.894641 22.4571 0.736332C22.1647 0.578022 21.8374 0.495117 21.5049 0.495117C21.1724 0.495117 20.8451 0.578022 20.5527 0.736332C20.2603 0.894641 20.012 1.12336 19.8302 1.40179C19.6484 1.68022 19.5389 1.99958 19.5116 2.33097C19.4843 2.66237 19.5401 2.99534 19.6739 3.29975C19.8294 2.9434 20.0854 2.64011 20.4106 2.42699C20.7358 2.21386 21.1161 2.10015 21.5049 2.09975Z" fill="#F5F5F5"/>
<path d="M19.5049 2.5C19.5049 3.03043 19.7156 3.53914 20.0907 3.91421C20.4657 4.28929 20.9744 4.5 21.5049 4.5C22.0353 4.5 22.544 4.28929 22.9191 3.91421C23.2942 3.53914 23.5049 3.03043 23.5049 2.5C23.5049 1.96957 23.2942 1.46086 22.9191 1.08579C22.544 0.710714 22.0353 0.5 21.5049 0.5C20.9744 0.5 20.4657 0.710714 20.0907 1.08579C19.7156 1.46086 19.5049 1.96957 19.5049 2.5Z" stroke="#333333" stroke-linecap="round" stroke-linejoin="round"/>
<path d="M6.03297 17.9785L3.91797 20.1065" stroke="#333333" stroke-linecap="round" stroke-linejoin="round"/>
<path d="M16.4951 11.5H19.4951" stroke="#333333" stroke-linecap="round" stroke-linejoin="round"/>
<path d="M7.49512 11.5H4.49512" stroke="#333333" stroke-linecap="round" stroke-linejoin="round"/>
</g>
<defs>
<clipPath id="clip0_19053_96920">
<rect width="24" height="24" fill="white"/>
</clipPath>
</defs>
</svg>
