<svg width="24" height="24" viewBox="0 0 24 24" fill="none" xmlns="http://www.w3.org/2000/svg">
<path d="M21.0469 14.2366L4.37023 19.2248L3.16968 17.4151L14.2382 3.98242L21.0469 14.2354V14.2366Z" fill="#EE2C3C"/>
<path d="M2.77148 16.8086L4.77321 19.8249" stroke="#333333" stroke-width="1.19221" stroke-linecap="round" stroke-linejoin="round"/>
<path d="M13.8438 3.375L21.4512 14.8357" stroke="#333333" stroke-width="1.19221" stroke-linecap="round" stroke-linejoin="round"/>
<path d="M14.2382 3.98242L3.16968 17.4151L3.82539 18.4046L17.8255 9.38552L14.2382 3.98242Z" fill="#F5F5F5"/>
<path d="M21.0469 14.2366L4.37023 19.2248L3.16968 17.4151L14.2382 3.98242L21.0469 14.2354V14.2366Z" stroke="#333333" stroke-width="1.19221" stroke-linecap="round" stroke-linejoin="round"/>
<path d="M13.0507 16.627C13.2782 16.888 13.4498 17.1929 13.5549 17.5228C13.6599 17.8527 13.6963 18.2007 13.6616 18.5452C13.6269 18.8898 13.522 19.2235 13.3533 19.5259C13.1846 19.8283 12.9557 20.0929 12.6808 20.3034C12.4058 20.5138 12.0906 20.6657 11.7547 20.7496C11.4187 20.8335 11.0691 20.8476 10.7275 20.7911C10.3859 20.7346 10.0595 20.6087 9.76844 20.4211C9.47738 20.2335 9.22788 19.9883 9.03532 19.7005L7.98975 18.1256" stroke="#333333" stroke-width="1.19221" stroke-linecap="round" stroke-linejoin="round"/>
</svg>
