<svg width="24" height="24" viewBox="0 0 24 24" fill="none" xmlns="http://www.w3.org/2000/svg">
<path d="M23 8.55859V19.7939" stroke="#333333" stroke-linecap="round" stroke-linejoin="round"/>
<path d="M12.5861 12.4877C12.0512 12.7034 11.4536 12.7034 10.9187 12.4877L5.01123 10.1328V17.3234C6.85092 18.9723 9.29133 19.7859 11.7524 19.5706C14.2135 19.7859 16.6539 18.9723 18.4936 17.3234V10.1328L12.5861 12.4877Z" fill="#F5F5F5"/>
<path d="M10.9264 4.16177L1.17622 8.06044C0.975576 8.1409 0.937455 8.40856 1.1076 8.54198C1.12847 8.55844 1.15154 8.57188 1.17622 8.58171L10.9264 12.4804C11.4613 12.6961 12.0588 12.6961 12.5938 12.4804L22.9954 8.3277L12.5938 4.16177C12.0588 3.94608 11.4613 3.94608 10.9264 4.16177Z" fill="#EE2C3C" stroke="#333333" stroke-linecap="round" stroke-linejoin="round"/>
<path d="M5.01123 13.9434V17.3139C6.85092 18.9628 9.29133 19.7764 11.7524 19.5611C14.2135 19.7764 16.6539 18.9628 18.4936 17.3139V13.9434" stroke="#333333" stroke-linecap="round" stroke-linejoin="round"/>
</svg>
