<svg width="25" height="24" viewBox="0 0 25 24" fill="none" xmlns="http://www.w3.org/2000/svg">
<g clip-path="url(#clip0_19053_96953)">
<path d="M24 8V19C24 19.5304 23.7893 20.0391 23.4142 20.4142C23.0391 20.7893 22.5304 21 22 21H3C2.46957 21 1.96086 20.7893 1.58579 20.4142C1.21071 20.0391 1 19.5304 1 19V8H24Z" fill="#EE2C3C"/>
<path d="M3.83333 21.1875H7.70833L24.5 7.6875H1.25V19.1106C1.25 19.6614 1.52217 20.1897 2.00664 20.5792C2.49111 20.9687 3.14819 21.1875 3.83333 21.1875Z" fill="#F5F5F5"/>
<path d="M24 8H1V5C1 4.46957 1.21071 3.96086 1.58579 3.58579C1.96086 3.21071 2.46957 3 3 3H22C22.5304 3 23.0391 3.21071 23.4142 3.58579C23.7893 3.96086 24 4.46957 24 5V8Z" fill="#F5F5F5"/>
<path d="M3 3H22C22 3 24 3 24 5V19C24 19 24 21 22 21H3C3 21 1 21 1 19V5C1 5 1 3 3 3Z" stroke="#333333" stroke-linecap="round" stroke-linejoin="round"/>
<path d="M1 8H24" stroke="#333333" stroke-linecap="round" stroke-linejoin="round"/>
<path d="M4.5 5.25C4.54945 5.25 4.59778 5.26466 4.63889 5.29213C4.68 5.3196 4.71205 5.35865 4.73097 5.40433C4.74989 5.45001 4.75484 5.50028 4.7452 5.54877C4.73555 5.59727 4.71174 5.64181 4.67678 5.67678C4.64181 5.71174 4.59727 5.73555 4.54877 5.7452C4.50028 5.75484 4.45001 5.74989 4.40433 5.73097C4.35865 5.71205 4.3196 5.68 4.29213 5.63889C4.26466 5.59778 4.25 5.54945 4.25 5.5C4.25 5.4337 4.27634 5.37011 4.32322 5.32322C4.37011 5.27634 4.4337 5.25 4.5 5.25Z" stroke="#333333" stroke-linecap="round" stroke-linejoin="round"/>
<path d="M7.5 5.25C7.54945 5.25 7.59778 5.26466 7.63889 5.29213C7.68 5.3196 7.71205 5.35865 7.73097 5.40433C7.74989 5.45001 7.75484 5.50028 7.7452 5.54877C7.73555 5.59727 7.71174 5.64181 7.67678 5.67678C7.64181 5.71174 7.59727 5.73555 7.54877 5.7452C7.50028 5.75484 7.45001 5.74989 7.40433 5.73097C7.35865 5.71205 7.3196 5.68 7.29213 5.63889C7.26466 5.59778 7.25 5.54945 7.25 5.5C7.25 5.4337 7.27634 5.37011 7.32322 5.32322C7.37011 5.27634 7.4337 5.25 7.5 5.25Z" stroke="#333333" stroke-linecap="round" stroke-linejoin="round"/>
<path d="M10.5 5.25C10.5494 5.25 10.5978 5.26466 10.6389 5.29213C10.68 5.3196 10.712 5.35865 10.731 5.40433C10.7499 5.45001 10.7548 5.50028 10.7452 5.54877C10.7356 5.59727 10.7117 5.64181 10.6768 5.67678C10.6418 5.71174 10.5973 5.73555 10.5488 5.7452C10.5003 5.75484 10.45 5.74989 10.4043 5.73097C10.3586 5.71205 10.3196 5.68 10.2921 5.63889C10.2647 5.59778 10.25 5.54945 10.25 5.5C10.25 5.4337 10.2763 5.37011 10.3232 5.32322C10.3701 5.27634 10.4337 5.25 10.5 5.25Z" stroke="#333333" stroke-linecap="round" stroke-linejoin="round"/>
<path d="M16.25 12L19.25 15L16.25 18" stroke="#333333" stroke-linecap="round" stroke-linejoin="round"/>
<path d="M8.75 12L5.75 15L8.75 18" stroke="#333333" stroke-linecap="round" stroke-linejoin="round"/>
<path d="M14 12L11 18" stroke="#333333" stroke-linecap="round" stroke-linejoin="round"/>
</g>
<defs>
<clipPath id="clip0_19053_96953">
<rect width="24" height="24" fill="white" transform="translate(0.5)"/>
</clipPath>
</defs>
</svg>
