<?xml version="1.0" encoding="UTF-8"?> <svg xmlns="http://www.w3.org/2000/svg" width="100" height="37" viewBox="0 0 100 37" fill="none"><path d="M18.1797 36.9365C8.22764 36.9365 0.179688 28.8886 0.179688 18.9619C0.179688 9.00987 8.22764 0.961914 18.1797 0.961914H81.5986C91.5252 0.961914 99.5986 9.00987 99.5986 18.9619C99.5986 28.8886 91.5506 36.9619 81.5986 36.9619H18.1797V36.9365Z" fill="black"></path><path d="M24.1463 25.6391L23.9686 24.1159C23.3593 25.0298 22.0391 25.9184 20.0335 25.9184C16.4538 25.9184 13.3818 23.2781 13.3818 18.9621C13.3818 14.6462 16.6061 11.9805 20.2112 11.9805C23.7147 11.9805 25.6442 14.0369 26.3043 16.0933L23.8162 16.9819C23.4862 15.7886 22.3691 14.4177 20.1858 14.4177C18.1801 14.4177 15.9714 15.7886 15.9714 18.9621C15.9714 21.9833 17.9517 23.5319 20.1858 23.5319C22.6484 23.5319 23.6131 21.8817 23.7655 20.9424H19.6019V18.6829H26.2789V25.6391H24.1463Z" fill="white"></path><path d="M36.2817 22.9734C35.7994 24.5728 34.3523 25.9184 32.0674 25.9184C29.5286 25.9184 27.269 24.0904 27.269 20.9677C27.269 17.9974 29.4524 16.0933 31.8389 16.0933C34.7077 16.0933 36.4087 17.9212 36.4087 20.8916C36.4087 21.247 36.3833 21.6278 36.3833 21.6532H29.7571C29.8078 22.8718 30.8487 23.7604 32.0927 23.7604C33.2606 23.7604 33.8953 23.1765 34.1999 22.3387L36.2817 22.9734ZM33.9461 19.9522C33.9207 19.0383 33.3114 18.1243 31.8642 18.1243C30.5695 18.1243 29.8586 19.1144 29.7824 19.9522H33.9461Z" fill="white"></path><path d="M37.4751 25.6391V16.3725H39.8616V17.515C40.3693 16.601 41.5625 16.1187 42.5781 16.1187C43.8475 16.1187 44.863 16.6772 45.32 17.6673C46.0562 16.5249 47.0463 16.1187 48.2649 16.1187C49.9913 16.1187 51.6161 17.1596 51.6161 19.6476V25.6645H49.1789V20.1299C49.1789 19.1398 48.6965 18.3782 47.5287 18.3782C46.4624 18.3782 45.8023 19.216 45.8023 20.2061V25.6391H43.3397V20.1299C43.3397 19.1398 42.8319 18.3782 41.6895 18.3782C40.5978 18.3782 39.9631 19.1906 39.9631 20.2061V25.6391H37.4751Z" fill="white"></path><path d="M59.5369 12.0059C63.1673 12.0059 66.417 14.6716 66.417 18.9875C66.417 23.2781 63.1673 25.9438 59.5369 25.9438C55.9064 25.9438 52.6821 23.2781 52.6821 18.9875C52.6821 14.6462 55.9318 12.0059 59.5369 12.0059ZM59.5369 23.405C61.6187 23.405 63.7259 21.9833 63.7259 18.9621C63.7259 15.941 61.6187 14.5193 59.5369 14.5193C57.4804 14.5193 55.3732 15.941 55.3732 18.9621C55.3732 21.9579 57.5058 23.405 59.5369 23.405Z" fill="white"></path><path d="M70.1491 25.6391H67.6357V16.3725H70.073V17.515C70.6315 16.5502 71.7486 16.1187 72.7387 16.1187C75.049 16.1187 76.0899 17.7689 76.0899 19.7999V25.6391H73.5765V20.2315C73.5765 19.1906 73.0687 18.3782 71.8501 18.3782C70.7584 18.3782 70.1238 19.216 70.1238 20.3076V25.6391H70.1491Z" fill="white"></path><path d="M86.0166 22.9734C85.5342 24.5728 84.0871 25.9184 81.8022 25.9184C79.2634 25.9184 77.0039 24.0904 77.0039 20.9677C77.0039 17.9974 79.1873 16.0933 81.5737 16.0933C84.4426 16.0933 86.1435 17.9212 86.1435 20.8916C86.1435 21.247 86.1182 21.6278 86.1182 21.6532H79.4919C79.5427 22.8718 80.5836 23.7604 81.8276 23.7604C82.9954 23.7604 83.6301 23.1765 83.9348 22.3387L86.0166 22.9734ZM83.6809 19.9522C83.6555 19.0383 83.0462 18.1243 81.5991 18.1243C80.3043 18.1243 79.5935 19.1144 79.5173 19.9522H83.6809Z" fill="white"></path><path d="M87.286 14.0874C88.0984 14.0874 88.7331 14.7475 88.7331 15.5345C88.7331 16.3215 88.073 16.9816 87.286 16.9816C86.4736 16.9816 85.8389 16.3215 85.8389 15.5345C85.8389 14.7475 86.4736 14.0874 87.286 14.0874ZM87.286 16.7024C87.9207 16.7024 88.403 16.1946 88.403 15.5599C88.403 14.9252 87.9207 14.4174 87.286 14.4174C86.6513 14.4174 86.1689 14.9252 86.1689 15.5599C86.1689 16.1946 86.6513 16.7024 87.286 16.7024ZM87.2352 15.7884H87.1337V16.3215H86.7528V14.7475H87.3621C87.6668 14.7475 87.8953 14.976 87.8953 15.2552C87.8953 15.4583 87.7683 15.6361 87.5906 15.7122L87.8953 16.3215H87.5145L87.2352 15.7884ZM87.3114 15.4837C87.4637 15.4837 87.5399 15.4076 87.5399 15.2806C87.5399 15.1537 87.4637 15.0775 87.3114 15.0775H87.1337V15.4837H87.3114Z" fill="white"></path></svg> 