<?xml version="1.0" encoding="UTF-8"?> <svg xmlns="http://www.w3.org/2000/svg" width="186" height="36" viewBox="0 0 186 36" fill="none"><mask id="mask0_8606_13348" style="mask-type:luminance" maskUnits="userSpaceOnUse" x="1" y="0" width="185" height="36"><path d="M185.913 0H1V36H185.913V0Z" fill="white"></path></mask><g mask="url(#mask0_8606_13348)"><path d="M177.878 10.4763C177.317 10.4763 176.876 10.0361 176.876 9.4753V5.92928C176.876 3.72672 175.455 2.46484 172.614 2.46484C170.576 2.46484 169.431 3.25997 168.729 4.42601V4.90166L170.493 5.90975C170.493 5.90975 170.914 4.6283 172.615 4.6283C173.696 4.6283 174.376 4.96908 174.376 5.56898C174.376 5.98957 174.296 6.47056 172.173 6.81133C170.933 7.01189 169.352 7.29227 168.75 8.09274V11.4169C169.71 12.4392 170.672 13.0799 172.173 13.0799C173.334 13.0799 174.436 12.5191 175.056 11.6973C175.617 12.3576 176.437 12.7782 177.377 12.7782H177.977V10.4745H177.878V10.4763ZM174.374 9.01384C174.374 10.4159 173.533 10.9164 172.573 10.9164C171.992 10.9164 171.473 10.7354 171.011 10.4159V9.11323C171.872 8.59325 173.434 8.75293 174.374 8.19213V9.01384Z" fill="#27274F"></path><path d="M18.409 19.5424C18.409 24.9556 15.154 29.2346 10.3993 29.2346C8.20568 29.2346 6.59591 28.3206 5.49911 26.7836V36.0002H1V10.4005H5.13351L5.57188 12.2285C6.66872 10.7288 8.24117 9.85205 10.3993 9.85205C15.154 9.85205 18.409 14.1683 18.409 19.5442V19.5424ZM13.8371 19.5424C13.8371 16.6158 12.2646 14.2394 9.66812 14.2394C7.07157 14.2394 5.49911 16.6158 5.49911 19.5424C5.49911 22.4691 7.07157 24.8455 9.66812 24.8455C12.2646 24.8455 13.8371 22.5046 13.8371 19.5424Z" fill="#27274F"></path><path d="M31.0152 14.6049H29.7356C26.1523 14.6049 25.0182 16.5074 25.0182 18.9939V28.6861H20.3735V10.4004H24.6526L25.201 12.5585C25.9695 11.3144 27.1391 10.4004 28.8216 10.4004H31.0152V14.6067V14.6049Z" fill="#27274F"></path><path d="M30.9673 19.5423C30.9673 14.1291 35.3191 9.8501 40.0737 9.8501C44.8285 9.8501 49.1803 14.1291 49.1803 19.5423C49.1803 24.9554 44.8285 29.2344 40.0737 29.2344C35.3191 29.2344 30.9673 24.9181 30.9673 19.5423ZM44.5356 19.5423C44.5356 16.5801 42.6703 14.3119 40.0737 14.3119C37.4772 14.3119 35.6119 16.5801 35.6119 19.5423C35.6119 22.5044 37.4772 24.7726 40.0737 24.7726C42.6703 24.7726 44.5356 22.4689 44.5356 19.5423Z" fill="#27274F"></path><path d="M67.0791 24.1514C67.0791 24.1514 64.7755 29.2344 59.3978 29.2344C54.6432 29.2344 50.6572 24.9181 50.6572 19.5423C50.6572 14.1664 54.6432 9.8501 59.3978 9.8501C64.774 9.8501 67.1147 15.0077 67.1147 15.0077L63.2014 17.2386C63.2014 17.2386 62.3973 14.2392 59.3978 14.2392C56.8015 14.2392 55.2289 16.5801 55.2289 19.5423C55.2289 22.5044 56.8015 24.8454 59.3978 24.8454C62.3602 24.8454 63.2014 21.8832 63.2014 21.8832L67.0777 24.1514H67.0791Z" fill="#27274F"></path><path d="M67.896 19.5423C67.896 14.1291 72.2477 9.8501 77.0023 9.8501C81.7568 9.8501 86.1085 14.1291 86.1085 19.5423C86.1085 24.9554 81.7568 29.2344 77.0023 29.2344C72.2477 29.2344 67.896 24.9181 67.896 19.5423ZM81.4642 19.5423C81.4642 16.5801 79.599 14.3119 77.0023 14.3119C74.4056 14.3119 72.5403 16.5801 72.5403 19.5423C72.5403 22.5044 74.4056 24.7726 77.0023 24.7726C79.599 24.7726 81.4642 22.4689 81.4642 19.5423Z" fill="#27274F"></path><path d="M103.842 28.6861H99.6356L99.2704 27.1864C98.2463 28.4305 96.6737 29.2345 94.5529 29.2345C90.9677 29.2345 87.9702 25.9795 87.9702 22.6518V10.4004H92.5419V21.555C92.5419 23.3103 93.8214 24.8472 95.6516 24.8472C97.2613 24.8472 98.4682 24.5544 99.2719 23.0547V10.4004H103.844V28.6879L103.842 28.6861Z" fill="#27274F"></path><path d="M130.904 22.6499C130.904 23.6739 131.709 24.4779 132.733 24.4779H134.085V28.6842H131.891C128.856 28.6842 126.333 26.2332 126.333 23.1983V14.6029H123.956V10.3966H125.236C126.04 10.3966 126.698 9.73821 126.698 8.93419V5.27637H130.904V10.3966H135.184V14.6029H130.904V22.6481V22.6499Z" fill="#27274F"></path><path d="M135.562 19.5423C135.562 14.1291 139.913 9.8501 144.668 9.8501C149.422 9.8501 153.775 14.1291 153.775 19.5423C153.775 24.9554 149.422 29.2344 144.668 29.2344C139.913 29.2344 135.562 24.9181 135.562 19.5423ZM149.13 19.5423C149.13 16.5801 147.264 14.3119 144.668 14.3119C142.072 14.3119 140.206 16.5801 140.206 19.5423C140.206 22.5044 142.072 24.7726 144.668 24.7726C147.264 24.7726 149.13 22.4689 149.13 19.5423Z" fill="#27274F"></path><path d="M166.432 14.6052H165.153C161.57 14.6052 160.435 16.5078 160.435 18.9943V28.6865H155.791V10.3989H160.07L160.618 12.5571C161.387 11.313 162.556 10.3989 164.239 10.3989H166.432V14.6052Z" fill="#27274F"></path><path d="M106.631 28.6862V10.4005H110.833L111.199 11.9002C112.223 10.656 113.794 9.85205 115.915 9.85205C119.496 9.85205 122.494 13.107 122.494 16.4348V28.6862H117.926V17.5316C117.926 15.7763 116.646 14.2394 114.82 14.2394C113.212 14.2394 112.005 14.5322 111.201 16.0319V28.6844H106.632L106.631 28.6862Z" fill="#27274F"></path><path d="M67.8301 19.5491C67.8301 14.136 72.1818 9.85693 76.9363 9.85693C81.6909 9.85693 86.0431 14.136 86.0431 19.5491C86.0431 24.9623 81.6909 29.2413 76.9363 29.2413C72.1818 29.2413 67.8301 24.925 67.8301 19.5491ZM81.3983 19.5491C81.3983 16.587 79.533 14.3188 76.9363 14.3188C74.3401 14.3188 72.4744 16.587 72.4744 19.5491C72.4744 22.5113 74.3401 24.7794 76.9363 24.7794C79.533 24.7794 81.3983 22.4758 81.3983 19.5491Z" fill="#27274F"></path><path d="M103.775 28.693H99.5692L99.2035 27.1933C98.1794 28.4374 96.6068 29.2414 94.486 29.2414C90.9008 29.2414 87.9033 25.9864 87.9033 22.6586V10.4072H92.475V21.5618C92.475 23.3171 93.7551 24.8541 95.5847 24.8541C97.1944 24.8541 98.4013 24.5612 99.2055 23.0615V10.4072H103.777V28.6948L103.775 28.693Z" fill="#27274F"></path><path d="M130.839 22.6592C130.839 23.6832 131.643 24.4872 132.667 24.4872H134.019V28.6935H131.826C128.79 28.6935 126.267 26.2425 126.267 23.2076V14.6122H123.89V10.406H125.17C125.974 10.406 126.633 9.74749 126.633 8.94352V5.28564H130.839V10.406H135.118V14.6122H130.839V22.6574V22.6592Z" fill="#27274F"></path><path d="M135.496 19.5491C135.496 14.136 139.848 9.85693 144.602 9.85693C149.357 9.85693 153.709 14.136 153.709 19.5491C153.709 24.9623 149.357 29.2413 144.602 29.2413C139.848 29.2413 135.496 24.925 135.496 19.5491ZM149.064 19.5491C149.064 16.587 147.199 14.3188 144.602 14.3188C142.006 14.3188 140.141 16.587 140.141 19.5491C140.141 22.5113 142.006 24.7794 144.602 24.7794C147.199 24.7794 149.064 22.4758 149.064 19.5491Z" fill="#27274F"></path><path d="M166.365 14.6116H165.085C161.502 14.6116 160.368 16.5142 160.368 19.0006V28.6928H155.724V10.4053H160.003L160.551 12.5634C161.319 11.3193 162.489 10.4053 164.172 10.4053H166.365V14.6116Z" fill="#27274F"></path><path d="M106.565 28.6931V10.4073H110.767L111.133 11.907C112.157 10.6629 113.728 9.85889 115.849 9.85889C119.43 9.85889 122.428 13.1139 122.428 16.4416V28.6931H117.86V17.5384C117.86 15.7832 116.58 14.2462 114.754 14.2462C113.146 14.2462 111.939 14.539 111.135 16.0387V28.6913H106.566L106.565 28.6931Z" fill="#27274F"></path><path d="M185.913 2.8113H183.084V0H180.785L180.784 2.8113H177.94V5.11498H180.784V7.96883H183.084V5.11498H185.913V2.8113Z" fill="#27274F"></path></g></svg> 