<?xml version="1.0" encoding="UTF-8"?> <svg xmlns="http://www.w3.org/2000/svg" width="161" height="36" viewBox="0 0 161 36" fill="none"><path d="M0 2.18359V20.0939C8.55435 20.0939 15.4949 12.0775 15.4949 2.18359H0Z" fill="#4D0030"></path><path d="M13.0796 19.5561C13.0796 28.3952 20.2416 35.5572 29.0808 35.5572V3.56543C20.2416 3.56543 13.0796 10.7275 13.0796 19.5561Z" fill="#4D0030"></path><path d="M42.3919 14.1762C42.3919 17.4672 44.0901 18.4165 46.4106 18.4165C47.1174 18.4165 47.8663 18.2688 48.2987 18.1211V15.9694C47.8873 16.117 47.4021 16.1909 46.8642 16.1909C45.4613 16.1909 44.8074 15.5369 44.8074 14.0391V8.185H48.3093V6.05432H44.8179H42.9193C44.28 5.79063 45.3242 4.42995 45.3242 2.77393H42.4446V6.05432H42.4024L40.4194 6.41295V8.185H42.4024V14.1762H42.3919Z" fill="#4D0030"></path><path d="M57.8238 8.53308V5.8961C57.6339 5.84336 57.3386 5.82227 57.0432 5.82227C55.1973 5.82227 53.7206 6.6661 52.8557 8.24828V6.05432H50.4297V18.1739H52.8557V12.0877C52.8663 9.59842 54.2164 8.33267 56.5475 8.33267C57.0327 8.33267 57.4651 8.4065 57.8238 8.53308Z" fill="#4D0030"></path><path d="M68.5823 18.1742V9.69364C68.5823 6.8879 66.1563 5.81201 63.5404 5.81201C60.8718 5.81201 58.3508 7.00393 58.3508 10.1261H60.8718C60.8718 8.55447 61.9582 7.75283 63.5404 7.75283C65.0171 7.75283 66.1563 8.4068 66.1563 9.59871C66.1563 12.3623 57.9922 9.74638 57.9922 14.9781C57.9922 17.3725 59.9541 18.4168 62.1164 18.4168C63.8568 18.4168 65.4074 17.7417 66.209 16.1384V18.1742H68.5823ZM62.6016 16.381C61.3675 16.381 60.4709 15.8747 60.4709 14.8305C60.4709 12.7947 64.1522 13.301 66.209 12.3095V13.185C66.209 15.284 64.4686 16.381 62.6016 16.381Z" fill="#4D0030"></path><path d="M75.1325 16.2334L71.831 6.05469H69.3101L73.4343 18.1742H76.8202L80.9444 6.05469H78.4235L75.1325 16.2334Z" fill="#4D0030"></path><path d="M97.6628 0L95.2368 0.358629V18.174H97.6628V0Z" fill="#4D0030"></path><path d="M60.081 23.395C56.5685 23.395 53.9526 25.9898 53.9526 29.6921C53.9526 33.3944 56.5685 35.9892 60.081 35.9892C63.5934 35.9892 66.2093 33.3944 66.2093 29.6921C66.2093 25.9898 63.5934 23.395 60.081 23.395ZM60.081 33.7636C57.9714 33.7636 56.3787 32.1392 56.3787 29.6921C56.3787 27.245 57.9819 25.6206 60.081 25.6206C62.1905 25.6206 63.7833 27.245 63.7833 29.6921C63.7938 32.1392 62.1905 33.7636 60.081 33.7636Z" fill="#4D0030"></path><path d="M75.9766 30.1988C75.9766 32.6248 74.8901 33.8589 73.1181 33.8589C71.325 33.8589 70.2385 32.6248 70.2385 30.1988V23.6274H67.8125V30.6734C67.8125 34.2808 69.7744 35.979 72.3692 35.979C73.9408 35.979 75.2277 35.2301 75.9766 33.7956V35.7364H78.4026V23.638H75.9766V30.1988Z" fill="#4D0030"></path><path d="M87.1258 23.395C85.5225 23.395 84.1935 24.1439 83.4446 25.5468V23.6376H81.0186V35.7572H83.4446V29.1436C83.4446 26.7493 84.5627 25.5362 86.3769 25.5362C88.1911 25.5362 89.3092 26.7493 89.3092 29.1436V35.7572H91.7352V28.6584C91.7247 25.0827 89.7628 23.395 87.1258 23.395Z" fill="#4D0030"></path><path d="M96.429 26.8547C96.429 25.8843 97.3045 25.3253 98.6124 25.3253C100.015 25.3253 101.06 26.1691 101.06 27.3399H103.58C103.58 25.1143 101.45 23.395 98.6124 23.395C95.9965 23.395 93.9819 24.7557 93.9819 26.9602C93.9819 31.8333 101.323 29.5023 101.323 32.4346C101.323 33.521 100.448 34.08 98.971 34.08C97.4205 34.08 96.2602 33.3311 96.2602 31.8544H93.7393C93.7393 34.4914 95.9965 35.9998 98.971 35.9998C101.777 35.9998 103.813 34.618 103.813 32.3396C103.813 27.3927 96.429 29.5444 96.429 26.8547Z" fill="#4D0030"></path><path d="M111.017 23.395C107.578 23.395 105.057 25.9898 105.057 29.6921C105.057 33.3944 107.578 35.9892 111.017 35.9892C113.801 35.9892 115.911 34.6074 116.66 32.1076H114.044C113.559 33.194 112.588 33.848 111.112 33.848C109.076 33.848 107.715 32.6139 107.43 30.5043H116.924C116.945 30.2406 116.976 29.9664 116.976 29.6816C116.976 25.9793 114.455 23.395 111.017 23.395ZM107.452 28.7744C107.747 26.7387 109.055 25.5257 111.017 25.5257C112.958 25.5257 114.287 26.7387 114.582 28.7744H107.452Z" fill="#4D0030"></path><path d="M87.3893 5.81201C83.9506 5.81201 81.4297 8.4068 81.4297 12.1091C81.4297 15.8114 83.9506 18.4062 87.3893 18.4062C90.1739 18.4062 92.2835 17.0244 93.0324 14.5246H90.4165C89.9313 15.611 88.9609 16.265 87.4842 16.265C85.4484 16.265 84.0878 15.0309 83.803 12.9213H93.2961C93.3172 12.6576 93.3488 12.3834 93.3488 12.0986C93.3488 8.4068 90.8384 5.81201 87.3893 5.81201ZM83.8346 11.1914C84.13 9.1557 85.4379 7.94269 87.3998 7.94269C89.3406 7.94269 90.6697 9.1557 90.965 11.1914H83.8346Z" fill="#4D0030"></path><path d="M124.212 35.7468H126.638V17.5728L124.212 17.9419V35.7468Z" fill="#4D0030"></path><path d="M118.938 35.7468H121.353V17.5728L118.938 17.9419V35.7468Z" fill="#4D0030"></path><path d="M134.612 23.395C131.1 23.395 128.484 25.9898 128.484 29.6921C128.484 33.3944 131.1 35.9892 134.612 35.9892C138.125 35.9892 140.741 33.3944 140.741 29.6921C140.741 25.9898 138.125 23.395 134.612 23.395ZM134.612 33.7636C132.503 33.7636 130.91 32.1392 130.91 29.6921C130.91 27.245 132.513 25.6206 134.612 25.6206C136.722 25.6206 138.315 27.245 138.315 29.6921C138.315 32.1392 136.722 33.7636 134.612 33.7636Z" fill="#4D0030"></path><path d="M144.643 25.8108V23.6274H142.217V35.7469H144.643V29.6608C144.643 27.1609 146.004 25.9057 148.325 25.9057C148.81 25.9057 149.242 25.9796 149.611 26.0956V23.4586C149.422 23.4059 149.126 23.3848 148.831 23.3848C146.995 23.3953 145.519 24.2391 144.643 25.8108Z" fill="#4D0030"></path><path d="M153.219 26.8547C153.219 25.8843 154.094 25.3253 155.402 25.3253C156.805 25.3253 157.85 26.1691 157.85 27.3399H160.37C160.37 25.1143 158.24 23.395 155.402 23.395C152.787 23.395 150.772 24.7557 150.772 26.9602C150.772 31.8333 158.113 29.5023 158.113 32.4346C158.113 33.521 157.238 34.08 155.761 34.08C154.211 34.08 153.05 33.3311 153.05 31.8544H150.529C150.529 34.4914 152.787 35.9998 155.761 35.9998C158.567 35.9998 160.603 34.618 160.603 32.3396C160.613 27.3927 153.219 29.5444 153.219 26.8547Z" fill="#4D0030"></path><path d="M46.8537 33.7636C44.7969 33.7636 43.2463 32.1392 43.2463 29.6921C43.2463 27.245 44.7969 25.6206 46.8537 25.6206C48.5836 25.6206 50.0603 26.6016 50.3134 28.4264L52.6445 27.456C51.9589 24.9878 49.6806 23.395 46.8537 23.395C43.394 23.395 40.8203 25.9898 40.8203 29.6921C40.8203 33.3944 43.3835 35.9892 46.8537 35.9892C49.7649 35.9892 52.0855 34.3332 52.7183 31.7384L50.3451 30.7469C50.0708 32.7088 48.5941 33.7636 46.8537 33.7636Z" fill="#4D0030"></path></svg> 