<?xml version="1.0" encoding="UTF-8"?> <svg xmlns="http://www.w3.org/2000/svg" width="142" height="24" viewBox="0 0 142 24" fill="none"><g clip-path="url(#clip0_12981_14316)"><path d="M17.2475 6.22597C15.9841 2.81907 12.6591 0.360284 8.89404 0.436134C4.03531 0.436134 0.0251421 4.12747 0 9.28522V9.29154C0.0251421 14.4493 4.03531 18.1406 8.89404 18.1406C12.6591 18.2165 15.9778 15.7577 17.2475 12.3571C17.3041 12.2117 17.1972 12.0537 17.0401 12.0537H14.6202C14.5384 12.0537 14.463 12.098 14.4253 12.1738C13.3882 14.2281 11.3014 15.6755 8.89404 15.6882C5.20442 15.6882 2.63993 12.7427 2.68392 9.2789C2.64621 5.82776 5.21071 2.88228 8.89404 2.88228C11.3014 2.89492 13.3945 4.34238 14.4316 6.40927C14.4693 6.48512 14.5447 6.52937 14.6264 6.52937H17.0401C17.1972 6.52937 17.3041 6.37135 17.2475 6.22597ZM30.202 11.1182C30.202 13.7098 28.6998 15.7071 25.8713 15.7071C23.0428 15.7071 21.5405 13.7098 21.5405 11.1182C21.5405 8.52673 23.0491 6.52937 25.8713 6.52937C28.6935 6.52937 30.202 8.52673 30.202 11.1182ZM32.8294 11.1182C32.8294 7.3005 30.0323 4.09586 25.865 4.09586C21.6977 4.09586 18.9006 7.3005 18.9006 11.1182C18.9006 14.936 21.704 18.1406 25.8713 18.1406C30.0386 18.1406 32.8294 14.936 32.8294 11.1182ZM33.9796 6.75059H36.343V4.36766C36.343 4.34238 36.3241 4.31709 36.2927 4.31709H33.9796C33.9545 4.31709 33.9293 4.34238 33.9293 4.36766V6.70003C33.9293 6.72531 33.9482 6.75059 33.9796 6.75059ZM38.9703 15.4859V6.75059H36.3367V15.4859H34.0676C33.9293 15.4859 33.8162 15.5997 33.8162 15.7451V17.6666C33.8162 17.8056 33.9293 17.9257 34.0676 17.9257H41.7863C41.9245 17.9257 42.0377 17.812 42.0377 17.6666V15.7451C42.0377 15.606 41.9245 15.4859 41.7863 15.4859H38.9703ZM46.4313 8.92494V6.37135C46.4313 5.23993 45.5199 4.31709 44.3947 4.31709H38.9703V6.75059H44.0113V8.92494C44.0113 9.064 44.1245 9.18409 44.269 9.18409H46.1736C46.3118 9.18409 46.425 9.064 46.4313 8.92494ZM59.2349 9.84145H50.8437C51.2648 7.89465 52.6979 6.52304 55.0424 6.52304C57.387 6.52304 58.8138 7.90097 59.2349 9.84145ZM61.9565 11.9716C61.988 11.6871 62.0068 11.4027 62.0068 11.1119C62.0068 7.29418 59.2098 4.08954 55.0424 4.08954C50.8751 4.08954 48.0781 7.29418 48.0781 11.1119C48.0781 14.9297 50.8751 18.1406 55.0424 18.1406C57.8835 18.1406 60.0897 16.6489 61.2086 14.4809C61.284 14.3355 61.1771 14.1585 61.0137 14.1585H58.5561C58.4932 14.1585 58.4241 14.1901 58.3864 14.2407C57.6572 15.1446 56.5321 15.7071 55.0424 15.7071C52.6099 15.7071 51.158 14.2281 50.7997 12.1675H61.7428C61.8497 12.1675 61.944 12.0853 61.9565 11.9716ZM77.7898 15.8652V13.3116C77.7898 13.1725 77.6767 13.0524 77.5384 13.0524H75.6339C75.4956 13.0524 75.3824 13.1662 75.3824 13.3116V15.4859H68.8266V2.65473H71.5043C71.6425 2.65473 71.7557 2.54095 71.7557 2.39558V0.480379C71.7557 0.341322 71.6425 0.227548 71.5043 0.227548H63.4588C63.3205 0.227548 63.2011 0.341322 63.2011 0.480379V2.4019C63.2011 2.54727 63.3142 2.66105 63.4588 2.66105H66.1364V15.4922H63.3519C63.2136 15.4922 63.0942 15.606 63.0942 15.7514V17.6729C63.0942 17.812 63.2074 17.9321 63.3519 17.9321H75.7533C76.8784 17.9194 77.7898 16.9966 77.7898 15.8652ZM90.7003 11.1182C90.7003 13.7098 89.1981 15.7071 86.3696 15.7071C83.5411 15.7071 82.0388 13.7098 82.0388 11.1182C82.0388 8.52673 83.5411 6.52937 86.3696 6.52937C89.1981 6.52937 90.7003 8.52041 90.7003 11.1182ZM93.3339 11.1182C93.3339 7.3005 90.5369 4.09586 86.3696 4.09586C82.2023 4.09586 79.4052 7.3005 79.4052 11.1182C79.4052 14.936 82.2023 18.1406 86.3696 18.1406C90.5369 18.1406 93.3339 14.936 93.3339 11.1182ZM106.188 24V21.5665H98.2367V19.3921C98.2367 19.2531 98.1235 19.133 97.9852 19.133H96.0807C95.9424 19.133 95.8293 19.2468 95.8293 19.3921V21.9457C95.8293 23.0835 96.7407 24 97.8658 24H106.188ZM106.188 11.1182C106.188 13.7098 104.686 15.7071 101.857 15.7071C99.0286 15.7071 97.5264 13.7098 97.5264 11.1182C97.5264 8.52673 99.0286 6.52937 101.857 6.52937C104.686 6.52937 106.188 8.52673 106.188 11.1182ZM111.285 6.49144V4.56992C111.285 4.43087 111.172 4.31077 111.028 4.31077H108.495C107.37 4.31077 106.458 5.22728 106.458 6.36502V6.66842C105.54 5.10087 103.975 4.08954 101.631 4.08954C97.4698 4.08954 94.8865 7.29418 94.8865 11.1119C94.8865 14.9297 97.4698 18.1406 101.637 18.1406C103.762 18.1406 105.245 17.3063 106.188 15.9789V21.5665H108.822V6.75059H111.034C111.172 6.75059 111.285 6.6305 111.285 6.49144ZM119.62 1.76982C119.62 0.790097 118.935 0 117.866 0C116.798 0 116.113 0.790097 116.113 1.76982C116.113 2.74954 116.798 3.53964 117.866 3.53964C118.935 3.53964 119.62 2.74954 119.62 1.76982ZM122.247 17.6603V15.7387C122.247 15.5997 122.134 15.4796 121.996 15.4796H119.18V6.36502C119.18 5.2336 118.269 4.31077 117.144 4.31077H113.951C113.812 4.31077 113.699 4.42455 113.699 4.56992V6.49144C113.699 6.6305 113.812 6.75059 113.951 6.75059H116.546V15.4859H113.731C113.592 15.4859 113.473 15.5997 113.473 15.7451V17.6666C113.473 17.8056 113.586 17.9257 113.731 17.9257H121.996C122.134 17.9194 122.247 17.8056 122.247 17.6603ZM136.629 8.89334C135.799 6.13116 133.417 4.08954 130.098 4.08954C125.937 4.08954 123.134 7.29418 123.134 11.1119C123.134 14.9297 125.931 18.1406 130.098 18.1406C133.417 18.1406 135.799 16.099 136.629 13.3368C136.673 13.1978 136.566 13.0524 136.415 13.0524H134.165C134.071 13.0524 133.989 13.1093 133.957 13.1978C133.379 14.7021 132.097 15.7071 130.092 15.7071C127.263 15.7071 125.761 13.7098 125.761 11.1182C125.761 8.52673 127.263 6.52937 130.092 6.52937C132.091 6.52937 133.379 7.53437 133.957 9.03871C133.989 9.1272 134.07 9.18409 134.158 9.18409H136.409C136.566 9.17777 136.666 9.03239 136.629 8.89334ZM140.199 6.06163C140.199 6.21333 140.092 6.30814 139.891 6.30814H139.52V5.81512H139.891C140.079 5.81512 140.199 5.90361 140.199 6.06163ZM140.695 7.23097L140.249 6.58625C140.482 6.50408 140.639 6.32078 140.639 6.03002C140.639 5.62549 140.337 5.43587 139.922 5.43587H139.093V7.23097H139.52V6.6621H139.797L140.18 7.23097H140.695ZM141.305 6.37135C141.305 7.21201 140.645 7.91362 139.797 7.91362C138.948 7.91362 138.282 7.21833 138.282 6.38399V6.37135C138.282 5.53068 138.942 4.82908 139.797 4.82908C140.651 4.82908 141.305 5.52436 141.305 6.36502V6.37135ZM141.5 6.37135V6.3587C141.5 5.41691 140.752 4.63945 139.797 4.63945C138.841 4.63945 138.093 5.42955 138.093 6.37135V6.38399C138.093 7.32578 138.841 8.10324 139.797 8.10324C140.752 8.10324 141.5 7.31314 141.5 6.37135Z" fill="#EF4400"></path></g><defs><clipPath id="clip0_12981_14316"><rect width="141.5" height="24" fill="white"></rect></clipPath></defs></svg> 