<?xml version="1.0" encoding="UTF-8"?> <svg xmlns="http://www.w3.org/2000/svg" id="Warstwa_1" data-name="Warstwa 1" viewBox="0 0 100 100"><defs><style> .cls-1 { fill: none; stroke: #fc6623; stroke-linecap: round; stroke-linejoin: round; stroke-width: 3px; } </style></defs><g><path class="cls-1" d="M29.89,84.11l-15.09,4.31c-1.97.56-3.79-1.29-3.18-3.25l4.58-14.79c.19-.61.52-1.16.97-1.61L70.31,15.64c2.67-2.67,6.99-2.67,9.65,0l4.73,4.73c2.67,2.67,2.67,6.99,0,9.65l-53.1,53.1c-.47.47-1.05.81-1.69,1Z"></path><line class="cls-1" x1="14.15" y1="78.94" x2="21.67" y2="86.46"></line><line class="cls-1" x1="66.75" y1="19.19" x2="81.13" y2="33.56"></line><line class="cls-1" x1="73.67" y1="26.13" x2="31.11" y2="68.85"></line><path class="cls-1" d="M24.03,61.86l-2.52,2.55c-1.93,1.95-1.91,5.1.04,7.03h0c1.95,1.93,5.1,1.91,7.03-.04l2.52-2.55-2.52,2.55c-1.93,1.95-1.91,5.1.04,7.03l.33.32c1.95,1.93,5.1,1.91,7.03-.04l2.52-2.55"></path></g><g><path class="cls-1" d="M30.06,46.82L9.32,26.07c-.67-.67-.67-1.75,0-2.41l14.34-14.34c.67-.67,1.75-.67,2.41,0l20.74,20.74"></path><path class="cls-1" d="M69.93,53.17l20.75,20.75c.67.67.67,1.75,0,2.41l-14.34,14.34c-.67.67-1.75.67-2.41,0l-20.4-20.4"></path><line class="cls-1" x1="33.41" y1="16.66" x2="26.71" y2="23.36"></line><line class="cls-1" x1="43.47" y1="26.71" x2="36.76" y2="33.41"></line><line class="cls-1" x1="73.63" y1="56.87" x2="66.93" y2="63.58"></line><line class="cls-1" x1="83.68" y1="66.93" x2="76.98" y2="73.63"></line></g></svg> 