<?xml version="1.0" encoding="UTF-8"?> <svg xmlns="http://www.w3.org/2000/svg" id="Warstwa_1" data-name="Warstwa 1" viewBox="0 0 100 100"><defs><style> .cls-1 { fill: none; stroke: #fc6623; stroke-linecap: round; stroke-linejoin: round; stroke-width: 3px; } </style></defs><path class="cls-1" d="M67.26,74.02v13.55c0,3.34-2.71,6.05-6.05,6.05H20.97c-3.34,0-6.05-2.71-6.05-6.05V12.43c0-3.34,2.71-6.05,6.05-6.05h40.24c3.34,0,6.05,2.71,6.05,6.05v3.57"></path><line class="cls-1" x1="36.73" y1="12.96" x2="45.45" y2="12.96"></line><line class="cls-1" x1="55.11" y1="33.97" x2="75.98" y2="33.97"></line><line class="cls-1" x1="58.36" y1="45.23" x2="75.05" y2="45.23"></line><g><g><path class="cls-1" d="M32.94,48.25v1.34c0,.23-.18.41-.41.41h-.98c-.57,0-1.04.46-1.04,1.04v.78c0,1.25,1.02,2.27,2.27,2.27h.16c0,5.64,3.92,10.21,8.75,10.21s8.75-4.57,8.75-10.21h0c1.25,0,2.27-1.02,2.27-2.27v-.78c0-.57-.46-1.04-1.04-1.04h-.82c-.23,0-.41-.18-.41-.41v-1.34l-.11-.07s-4.06.08-6.39-2.16c0,0-2.46,4.3-11,2.23Z"></path><path class="cls-1" d="M23.04,79.64v-3.62c0-2.95,1.67-5.66,4.31-6.98l8.07-4.04h0c0,3.42,2.77,6.19,6.19,6.19h0c3.42,0,6.19-2.77,6.19-6.19h0l8.07,4.04c2.64,1.32,4.31,4.02,4.31,6.98v3.7"></path><line class="cls-1" x1="35.45" y1="65.26" x2="37.06" y2="62.75"></line><line class="cls-1" x1="46.31" y1="62.75" x2="47.83" y2="65.26"></line><path class="cls-1" d="M30.77,49.78c-.17-.73-.27-1.49-.27-2.27,0-5.74,4.96-10.39,11.09-10.39s11.09,4.65,11.09,10.39c0,.78-.09,1.54-.27,2.27"></path></g><path class="cls-1" d="M58.5,57.02l1.88-.02c.84,0,1.53.67,1.53,1.51v3.69c0,1.27,1.47,1.97,2.46,1.18l7.36-5.89c.27-.21.6-.33.95-.33h8.31c2.26,0,4.09-1.83,4.09-4.09v-25.93c0-2.26-1.83-4.09-4.09-4.09h-39.57c-2.26,0-4.09,1.83-4.09,4.09v3.56"></path></g></svg> 