<?xml version="1.0" encoding="UTF-8"?> <svg xmlns="http://www.w3.org/2000/svg" id="Warstwa_1" data-name="Warstwa 1" viewBox="0 0 100 100"><defs><style> .cls-1 { fill: none; stroke: #fc6623; stroke-linecap: round; stroke-linejoin: round; stroke-width: 3px; } </style></defs><path class="cls-1" d="M68.09,83.7v5.25c0,3.46-2.81,6.27-6.27,6.27H20.1c-3.46,0-6.27-2.81-6.27-6.27V11.05c0-3.46,2.81-6.27,6.27-6.27h41.72c3.46,0,6.27,2.81,6.27,6.27v5.85"></path><line class="cls-1" x1="36.43" y1="11.59" x2="45.48" y2="11.59"></line><line class="cls-1" x1="45.48" y1="50" x2="45.48" y2="50"></line><line class="cls-1" x1="59.04" y1="50" x2="59.04" y2="50"></line><line class="cls-1" x1="72.61" y1="50" x2="72.61" y2="50"></line><path class="cls-1" d="M36.84,65.6c-3.11-4.41-4.93-9.79-4.93-15.6,0-14.98,12.15-27.13,27.13-27.13s27.13,12.15,27.13,27.13-12.15,27.13-27.13,27.13c-3.69,0-7.2-.74-10.41-2.07l-11.79,2.07v-11.53Z"></path></svg> 