<?xml version="1.0" encoding="UTF-8"?> <svg xmlns="http://www.w3.org/2000/svg" id="Warstwa_1" data-name="Warstwa 1" viewBox="0 0 100 100"><defs><style> .cls-1 { fill: none; stroke: #fc6623; stroke-linecap: round; stroke-linejoin: round; stroke-width: 3px; } </style></defs><g><rect class="cls-1" x="26.69" y="11.14" width="46.64" height="77.73" rx="6" ry="6"></rect><line class="cls-1" x1="46.12" y1="16.99" x2="53.89" y2="16.99"></line></g><path class="cls-1" d="M79.36,40.38c2.6,2.56,4.22,6.11,4.22,10.05s-1.55,7.34-4.05,9.89"></path><path class="cls-1" d="M84.43,35.49c3.82,3.82,6.19,9.1,6.19,14.94,0,5.41-2.03,10.35-5.38,14.08"></path><path class="cls-1" d="M20.64,40.81c-2.6,2.56-4.22,6.11-4.22,10.05,0,3.85,1.55,7.34,4.05,9.89"></path><path class="cls-1" d="M15.57,35.92c-3.82,3.82-6.19,9.1-6.19,14.94,0,5.41,2.03,10.35,5.38,14.08"></path></svg> 