<?xml version="1.0" encoding="UTF-8"?> <svg xmlns="http://www.w3.org/2000/svg" id="Warstwa_1" data-name="Warstwa 1" viewBox="0 0 100 100"><defs><style> .cls-1 { fill: none; stroke: #fc6623; stroke-linecap: round; stroke-linejoin: round; stroke-width: 3px; } </style></defs><g><g><path class="cls-1" d="M47.77,16.8H7.32c-2.23,0-4.03,1.81-4.03,4.03v48.55c0,2.23,1.81,4.03,4.03,4.03h72.81c2.23,0,4.03-1.81,4.03-4.03v-14.63"></path><line class="cls-1" x1="3.29" y1="61.28" x2="84.16" y2="61.28"></line><path class="cls-1" d="M37.27,73.57l-.88,6.49c-.49,3.66-2.17,7.05-4.78,9.67l-.02.02h24.26c-2.62-2.62-4.31-6.04-4.79-9.71l-.85-6.46"></path></g><polyline class="cls-1" points="8.3 42.07 19.46 42.07 27.55 25.9 35.64 50.16 39.68 38.03 47.77 38.03"></polyline></g><circle class="cls-1" cx="69.75" cy="28.27" r="18.02" transform="translate(30.68 92.6) rotate(-80.78)"></circle><path class="cls-1" d="M57.9,24.76c1.18-3.99,4.31-7.13,8.29-8.33"></path><path class="cls-1" d="M80.67,42.6l10.82,10.82c1.2,1.2,3.13,1.2,4.33,0h0c1.2-1.2,1.2-3.13,0-4.33l-10.82-10.82"></path></svg> 