<?xml version="1.0" encoding="UTF-8"?> <svg xmlns="http://www.w3.org/2000/svg" id="Warstwa_1" data-name="Warstwa 1" viewBox="0 0 100 100"><defs><style> .cls-1 { fill: none; stroke: #fc6623; stroke-linecap: round; stroke-linejoin: round; stroke-width: 3px; } </style></defs><path class="cls-1" d="M30.94,36.09h41.32M30.94,49.72h26.69M94.21,50.87v-29.68c0-3.29-2.67-5.97-5.97-5.97H12.39c-3.29,0-5.97,2.67-5.97,5.97v67.18l14.63-14.63h33M86.17,53.83c-4.44,0-8.04,3.6-8.04,8.04s3.6,8.04,8.04,8.04,8.04-3.6,8.04-8.04-3.6-8.04-8.04-8.04ZM77.5,54.11c-.76-.19-1.56-.3-2.38-.3h0c-5.32,0-9.64,4.31-9.64,9.64v7.44l-5.53,6.93c-1.06,1.33-.11,3.29,1.58,3.29h27.17c1.7,0,2.64-1.96,1.58-3.29l-3.08-3.86M69.96,83.78c.77,2.11,2.78,3.62,5.16,3.62s4.39-1.51,5.16-3.62M75.12,50.06v3.69M86.44,66.06v-7.92l-2.31,3.38"></path></svg> 