<?xml version="1.0" encoding="UTF-8"?> <svg xmlns="http://www.w3.org/2000/svg" id="Warstwa_1" data-name="Warstwa 1" viewBox="0 0 100 100"><defs><style> .cls-1 { fill: none; stroke: #fc6623; stroke-linecap: round; stroke-linejoin: round; stroke-width: 3px; } </style></defs><path class="cls-1" d="M90.23,41.14h-3.91c-1.73,0-3.28-1.08-3.86-2.71-.39-1.09-.83-2.15-1.32-3.19-.74-1.57-.42-3.43.81-4.66l2.76-2.76c1.59-1.59,1.59-4.17,0-5.75l-6.78-6.78c-1.59-1.59-4.17-1.59-5.75,0l-2.76,2.76c-1.23,1.23-3.09,1.55-4.66.81-1.04-.49-2.1-.93-3.19-1.32-1.63-.58-2.71-2.13-2.71-3.86v-3.91c0-2.25-1.82-4.07-4.07-4.07h-9.58c-2.25,0-4.07,1.82-4.07,4.07v3.91c0,1.73-1.08,3.28-2.71,3.86-1.09.39-2.15.83-3.19,1.32-1.57.74-3.43.42-4.66-.81l-2.76-2.76c-1.59-1.59-4.17-1.59-5.75,0l-6.78,6.78c-1.59,1.59-1.59,4.17,0,5.75l2.76,2.76c1.23,1.23,1.55,3.09.81,4.66-.49,1.04-.93,2.1-1.32,3.19-.58,1.63-2.13,2.71-3.86,2.71h-3.91c-2.25,0-4.07,1.82-4.07,4.07v9.58c0,2.25,1.82,4.07,4.07,4.07h3.91c1.73,0,3.28,1.08,3.86,2.71.39,1.09.83,2.15,1.32,3.19.74,1.57.42,3.43-.81,4.66l-2.76,2.76c-1.59,1.59-1.59,4.17,0,5.75l6.78,6.78c1.59,1.59,4.17,1.59,5.75,0l2.76-2.76c1.23-1.23,3.09-1.55,4.66-.81,1.04.49,2.1.93,3.19,1.32,1.63.58,2.71,2.13,2.71,3.86v3.91c0,2.25,1.82,4.07,4.07,4.07h9.58c2.25,0,4.07-1.82,4.07-4.07v-3.91c0-1.73,1.08-3.28,2.71-3.86,1.09-.39,2.15-.83,3.19-1.32,1.57-.74,3.43-.42,4.66.81l2.76,2.76c1.59,1.59,4.17,1.59,5.75,0l6.78-6.78c1.59-1.59,1.59-4.17,0-5.75l-2.76-2.76c-1.23-1.23-1.55-3.09-.81-4.66.49-1.04.93-2.1,1.32-3.19.58-1.63,2.13-2.71,3.86-2.71h3.91c2.25,0,4.07-1.82,4.07-4.07v-9.58c0-2.25-1.82-4.07-4.07-4.07ZM66,45.55c.39,1.42.6,2.91.6,4.45,0,9.17-7.43,16.6-16.6,16.6s-16.6-7.43-16.6-16.6,7.43-16.6,16.6-16.6c3.01,0,5.83.8,8.26,2.2"></path><polyline class="cls-1" points="43.53 47.36 49.98 53.58 68.42 34.5"></polyline></svg> 