<?xml version="1.0" encoding="UTF-8"?> <svg xmlns="http://www.w3.org/2000/svg" id="Warstwa_1" data-name="Warstwa 1" viewBox="0 0 100 100"><defs><style> .cls-1 { fill: none; stroke: #fc6623; stroke-linejoin: round; stroke-width: 3px; } </style></defs><g><path class="cls-1" d="m67.09,69.61v19.01c0,2.12-1.74,3.98-3.86,3.98H23.84c-2.12,0-3.86-1.86-3.86-3.98V11.26c0-2.12,1.74-3.85,3.86-3.85h39.4c2.12,0,3.86,1.73,3.86,3.85v8.86"></path><line class="cls-1" x1="40.33" y1="84" x2="46.74" y2="84"></line></g><g><path class="cls-1" d="m53.39,28.44c-1.58.4-3.06,1.02-4.43,1.83l-4.98-3.53-4.53,4.53,3.53,4.98c-.8,1.35-1.42,2.83-1.82,4.39l-6.02,1.02v6.4l6.02,1.03c.4,1.58,1.03,3.06,1.84,4.43l-3.55,4.95,4.53,4.52,4.95-3.55c1.37.81,2.85,1.44,4.43,1.84l1.02,6.02h6.41l1.03-6.02c1.57-.4,3.06-1.03,4.43-1.84l4.95,3.55,4.53-4.52-3.55-4.95c.82-1.37,1.44-2.87,1.85-4.46l6.01-.99v-6.4l-6.01-.99c-.4-1.58-1.02-3.06-1.83-4.43l3.53-4.98-4.53-4.53-4.98,3.53c-1.36-.81-2.85-1.43-4.43-1.83l-.99-6.01h-6.41"></path><path class="cls-1" d="m55.88,38.53c.54-.14,1.11-.22,1.7-.22,3.62,0,6.56,2.94,6.56,6.56s-2.93,6.56-6.56,6.56-6.56-2.93-6.56-6.56c0-.62.09-1.23.25-1.8"></path></g></svg> 