<?xml version="1.0" encoding="UTF-8"?> <svg xmlns="http://www.w3.org/2000/svg" id="Warstwa_1" data-name="Warstwa 1" viewBox="0 0 100 100"><defs><style> .cls-1 { fill: none; stroke: #fc6623; stroke-linejoin: round; stroke-width: 3px; } </style></defs><path class="cls-1" d="m36.62,65.87h-13.92c-9.11,0-16.57-7.46-16.57-16.57s7.46-16.57,16.57-16.57h.35v-4.02c0-11.76,9.82-21.39,21.83-21.39s21.41,9.21,21.82,20.63h9.33c9.82,0,17.85,8.02,17.85,17.83v2.23c0,9.82-8.03,17.85-17.85,17.85h-12.5"></path><path class="cls-1" d="m45.09,87.46c0-2.71,2.2-4.61,4.91-4.61s4.91,2.2,4.91,4.91-2.2,4.91-4.91,4.91-4.91-2.5-4.91-5.21Z"></path><line class="cls-1" x1="50" y1="82.87" x2="50" y2="48.45"></line><g><path class="cls-1" d="m70.24,78.48c-1.92-1.92-5.02-1.92-6.94,0-1.92,1.92-1.92,5.02,0,6.94,1.92,1.92,5.02,1.92,6.94,0,1.92-1.92,1.92-5.02,0-6.94Z"></path><polyline class="cls-1" points="63.25 78.43 57.28 72.47 57.28 55.46"></polyline></g><g><path class="cls-1" d="m29.76,78.48c1.92-1.92,5.03-1.92,6.94,0,1.92,1.92,1.92,5.02,0,6.94-1.91,1.92-5.02,1.92-6.94,0-1.91-1.92-1.91-5.02,0-6.94Z"></path><polyline class="cls-1" points="36.75 78.43 42.72 72.47 42.72 55.46"></polyline></g><line class="cls-1" x1="42.72" y1="51.94" x2="42.72" y2="46.63"></line><line class="cls-1" x1="50" y1="44.68" x2="50" y2="39.37"></line><line class="cls-1" x1="57.28" y1="51.94" x2="57.28" y2="46.63"></line></svg> 