<?xml version="1.0" encoding="UTF-8"?> <svg xmlns="http://www.w3.org/2000/svg" id="Warstwa_1" data-name="Warstwa 1" viewBox="0 0 100 100"><defs><style> .cls-1 { fill: none; stroke: #fc6623; stroke-linecap: round; stroke-linejoin: round; stroke-width: 3px; } </style></defs><g><g><path class="cls-1" d="m89.97,61.54V16.9c0-1.9-1.56-3.46-3.46-3.46H7.77c-1.9,0-3.46,1.56-3.46,3.46v61.27c0,1.9,1.56,3.46,3.46,3.46h61.98"></path><line class="cls-1" x1="64.14" y1="81.63" x2="72.29" y2="81.63"></line><line class="cls-1" x1="4.31" y1="25.56" x2="89.97" y2="25.56"></line></g><line class="cls-1" x1="10.21" y1="19.46" x2="13.23" y2="19.46"></line><line class="cls-1" x1="16.82" y1="19.46" x2="19.84" y2="19.46"></line><line class="cls-1" x1="23.42" y1="19.46" x2="26.44" y2="19.46"></line></g><g><line class="cls-1" x1="46.22" y1="37.81" x2="77.9" y2="37.81"></line><line class="cls-1" x1="46.22" y1="45.33" x2="77.9" y2="45.33"></line><line class="cls-1" x1="46.22" y1="52.78" x2="77.9" y2="52.78"></line><line class="cls-1" x1="60.26" y1="60.3" x2="47.06" y2="60.3"></line></g><g><rect class="cls-1" x="17.25" y="37.81" width="19.3" height="19.3"></rect><line class="cls-1" x1="17.25" y1="57.11" x2="35.12" y2="39.23"></line></g><polygon class="cls-1" points="95.69 72.31 74.49 65.01 81.44 86.56 86.14 80.13 92.21 86.21 95.34 83.08 89.16 76.9 95.69 72.31"></polygon></svg> 