<?xml version="1.0" encoding="UTF-8"?> <svg xmlns="http://www.w3.org/2000/svg" id="Warstwa_1" data-name="Warstwa 1" viewBox="0 0 100 100"><defs><style> .cls-1 { fill: none; stroke: #fc6623; stroke-linejoin: round; stroke-width: 3px; } </style></defs><g><path class="cls-1" d="m19.18,77.02v-7.92l8.26-1.36c.55-2.17,1.4-4.21,2.51-6.08l-4.85-6.84,6.22-6.22,6.84,4.85c1.86-1.11,3.89-1.95,6.04-2.5l1.41-8.27h8.8l1.41,8.27c2.17.56,4.2,1.41,6.08,2.53l6.8-4.88,6.22,6.22-4.88,6.8c1.11,1.87,1.97,3.91,2.53,6.08l8.27,1.41v7.92"></path><path class="cls-1" d="m37.12,65.72c-1.37,2.27-2.16,4.93-2.16,7.78,0,.87.07,1.72.22,2.54"></path><path class="cls-1" d="m64.83,76.07c.14-.84.22-1.7.22-2.58,0-8.31-6.74-15.05-15.04-15.05-2.76,0-5.33.74-7.56,2.03"></path></g><g><line class="cls-1" x1="10.8" y1="33.31" x2="89.2" y2="33.31"></line><g><path class="cls-1" d="m17.3,25.04c0,.61-.49,1.1-1.1,1.1s-1.1-.49-1.1-1.1.49-1.1,1.1-1.1,1.1.49,1.1,1.1Z"></path><path class="cls-1" d="m27.84,25.04c0,.61-.49,1.1-1.1,1.1s-1.1-.49-1.1-1.1.49-1.1,1.1-1.1,1.1.49,1.1,1.1Z"></path><path class="cls-1" d="m38.38,25.04c0,.61-.49,1.1-1.1,1.1s-1.1-.49-1.1-1.1.49-1.1,1.1-1.1,1.1.49,1.1,1.1Z"></path></g><rect class="cls-1" x="4.42" y="16.52" width="91.16" height="66.96" rx="5.06" ry="5.06"></rect></g></svg> 