<?xml version="1.0" encoding="UTF-8"?> <svg xmlns="http://www.w3.org/2000/svg" id="Warstwa_1" data-name="Warstwa 1" viewBox="0 0 100 100"><defs><style> .cls-1 { fill: none; stroke: #fc6623; stroke-linejoin: round; stroke-width: 3px; } </style></defs><path class="cls-1" d="m67.54,42.25h-7.07m18.83,0h-7.08m-4.68,15.52h-7.07m18.83,0h-7.08m19.08-2.55c-2.89,0-5.22-2.33-5.22-5.22s2.33-5.22,5.22-5.22,5.23,2.33,5.23,5.22-2.33,5.22-5.23,5.22Zm-43.51-5.22h-7.08m45.4,0h-33.58m25.9-16.49c-2.89,0-5.23-2.33-5.23-5.22s2.33-5.22,5.23-5.22,5.22,2.33,5.22,5.22-2.33,5.22-5.22,5.22Zm-55.25,10.86c-2.89,0-5.22-2.33-5.22-5.23s2.33-5.22,5.22-5.22,5.23,2.33,5.23,5.22-2.33,5.23-5.23,5.23Zm10.34-5.21h15.58l12.55-10.87h11.17m5.6,38.2c-2.89,0-5.23,2.33-5.23,5.22s2.33,5.23,5.23,5.23,5.22-2.33,5.22-5.23-2.33-5.22-5.22-5.22Zm-55.25-10.86c-2.89,0-5.22,2.33-5.22,5.23s2.33,5.22,5.22,5.22,5.23-2.33,5.23-5.22-2.33-5.23-5.23-5.23Zm10.34,5.21h15.58l12.55,10.87h11.17m-29.47-54.51c2.89,0,5.22,2.33,5.22,5.22s-2.33,5.22-5.22,5.22-5.22-2.33-5.22-5.22,2.33-5.22,5.22-5.22ZM8.7,27.68c2.89,0,5.22-2.33,5.22-5.22s-2.33-5.22-5.22-5.22-5.22,2.33-5.22,5.22,2.33,5.22,5.22,5.22Zm29.34-5.22h-19.31m24.63,49.87c2.89,0,5.22,2.33,5.22,5.23s-2.33,5.22-5.22,5.22-5.22-2.33-5.22-5.22,2.33-5.23,5.22-5.23Zm-34.65,10.45c2.89,0,5.22-2.33,5.22-5.22s-2.33-5.23-5.22-5.23-5.22,2.33-5.22,5.23,2.33,5.22,5.22,5.22Zm29.34-5.22h-19.31"></path></svg> 