<?xml version="1.0" encoding="UTF-8"?> <svg xmlns="http://www.w3.org/2000/svg" id="Warstwa_1" data-name="Warstwa 1" viewBox="0 0 100 100"><defs><style> .cls-1 { fill: none; stroke: #fc6623; stroke-linecap: round; stroke-linejoin: round; stroke-width: 3px; } </style></defs><line class="cls-1" x1="28.34" y1="82.31" x2="59.86" y2="82.31"></line><g><line class="cls-1" x1="51.07" y1="72.33" x2="51.07" y2="80.92"></line><line class="cls-1" x1="37.13" y1="72.33" x2="37.13" y2="80.92"></line></g><path class="cls-1" d="m64.1,71.42H8.41c-2,0-3.64-1.64-3.64-3.64V21.33c0-2,1.64-3.64,3.64-3.64h71.38c2,0,3.64,1.64,3.64,3.64v21.8"></path><circle class="cls-1" cx="78.39" cy="60.26" r="11.84"></circle><line class="cls-1" x1="86.99" y1="68.56" x2="95.23" y2="76.81"></line><line class="cls-1" x1="18.57" y1="65.17" x2="18.57" y2="54.53"></line><line class="cls-1" x1="28.07" y1="65.17" x2="28.07" y2="44.82"></line><line class="cls-1" x1="37.56" y1="65.17" x2="37.56" y2="26.82"></line><line class="cls-1" x1="47.06" y1="65.17" x2="47.06" y2="35.6"></line><line class="cls-1" x1="56.55" y1="65.21" x2="56.55" y2="44.57"></line></svg> 