<?xml version="1.0" encoding="UTF-8"?> <svg xmlns="http://www.w3.org/2000/svg" id="Warstwa_1" data-name="Warstwa 1" viewBox="0 0 100 100"><defs><style> .cls-1 { fill: none; stroke: #fc6623; stroke-linejoin: round; stroke-width: 3px; } </style></defs><g><g><polyline class="cls-1" points="70.92 92.29 81.27 71.01 55.07 71.01 44.72 92.29"></polyline><line class="cls-1" x1="5.91" y1="92.6" x2="79.85" y2="92.6"></line><g><path class="cls-1" d="m40,51.31c0,4.25-3.43,7.72-7.61,7.72s-7.6-3.48-7.6-7.72v-2.86c0-4.25,3.42-7.72,7.6-7.72s7.61,3.48,7.61,7.72v2.86Z"></path><path class="cls-1" d="m41.37,92.6c0-8.43-5.36-8.53-5.36-8.53h-11.2v-9.83"></path><path class="cls-1" d="m48.13,73.4c0-4.91-1.85-8.93-8.93-8.93h-1.12c-.92,1.63-2.98,2.77-5.39,2.77s-4.48-1.14-5.39-2.77h-4.61c-4.91,0-8.12,4.02-8.12,8.93v13.11c0,4.91,2.53,6.09,7.45,6.09"></path></g></g><g><g><line class="cls-1" x1="70.2" y1="56.97" x2="70.2" y2="7.06"></line><line class="cls-1" x1="95.17" y1="31.92" x2="51.16" y2="31.92"></line><path class="cls-1" d="m68.25,6.81s-23.59,21.63,0,50.09"></path><path class="cls-1" d="m72.15,6.81s23.59,21.63,0,50.09"></path><path class="cls-1" d="m88.97,47.76c-6.69-4.02-18.55-8.44-33.06-2.22"></path><path class="cls-1" d="m89.17,16c-6.72,4.09-18.83,8.71-33.69,2.15"></path></g><path class="cls-1" d="m95.38,31.91c0,13.91-11.28,25.2-25.2,25.2s-25.2-11.28-25.2-25.2,11.28-25.2,25.2-25.2,25.2,11.28,25.2,25.2Z"></path></g></g><line class="cls-1" x1="85.82" y1="92.6" x2="89.49" y2="92.6"></line></svg> 