<?xml version="1.0" encoding="UTF-8"?> <svg xmlns="http://www.w3.org/2000/svg" id="Warstwa_1" data-name="Warstwa 1" viewBox="0 0 100 100"><defs><style> .cls-1 { fill: none; stroke: #fc6623; stroke-linejoin: round; stroke-width: 3px; } </style></defs><g><polyline class="cls-1" points="46.05 56.38 53.73 43.81 58.56 51.35 64.87 44.71 69.74 48.9 76.42 32.96"></polyline><g><g><line class="cls-1" x1="55.04" y1="71.35" x2="55.04" y2="89.37"></line><line class="cls-1" x1="54.98" y1="78.48" x2="42.5" y2="89.37"></line><line class="cls-1" x1="67.67" y1="89.37" x2="55.17" y2="78.48"></line><path class="cls-1" d="m39.58,65.48h40.25c3.44,0,6.26-2.82,6.26-6.26V24.38"></path></g><g><path class="cls-1" d="m22.42,10.63c3.8,0,6.88,3.08,6.88,6.88s-3.08,6.88-6.88,6.88-6.88-3.08-6.88-6.88,3.08-6.88,6.88-6.88Z"></path><path class="cls-1" d="m29.95,89.37l.65-27.3c2.53-.91,5.55-3.02,5.28-5.68l-2.06-20.49c-.27-2.66-2.67-4.83-5.34-4.83h-12.13c-2.67,0-5.07,2.17-5.34,4.83l-2.07,20.49c-.27,2.66,2.75,4.77,5.28,5.68l.65,27.3"></path></g></g></g><polyline class="cls-1" points="35.91 17.14 91.07 17.14 91.07 23.55 53.12 23.55"></polyline><line class="cls-1" x1="45.14" y1="23.55" x2="35.91" y2="23.55"></line></svg> 