<?xml version="1.0" encoding="UTF-8"?> <svg xmlns="http://www.w3.org/2000/svg" width="48" height="48" viewBox="0 0 48 48" fill="none"><path d="M24 7.75266C22.9744 7.75266 22.1197 6.89979 22.1197 5.87633C22.1197 4.85288 22.9744 4 24 4C25.0256 4 25.8803 4.85288 25.8803 5.87633C25.8803 6.89979 25.0256 7.75266 24 7.75266ZM24 7.75266V11.3348M15.0684 15.0448L12.547 12.5288M7.76068 24C7.76068 25.0235 6.90598 25.8763 5.88034 25.8763C4.8547 25.8763 4 25.0235 4 24C4 22.9765 4.8547 22.1237 5.88034 22.1237C6.90598 22.1237 7.76068 22.9765 7.76068 24ZM7.76068 24H11.3504M15.0684 32.9552L12.547 35.4712M24 40.2473C25.0256 40.2473 25.8803 41.1002 25.8803 42.1237C25.8803 43.1471 25.0256 44 24 44C22.9744 44 22.1197 43.1471 22.1197 42.1237C22.1197 41.1002 22.9744 40.2473 24 40.2473ZM24 40.2473V36.6652M32.9316 32.9552L35.453 35.4712M40.2393 24C40.2393 22.9765 41.094 22.1237 42.1197 22.1237C43.1453 22.1237 44 22.9765 44 24C44 25.0235 43.1453 25.8763 42.1197 25.8763C41.094 25.8763 40.2393 25.0235 40.2393 24ZM40.2393 24H36.6496M35.4957 12.5288L32.9744 15.0448M20.8376 6.1322C18.188 6.60128 15.7094 7.62473 13.6154 9.11727M9.17094 13.5949C7.67521 15.7271 6.64957 18.2004 6.17949 20.8443M6.17949 27.1557C6.64957 29.7996 7.67521 32.2729 9.17094 34.4051M13.6154 38.8401C15.7521 40.3326 18.188 41.3561 20.8376 41.8252M27.1624 41.8678C29.812 41.3987 32.2906 40.3753 34.3846 38.8827M38.8291 34.4051C40.3248 32.2729 41.3504 29.7996 41.8205 27.1557M41.8205 20.8443C41.3504 18.2004 40.3248 15.7271 38.8291 13.5949M34.3846 9.15991C32.2479 7.66738 29.812 6.60128 27.1624 6.17484M22.4188 16.8358L22.5897 15.0448H25.3675L25.5385 16.8358L27.9316 17.8166L29.3419 16.6652L31.3077 18.6269L30.1538 20.0341L31.1367 22.4222L32.9316 22.5927V25.3646L31.1367 25.5352L30.1538 27.9232L31.3077 29.3305L29.3419 31.2921L27.9316 30.1407L25.5385 31.1215L25.3675 32.9126H22.5897L22.4188 31.1215L20.0256 30.1407L18.6154 31.2921L16.6496 29.3305L17.8034 27.9232L16.8205 25.5352L15.0256 25.3646V22.5927L16.8205 22.4222L17.8034 20.0341L16.6496 18.6269L18.6154 16.6652L20.0256 17.8166L22.4188 16.8358ZM20.6667 24C20.6667 25.8337 22.1624 27.3689 24 27.3689C25.8376 27.3689 27.3333 25.8763 27.3333 24C27.3333 22.1237 25.8376 20.6311 24 20.6311C22.1624 20.6311 20.6667 22.1237 20.6667 24ZM9.8547 9.84222C9.12821 10.5672 9.12821 11.7612 9.8547 12.4861C10.5812 13.2111 11.7778 13.2111 12.5043 12.4861C13.2308 11.7612 13.2308 10.5672 12.5043 9.84222C11.7778 9.11727 10.5812 9.11727 9.8547 9.84222ZM9.8547 38.1578C10.5812 38.8827 11.7778 38.8827 12.5043 38.1578C13.2308 37.4328 13.2308 36.2388 12.5043 35.5139C11.7778 34.7889 10.5812 34.7889 9.8547 35.5139C9.12821 36.2388 9.12821 37.4328 9.8547 38.1578ZM38.1453 38.1578C38.8718 37.4328 38.8718 36.2388 38.1453 35.5139C37.4188 34.7889 36.2222 34.7889 35.4957 35.5139C34.7692 36.2388 34.7692 37.4328 35.4957 38.1578C36.2222 38.8827 37.4188 38.8827 38.1453 38.1578ZM38.1453 9.84222C37.4188 9.11727 36.2222 9.11727 35.4957 9.84222C34.7692 10.5672 34.7692 11.7612 35.4957 12.4861C36.2222 13.2111 37.4188 13.2111 38.1453 12.4861C38.8718 11.7612 38.8718 10.5672 38.1453 9.84222Z" stroke="#FFFFFF" stroke-width="1.44" stroke-miterlimit="10"></path></svg> 