<?xml version="1.0" encoding="UTF-8"?> <svg xmlns="http://www.w3.org/2000/svg" id="Warstwa_1" data-name="Warstwa 1" viewBox="0 0 100 100"><defs><style> .cls-1 { fill: none; stroke: #fc6623; stroke-linejoin: round; stroke-width: 3px; } .cls-2 { fill: #fc6623; opacity: 0; stroke-width: 0px; } </style></defs><rect class="cls-2" width="100" height="100"></rect><path class="cls-1" d="M40.95,48.24l5.89-14.89,5.89,14.89M43.06,42.9h7.56M58.34,33.95v14.29M21.25,63.54c0-1.98-1.61-3.59-3.59-3.59s-3.59,1.61-3.59,3.59,1.61,3.59,3.59,3.59,3.59-1.61,3.59-3.59ZM15.27,42.91c0-1.98-1.61-3.59-3.59-3.59s-3.59,1.61-3.59,3.59,1.61,3.59,3.59,3.59,3.59-1.61,3.59-3.59ZM17.66,18.7c-1.98,0-3.59,1.61-3.59,3.59s1.61,3.59,3.59,3.59,3.59-1.61,3.59-3.59-1.61-3.59-3.59-3.59ZM19.45,42.91h17.69M30.19,54.76h-2.27c-1.32,0-2.58.52-3.51,1.45l-1.22,1.22M23.19,28.39l1.22,1.22c.93.93,2.19,1.45,3.51,1.45h2.88M82.34,67.13c1.98,0,3.59-1.61,3.59-3.59s-1.61-3.59-3.59-3.59-3.59,1.61-3.59,3.59,1.61,3.59,3.59,3.59ZM88.32,46.5c1.98,0,3.59-1.61,3.59-3.59s-1.61-3.59-3.59-3.59-3.59,1.61-3.59,3.59,1.61,3.59,3.59,3.59ZM78.75,22.29c0,1.98,1.61,3.59,3.59,3.59s3.59-1.61,3.59-3.59-1.61-3.59-3.59-3.59-3.59,1.61-3.59,3.59ZM80.55,42.91h-5.43M76.81,57.44l-1.22-1.22c-.93-.93-2.19-1.45-3.51-1.45h-15.9M64.58,31.07h7.5c1.32,0,2.58-.52,3.51-1.45l1.22-1.22M58.34,63.73c.91-4.61,5.07-7.47,7.73-11.32,3.01-4.36,4.77-8.28,4.74-13.36,0-1.24-.12-2.46-.34-3.63M69.15,30.96c-3.17-7.43-10.51-12.58-19.15-12.58-10.8,0-19.58,8.05-20.69,18.56M29.54,42.91c.65,3.34,2.19,6.3,4.38,9.49,2.84,4.14,6.83,6.71,7.73,11.32M44.45,67.14h-2.4c-1.33,0-2.41,1.08-2.41,2.41h0c0,1.33,1.08,2.41,2.41,2.41h8M50.05,71.97h-6.19c-1.33,0-2.41,1.08-2.41,2.41h0c0,1.33,1.08,2.41,2.41,2.41h3.55M46.13,76.8s0,1.08,0,2.41h0c0,1.33,1.08,2.41,2.41,2.41h1.51M55.26,71.97h2.79c1.33,0,2.41-1.08,2.41-2.41h0c0-1.33-1.08-2.41-2.41-2.41h-8M51.55,76.8h4.69c1.33,0,2.41-1.08,2.41-2.41h0c0-1.33-1.08-2.41-2.41-2.41h-.98M50.05,81.62h1.51c1.33,0,2.41-1.08,2.41-2.41h0v-2.41"></path></svg> 