<?xml version="1.0" encoding="UTF-8"?> <svg xmlns="http://www.w3.org/2000/svg" id="Warstwa_1" data-name="Warstwa 1" viewBox="0 0 100 100"><defs><style> .cls-1 { fill: none; stroke: #fc6623; stroke-linejoin: round; stroke-width: 3px; } .cls-2 { fill: #fc6623; opacity: 0; stroke-width: 0px; } </style></defs><rect class="cls-2" width="100" height="100"></rect><path class="cls-1" d="M16.4,63.61v-27.21M44.99,85.91l-18.8-10.85M83.6,36.39v21.49M44.99,14.1l-23.57,13.61M78.59,27.7l-18.55-10.71M55.02,85.9l23.57-13.61M26.19,36.26l11.22,6.48M50,70.29v12.71M78.58,33.5l-11.01,6.35M50,35.47c-8.03,0-14.53,6.51-14.53,14.53s6.51,14.53,14.53,14.53,14.53-6.51,14.53-14.53-6.51-14.53-14.53-14.53ZM11.38,27.7c-1.6,2.77-.65,6.31,2.12,7.91s6.31.65,7.91-2.12c1.6-2.77.65-6.31-2.12-7.91-2.77-1.6-6.31-.65-7.91,2.12ZM50,5.41c-3.2,0-5.79,2.59-5.79,5.79s2.59,5.79,5.79,5.79,5.79-2.59,5.79-5.79-2.59-5.79-5.79-5.79ZM88.62,27.7c-1.6-2.77-5.14-3.72-7.91-2.12s-3.72,5.14-2.12,7.91c1.6,2.77,5.14,3.72,7.91,2.12s3.72-5.14,2.12-7.91ZM88.62,72.3c1.6-2.77.65-6.31-2.12-7.91-2.77-1.6-6.31-.65-7.91,2.12s-.65,6.31,2.12,7.91c2.77,1.6,6.31.65,7.91-2.12ZM50,94.59c3.2,0,5.79-2.59,5.79-5.79s-2.59-5.79-5.79-5.79-5.79,2.59-5.79,5.79,2.59,5.79,5.79,5.79ZM11.38,72.3c1.6,2.77,5.14,3.72,7.91,2.12,2.77-1.6,3.72-5.14,2.12-7.91-1.6-2.77-5.14-3.72-7.91-2.12-2.77,1.6-3.72,5.14-2.12,7.91ZM42.33,50.52l5.3,5.3,10.03-10.03"></path></svg> 