<?xml version="1.0" encoding="UTF-8"?> <svg xmlns="http://www.w3.org/2000/svg" id="Warstwa_1" data-name="Warstwa 1" viewBox="0 0 100 100"><defs><style> .cls-1 { fill: none; stroke: #fc6623; stroke-linecap: round; stroke-linejoin: round; stroke-width: 3px; } </style></defs><g><line class="cls-1" x1="32.6" y1="12.41" x2="41.45" y2="12.41"></line><path class="cls-1" d="M10.42,81.19h53.15v6.93c0,3.39-2.74,6.14-6.13,6.14H16.6c-3.39,0-6.14-2.75-6.14-6.14V11.88c0-3.39,2.75-6.14,6.14-6.14h40.84c3.39,0,6.14,2.75,6.14,6.14"></path></g><line class="cls-1" x1="63.56" y1="80.88" x2="63.56" y2="65.67"></line><path class="cls-1" d="M84.56,59.18h-30.01c-.84,0-1.64.39-2.16,1.05l-4.27,5.43c-.63.8-1.85.77-2.44-.06l-3.76-5.27c-.52-.72-1.35-1.15-2.24-1.15h-1.65c-2.77,0-5.02-2.25-5.02-5.02v-30.36c0-2.77,2.25-5.02,5.02-5.02h46.53c2.77,0,5.02,2.25,5.02,5.02v30.36c0,2.77-2.25,5.02-5.02,5.02Z"></path><g><polyline class="cls-1" points="55.36 34.02 49.62 39.75 55.36 45.49"></polyline><line class="cls-1" x1="59.61" y1="45.49" x2="65.35" y2="34.02"></line><polyline class="cls-1" points="69.71 34.02 75.44 39.75 69.71 45.49"></polyline></g></svg> 