<?xml version="1.0" encoding="UTF-8"?> <svg xmlns="http://www.w3.org/2000/svg" id="Warstwa_1" data-name="Warstwa 1" viewBox="0 0 100 100"><defs><style> .cls-1 { fill: none; stroke: #fc6623; stroke-linecap: round; stroke-linejoin: round; stroke-width: 3px; } </style></defs><path class="cls-1" d="M36.48,86.53c-6.16-3.08-11.32-7.8-14.94-13.66-3.62-5.86-5.53-12.59-5.53-19.47V15.8c11.77-.79,23.41-3.89,33.99-9.09,10.59,5.2,22.22,8.3,33.99,9.09v37.59c0,6.88-1.91,13.62-5.53,19.47-3.62,5.86-8.79,10.58-14.94,13.66l-13.52,6.76-13.52-6.76Z"></path><g><polyline class="cls-1" points="40.29 42.01 32.3 50 40.29 57.99"></polyline><line class="cls-1" x1="46.2" y1="57.99" x2="54.19" y2="42.01"></line><polyline class="cls-1" points="60.26 42.01 68.25 50 60.26 57.99"></polyline></g></svg> 