<?xml version="1.0" encoding="UTF-8"?> <svg xmlns="http://www.w3.org/2000/svg" id="Warstwa_1" data-name="Warstwa 1" viewBox="0 0 100 100"><defs><style> .cls-1 { fill: none; stroke: #fc6623; stroke-linecap: round; stroke-linejoin: round; stroke-width: 3px; } </style></defs><path class="cls-1" d="M23.11,41.88l13.16,1.19M49.76,30.97l.25-11.31M61.02,37.74l17.61-9.92M83.93,18.86c-3.3,0-5.98,2.68-5.98,5.98s2.68,5.98,5.98,5.98,5.98-2.68,5.98-5.98-2.68-5.98-5.98-5.98ZM40.76,34.38l-13.29-15.24M17.62,15.78c.67,3.23,3.84,5.32,7.07,4.64s5.32-3.84,4.65-7.07c-.67-3.24-3.84-5.32-7.07-4.64s-5.32,3.84-4.64,7.07ZM40.58,54.03l-17.58,19.34M62.15,47.79c.31-1.12.48-2.31.48-3.53,0-7.27-5.9-13.16-13.16-13.16s-13.16,5.89-13.16,13.16c0,5.59,3.49,10.37,8.4,12.27M17.09,35.27c-3.3,0-5.98,2.68-5.98,5.99s2.68,5.98,5.98,5.98,5.98-2.68,5.98-5.98-2.68-5.99-5.98-5.99ZM17.63,71.4c-4.41,0-7.98,3.57-7.98,7.98s3.57,7.98,7.98,7.98,7.98-3.57,7.98-7.98-3.57-7.98-7.98-7.98ZM50.29,3.65c-4.41,0-7.98,3.57-7.98,7.98s3.57,7.98,7.98,7.98,7.98-3.57,7.98-7.98-3.57-7.98-7.98-7.98ZM57.34,65.4v-15.93c0-1.72-1.36-3.13-3.03-3.13s-3.03,1.41-3.03,3.13v26.55M63.39,65.63v-2.28c0-1.72-1.36-3.13-3.03-3.13h-2.72M69.45,66.71v-2.25c0-1.72-1.36-3.13-3.03-3.13h-3.63M70.93,96.77v-6.55c2.4-2.61,3.52-4.95,3.88-9.77l.45-13.39c.03-1.78-1.13-3.13-2.79-3.13h-2.79M47.98,71.26l-1.33-1.14c-1.59-1.42-2.61-1.7-3.17-1.88-.56-.18-1.19-.19-1.19-.19-1.55-.24-3.12.99-2.64,2.47l11.52,19.65s1.03,1.42,1.03,2.36v4.24"></path></svg> 