<?xml version="1.0" encoding="UTF-8"?> <svg xmlns="http://www.w3.org/2000/svg" id="Warstwa_1" data-name="Warstwa 1" viewBox="0 0 100 100"><defs><style> .cls-1 { fill: none; stroke: #fc6623; stroke-linecap: round; stroke-linejoin: round; stroke-width: 3px; } </style></defs><g><path class="cls-1" d="M74.84,88.52c0,3.34-2.71,6.05-6.05,6.05H28.56c-3.34,0-6.05-2.71-6.05-6.05V13.39c0-3.34,2.71-6.05,6.05-6.05h40.24c3.34,0,6.05,2.71,6.05,6.05v4.9"></path><line class="cls-1" x1="44.31" y1="13.92" x2="53.04" y2="13.92"></line></g><path class="cls-1" d="M68.52,45.17c1.59-1.65,3.82-2.67,6.29-2.67s4.6.98,6.18,2.56"></path><path class="cls-1" d="M62.35,38.99c3.17-3.23,7.58-5.23,12.47-5.23s9.11,1.92,12.27,5.03"></path><path class="cls-1" d="M56.28,32.7c4.74-4.74,11.29-7.68,18.53-7.68,6.71,0,12.84,2.52,17.47,6.67"></path><g><path class="cls-1" d="M77.82,63.4h0c0-1.72-1.39-3.11-3.11-3.11h0c-1.72,0-3.11,1.39-3.11,3.11h0c0,1.72,1.39,3.11,3.11,3.11h0c1.72,0,3.11,1.39,3.11,3.11h0c0,1.72-1.39,3.11-3.11,3.11h0c-1.72,0-3.11-1.39-3.11-3.11h0"></path><line class="cls-1" x1="74.71" y1="60.29" x2="74.71" y2="57.61"></line><line class="cls-1" x1="74.71" y1="75.41" x2="74.71" y2="72.73"></line></g><circle class="cls-1" cx="74.71" cy="66.25" r="14.09" transform="translate(-6.93 123.74) rotate(-76.72)"></circle></svg> 