<?xml version="1.0" encoding="UTF-8"?> <svg xmlns="http://www.w3.org/2000/svg" id="Warstwa_1" data-name="Warstwa 1" viewBox="0 0 100 100"><defs><style> .cls-1 { fill: none; stroke: #fc6623; stroke-linecap: round; stroke-linejoin: round; stroke-width: 3px; } </style></defs><path class="cls-1" d="M68.32,88.96c0,3.46-2.81,6.27-6.27,6.27H20.31c-3.46,0-6.27-2.81-6.27-6.27V11.04c0-3.46,2.81-6.27,6.27-6.27h41.74c3.46,0,6.27,2.81,6.27,6.27v7.3"></path><line class="cls-1" x1="36.65" y1="11.58" x2="45.7" y2="11.58"></line><g><g><line class="cls-1" x1="74.41" y1="44.38" x2="74.41" y2="54.02"></line><path class="cls-1" d="M34.2,44.38h0c0-11.1,9-20.11,20.11-20.11h0c9.57,0,17.57,6.68,19.61,15.63"></path><path class="cls-1" d="M47.71,32.71c1.95-1.1,4.19-1.73,6.59-1.73h0c7.4,0,13.4,6,13.4,13.4v10.87"></path><path class="cls-1" d="M34.2,51.08h0c3.7,0,6.7-3,6.7-6.7h0c0-3.4,1.27-6.5,3.35-8.87"></path><path class="cls-1" d="M34.2,57.79h0c7.4,0,13.4-6,13.4-13.4h0c0-3.7,3-6.7,6.7-6.7h0c3.7,0,6.7,3,6.7,6.7v13.4"></path><path class="cls-1" d="M52.63,52.43c1.08-2.46,1.67-5.18,1.67-8.05h0"></path><path class="cls-1" d="M35.96,64.41c6.09-.53,11.4-3.78,14.72-8.52"></path><path class="cls-1" d="M40.9,70.67s11.48-3.81,13.4-9.53c0,0-.25,5.58,4.56,10.84"></path><path class="cls-1" d="M44.25,77.89s5.79-1.15,7.92-4.48c0,0,4.2,6.26,8.83,7.83"></path></g><circle class="cls-1" cx="74.12" cy="70.04" r="11.84"></circle><polyline class="cls-1" points="68.67 69.37 72.77 73.45 79.58 66.63"></polyline></g></svg> 