<?xml version="1.0" encoding="UTF-8"?> <svg xmlns="http://www.w3.org/2000/svg" width="48" height="48" viewBox="0 0 48 48" fill="none"><path d="M36.8293 42.329C34.4832 32.5914 38.158 29.8225 39.2266 21.9386C40.3416 13.7062 35.2451 6.50058 26.4274 5.74331C19.2589 5.13007 8.85695 8.04763 10.5991 20.5216C10.9522 23.0396 6.74775 26.301 7.40281 28.0385C7.95566 29.5066 9.98123 27.9456 10.2414 29.3858C10.404 30.2732 9.88831 30.7145 10.1345 31.6576C10.5062 33.0839 11.4075 33.3069 11.6026 34.2221C11.7745 35.0444 7.77912 41.372 21.1405 37.5996M18.0742 38.3476C18.3855 40.7169 18.1067 42.3337 18.1067 42.3337M16.0347 17.0651V23.913M18.5016 26.7934L23.2311 29.5252M32.9454 17.0651V22.4728M23.2311 11.453L17.303 14.877M31.6818 14.877L27.0127 12.1824M25.7537 29.5205L31.6818 26.0966M19.4029 17.5529L21.3263 18.6633M24.4901 26.5008V28.7958M31.6818 16.3357L29.8467 17.395M31.6818 16.3357C32.086 17.0326 32.978 17.2742 33.6748 16.87C34.3717 16.4658 34.6133 15.5738 34.2091 14.877C33.8049 14.1801 32.9129 13.9385 32.216 14.3427C31.5192 14.7469 31.2776 15.6389 31.6818 16.3357ZM25.7537 19.8666L24.1045 21.5158L23.2311 20.6424M28.1463 20.4891C28.1463 22.51 26.511 24.1453 24.4901 24.1453C22.4692 24.1453 20.8338 22.51 20.8338 20.4891C20.8338 18.4682 22.4692 16.8328 24.4901 16.8328C26.511 16.8328 28.1463 18.4682 28.1463 20.4891ZM16.7641 14.3473C17.461 14.7515 17.6979 15.6389 17.2984 16.3404C16.8942 17.0373 16.0068 17.2742 15.3053 16.8747C14.6085 16.4705 14.3715 15.5831 14.7711 14.8816C15.1752 14.1847 16.0626 13.9478 16.7641 14.3473ZM25.9489 10.7283C25.9489 11.532 25.2984 12.187 24.4901 12.187C23.6817 12.187 23.0313 11.5366 23.0313 10.7283C23.0313 9.91989 23.6817 9.26948 24.4901 9.26948C25.2984 9.26948 25.9489 9.91989 25.9489 10.7283ZM32.216 26.6308C31.5192 26.2267 31.2822 25.3393 31.6818 24.6378C32.086 23.9409 32.9733 23.704 33.6748 24.1035C34.3717 24.5077 34.6086 25.3951 34.2091 26.0966C33.8049 26.7934 32.9176 27.0304 32.216 26.6308ZM23.0313 30.2499C23.0313 29.4462 23.6817 28.7911 24.4901 28.7911C25.2984 28.7911 25.9489 29.4416 25.9489 30.2499C25.9489 31.0583 25.2984 31.7087 24.4901 31.7087C23.6817 31.7087 23.0313 31.0583 23.0313 30.2499ZM15.31 24.1082C16.0068 23.704 16.8988 23.9456 17.303 24.6424C17.7072 25.3393 17.4656 26.2313 16.7688 26.6355C16.0719 27.0397 15.1799 26.7981 14.7757 26.1012C14.3715 25.4043 14.6131 24.5124 15.31 24.1082Z" stroke="#FFFFFF" stroke-width="1.44" stroke-miterlimit="10"></path></svg> 