<?xml version="1.0" encoding="UTF-8"?> <svg xmlns="http://www.w3.org/2000/svg" id="Warstwa_1" data-name="Warstwa 1" viewBox="0 0 100 100"><defs><style> .cls-1 { fill: none; stroke: #fc6623; stroke-linejoin: round; stroke-width: 3px; } .cls-2 { fill: #fc6623; opacity: 0; stroke-width: 0px; } </style></defs><rect class="cls-2" width="100" height="100"></rect><path class="cls-1" d="M57.65,47.82l.4,7.25c.17,3.14-2.33,5.78-5.47,5.78h-5.15c-3.15,0-5.65-2.64-5.47-5.78l.4-7.25c.07-1.28,1.13-2.28,2.41-2.28h10.48c1.28,0,2.34,1,2.41,2.28ZM55.14,45.54v-2.79c0-2.84-2.3-5.14-5.14-5.14s-5.14,2.3-5.14,5.14v2.79M50,53.81v1.55M16.8,18.45v15.07M23.24,25.99c0,4.16,1.65,7.54,5.81,7.54s5.81-3.37,5.81-7.54-1.65-7.54-5.81-7.54-5.81,3.37-5.81,7.54ZM41.3,18.45v9.8M59.07,28.76c.19-.86.28-1.79.28-2.77,0-4.16-1.65-7.54-5.81-7.54s-5.81,3.37-5.81,7.54c0,.39.01.77.04,1.15M15.94,49.94c0,4.16,1.65,7.54,5.81,7.54s5.81-3.37,5.81-7.54-1.65-7.54-5.81-7.54-5.81,3.37-5.81,7.54ZM66,18.45v12.76M72.44,25.99c0,4.16,1.65,7.54,5.81,7.54s5.81-3.37,5.81-7.54-1.65-7.54-5.81-7.54-5.81,3.37-5.81,7.54ZM16.8,66.47v15.07M23.24,74.01c0,4.16,1.65,7.54,5.81,7.54s5.81-3.37,5.81-7.54-1.65-7.54-5.81-7.54-5.81,3.37-5.81,7.54ZM41.3,71.58v9.96M47.78,72.89c-.03.36-.04.74-.04,1.12,0,4.16,1.65,7.54,5.81,7.54s5.81-3.37,5.81-7.54c0-.85-.07-1.66-.21-2.42M66,68.4v13.15M72.44,74.01c0,4.16,1.65,7.54,5.81,7.54s5.81-3.37,5.81-7.54-1.65-7.54-5.81-7.54-5.81,3.37-5.81,7.54ZM83.2,42.4v15.07M72.19,57.36c3.25-.62,4.57-3.71,4.57-7.42s-1.38-6.95-4.79-7.46M41.35,65.96c2.57,1.4,5.52,2.19,8.65,2.19,10.02,0,18.15-8.12,18.15-18.15s-8.12-18.15-18.15-18.15-18.15,8.12-18.15,18.15c0,3.76,1.14,7.25,3.1,10.15"></path></svg> 