<?xml version="1.0" encoding="UTF-8"?> <svg xmlns="http://www.w3.org/2000/svg" width="114" height="36" viewBox="0 0 114 36" fill="none"><path d="M113.08 0.0507812H0V35.9492H113.08V0.0507812Z" fill="#654079"></path><path d="M37.4727 8.98828C35.9257 8.98828 34.4856 8.98828 33.0352 8.98828C33.0352 15.0634 33.0352 21.0327 33.0352 27.0019C39.1503 27.0019 45.1572 27.0019 51.2041 27.0019C51.2041 25.6819 51.2041 24.4765 51.2041 23.0493C46.5829 23.0493 42.0796 23.0493 37.4727 23.0493C37.4727 18.282 37.4727 13.6623 37.4727 8.98828Z" fill="white"></path><path d="M27.0427 8.94531C21.13 8.94531 15.2161 8.94531 9.20117 8.94531C9.20117 15.0547 9.20117 21.0248 9.20117 27.0307C10.7175 27.0307 12.1303 27.0307 13.6939 27.0307C13.6939 25.7662 13.6939 24.5792 13.6939 23.2927C14.2813 23.2927 14.717 23.2927 15.1538 23.2927C18.7941 23.2927 22.4369 23.2632 26.0784 23.3102C26.9791 23.3232 27.5971 23.0207 28.1789 22.3731C31.5801 18.5716 31.0457 12.1148 27.0427 8.94531ZM25.5852 19.1458C21.5976 19.1458 17.7428 19.1458 13.7845 19.1458C13.7845 17.1598 13.7845 15.197 13.7845 13.1427C17.6427 13.1427 21.5504 13.1427 25.5344 13.1427C26.5977 15.0947 26.5564 17.0785 25.5852 19.1458Z" fill="white"></path><path d="M63.6611 8.94434C59.87 14.9288 56.0906 20.8981 52.1973 27.0461C54.0469 27.0461 55.6105 27.0461 57.2528 27.0461C57.9039 26.0996 58.5678 25.1354 59.2412 24.1547C63.9825 24.1547 68.6095 24.1547 73.2449 24.1547C73.8594 25.1507 74.455 26.1136 75.0037 27.0037C76.8004 27.0037 78.4627 27.0037 80.3301 27.0037C76.4639 20.8664 72.7067 14.9029 68.9521 8.94452C67.1543 8.94434 65.4377 8.94434 63.6611 8.94434ZM61.6407 19.9266C63.21 17.4047 64.7089 14.9934 66.3172 12.408C67.8678 14.9688 69.3242 17.3788 70.8641 19.9266C67.7499 19.9266 64.7856 19.9266 61.6407 19.9266Z" fill="white"></path><path d="M90.2566 19.4441C87.4262 15.8555 84.6748 12.3671 81.9869 8.95618C80.0137 8.95618 78.1901 8.95618 76.0566 8.95618C79.936 13.7962 83.6305 18.4102 87.3605 23.0653C86.3986 24.3652 85.4767 25.6143 84.4242 27.0355C86.395 27.0355 88.1011 27.0355 89.8472 27.0355C94.5237 21.0699 99.1941 15.109 104.025 8.94434C101.86 8.94434 100.034 8.94434 98.1851 8.94434C95.5405 12.4471 92.9127 15.9239 90.2566 19.4441Z" fill="white"></path><path d="M0.359375 36C38.0523 36 75.0273 36 112.721 36C112.721 35.983 112.721 35.9663 112.721 35.9492H0.359375C0.359375 35.9663 0.359375 35.983 0.359375 36Z" fill="#654079"></path><path d="M112.721 0C75.0273 0 38.0523 0 0.359375 0C0.359375 0.0170517 0.359375 0.033924 0.359375 0.0507962H112.721C112.721 0.033924 112.721 0.0170517 112.721 0Z" fill="#654079"></path></svg> 