<?xml version="1.0" encoding="UTF-8"?> <svg xmlns="http://www.w3.org/2000/svg" id="Warstwa_1" data-name="Warstwa 1" viewBox="0 0 100 100"><defs><style> .cls-1 { fill: none; stroke: #fc6623; stroke-linejoin: round; stroke-width: 3px; } .cls-2 { fill: #fc6623; opacity: 0; stroke-width: 0px; } </style></defs><rect class="cls-2" width="100" height="100"></rect><path id="Face_Detection" data-name="Face Detection" class="cls-1" d="M16.35,88.33l-2.05-15.3c-.35-2.66,1.05-5.24,3.47-6.4l19.41-9.26,3.06,9.78,9.78-9.78,9.08,9.08,3.73-9.08,19.42,9.26c2.42,1.16,3.82,3.74,3.46,6.4l-2.05,15.3M50,11.67c-22.75,0-12.76,22.91-12.76,22.91,0,0,1.31-13.07,2.43-12.29,5.22,3.66,10.33-1.24,10.33-1.24,0,0,6.22,5.31,10.33,1.24.97-.96,2.4,12.58,2.4,12.58,0,0,10.02-23.2-12.73-23.2M37.24,39.79s.73,13.24,12.51,13.24,12.98-13.24,12.98-13.24M36.06,33.76s-2,.72-1.27,2.7c.73,1.98,2.45,3.33,2.45,3.33M62.73,39.79s1.72-1.35,2.45-3.33-1.27-2.7-1.27-2.7M41.71,50.04l-3.85,9.52M62.31,58.63l-4.01-8.97M75.06,77.5h-12.4M30.07,19.43h-7.57v7.57M22.5,46.22v7.57h7.57M77.5,27.01v-7.57h-7.57M69.92,53.79h7.57v-7.57"></path></svg> 