<?xml version="1.0" encoding="UTF-8"?> <svg xmlns="http://www.w3.org/2000/svg" width="48" height="48" viewBox="0 0 48 48" fill="none"><path d="M27.2953 16.7851C27.2953 17.7145 26.93 18.5607 26.3289 19.1849C25.6908 19.8508 24.7891 20.2669 23.7903 20.2669C22.6297 20.2669 21.6078 19.7121 20.9651 18.852C20.5351 18.274 20.2808 17.5619 20.2808 16.7897C20.2808 16.0175 20.5351 15.3054 20.9651 14.7274C21.6032 13.8674 22.6297 13.3125 23.7903 13.3125C24.7891 13.3125 25.6908 13.7287 26.3289 14.3945C26.93 15.0187 27.2953 15.8603 27.2953 16.7943V16.7851Z" stroke="#FFFFFF" stroke-width="1.44" stroke-miterlimit="10"></path><path d="M24.2253 16.7852C24.2253 16.9008 24.179 17.0072 24.105 17.0858C24.0264 17.169 23.9155 17.2199 23.7906 17.2199C23.6473 17.2199 23.5178 17.1505 23.4392 17.0442C23.3837 16.9702 23.356 16.8823 23.356 16.7852C23.356 16.6881 23.3883 16.6003 23.4392 16.5263C23.5178 16.4199 23.6473 16.3506 23.7906 16.3506C23.9155 16.3506 24.0264 16.4014 24.105 16.4847C24.179 16.5633 24.2253 16.6696 24.2253 16.7852Z" stroke="#FFFFFF" stroke-width="1.44" stroke-miterlimit="10"></path><path d="M16.397 22.6531C15.0976 21.044 14.3208 19.0048 14.3208 16.7853C14.3208 14.5658 15.0976 12.5266 16.397 10.9175" stroke="#FFFFFF" stroke-width="1.44" stroke-miterlimit="10"></path><path d="M30.9019 10.5798C32.3723 12.2352 33.2647 14.4039 33.2647 16.7852C33.2647 19.1665 32.3723 21.3352 30.9019 22.9905" stroke="#FFFFFF" stroke-width="1.44" stroke-miterlimit="10"></path><path d="M34.856 7.28735C37.0755 9.83516 38.421 13.1505 38.421 16.785C38.421 20.4194 37.0755 23.7348 34.856 26.2826" stroke="#FFFFFF" stroke-width="1.44" stroke-miterlimit="10"></path><path d="M12.4432 25.9454C10.3901 23.4484 9.16016 20.2579 9.16016 16.7853C9.16016 13.3127 10.3901 10.1222 12.4432 7.62524" stroke="#FFFFFF" stroke-width="1.44" stroke-miterlimit="10"></path><path d="M38.8096 4C41.7874 7.4356 43.5815 11.9024 43.5815 16.7853C43.5815 21.6682 41.7828 26.1349 38.8096 29.5705" stroke="#FFFFFF" stroke-width="1.44" stroke-miterlimit="10"></path><path d="M8.48987 29.2375C5.68312 25.8481 4 21.5154 4 16.7897C4 12.0641 5.68312 7.72678 8.48987 4.34204" stroke="#FFFFFF" stroke-width="1.44" stroke-miterlimit="10"></path><path d="M26.334 19.1769L26.3291 19.1526" stroke="#FFFFFF" stroke-width="1.44" stroke-miterlimit="10"></path><path d="M21.2519 19.1526L21.2471 19.1817" stroke="#FFFFFF" stroke-width="1.44" stroke-miterlimit="10"></path><path d="M27.7951 27.7163L23.7907 30.204L17.4004 34.1714" stroke="#FFFFFF" stroke-width="1.44" stroke-miterlimit="10"></path><path d="M19.7861 27.7163L23.7905 30.204L30.1808 34.1714" stroke="#FFFFFF" stroke-width="1.44" stroke-miterlimit="10"></path><path d="M17.4004 34.1714L33.5426 43.9788C33.5935 44.0112 33.6536 44.0066 33.6999 43.965C33.7461 43.928 33.76 43.8679 33.7415 43.8124L25.6495 21.9041" stroke="#FFFFFF" stroke-width="1.44" stroke-miterlimit="10"></path><path d="M30.1806 34.1714L14.0383 43.9788C13.9874 44.0112 13.9273 44.0066 13.8811 43.965C13.8348 43.928 13.821 43.8679 13.8395 43.8124L18.334 31.6467L20.5766 25.5801L21.936 21.9041" stroke="#FFFFFF" stroke-width="1.44" stroke-miterlimit="10"></path></svg> 