<?xml version="1.0" encoding="UTF-8"?> <svg xmlns="http://www.w3.org/2000/svg" id="Warstwa_1" data-name="Warstwa 1" viewBox="0 0 100 100"><defs><style> .cls-1 { fill: none; stroke: #fc6623; stroke-linecap: round; stroke-linejoin: round; stroke-width: 3px; } </style></defs><g><path class="cls-1" d="m42.77,57.08c0,3.73,3.25,6.74,7.25,6.74s7.25-3.02,7.25-6.74-3.87-5.35-7.27-7.08c-3.4-1.72-7.26-3.35-7.26-7.08s3.24-6.74,7.25-6.74,7.25,3.02,7.25,6.74"></path><line class="cls-1" x1="49.98" y1="36.15" x2="49.98" y2="31.63"></line><line class="cls-1" x1="49.98" y1="68.37" x2="49.98" y2="63.85"></line></g><g><g><path class="cls-1" d="m29.89,16.68c-11.26,6.83-18.79,19.21-18.79,33.33h-6.3l11.43,17.66,11.45-17.66h-6.53c0-15.94,12.92-28.89,28.86-28.89,9.78,0,18.43,4.87,23.65,12.32"></path><path class="cls-1" d="m52.48,11.16c-.82-.05-1.65-.08-2.48-.08-5.69,0-11.09,1.22-15.96,3.42"></path><path class="cls-1" d="m68.55,15.77c-3.4-1.84-7.1-3.2-11.01-3.97"></path><path class="cls-1" d="m78.86,23.89c-1.96-2.16-4.15-4.1-6.54-5.77"></path></g><g><path class="cls-1" d="m70.12,83.32c11.26-6.83,18.79-19.21,18.79-33.33h6.29l-11.43-17.66-11.45,17.66h6.53c0,15.94-12.92,28.89-28.86,28.89-9.78,0-18.43-4.87-23.65-12.32"></path><path class="cls-1" d="m47.52,88.84c.82.05,1.64.08,2.48.08,5.69,0,11.09-1.22,15.96-3.42"></path><path class="cls-1" d="m31.45,84.23c3.4,1.84,7.1,3.2,11.02,3.97"></path><path class="cls-1" d="m21.14,76.1c1.95,2.16,4.15,4.1,6.53,5.78"></path></g></g></svg> 