<?xml version="1.0" encoding="UTF-8"?> <svg xmlns="http://www.w3.org/2000/svg" id="Warstwa_1" data-name="Warstwa 1" viewBox="0 0 100 100"><defs><style> .cls-1 { fill: none; stroke: #fc6623; stroke-linecap: round; stroke-linejoin: round; stroke-width: 3px; } </style></defs><path class="cls-1" d="m78.95,79.25H21.05V20.78h57.9v58.46ZM50.01,8.49v6.64m19.97-6.64v6.64m-10-6.64v6.64m-29.97-6.64v6.64m10-6.64v6.64M8.91,50.01h6.58m-6.58-20.18h6.58m-6.58,10.09h6.58m-6.58,30.27h6.58m-6.58-10.09h6.58m34.53,31.4v-6.64m-19.97,6.64v-6.64m9.97,6.64v-6.64m29.97,6.64v-6.64m-10,6.64v-6.64m31.11-34.86h-6.58m6.58,20.18h-6.58m6.58-10.09h-6.58m6.58-30.27h-6.58m6.58,10.09h-6.58m-34.5,27.8c.39.92,1.01,1.7,1.88,2.29,2.44,1.61,5.98,1.04,8.6-1.19,1.88.45,4.35-.6,5.95-2.68,1.61-2.05,1.91-4.52.89-6.01,1.73-.57,3.21-2.44,3.57-4.82.36-2.2-.33-4.26-1.61-5.33,1.46-1.19,1.91-3.66.95-6.07-.92-2.35-2.86-3.75-4.76-4.05,1.43-1.79.71-4.14-1.49-5.98-1.1-.92-2.41-1.46-3.6-1.58-.65-1.16-2.02-2.2-3.78-2.77-2.98-.95-5.89-.27-6.61,1.61m0,0v36.61m6.04-30.93c-2.08,3.04-.92,7.11,2.38,6.1m.74,10.39c-.03-.06-.09-.12-.12-.15-1.07-1.46-3.16-2.59-5.15-2.95m6.46-17.95l-1.61,2.41m6.7,5.15l-2.53.65m6.31,9.53h-3.93m2.02,10.09l-1.99-.45m-4.85,9.17l-1.34-2.65m2.89-7.05c-3.48-1.16-7.08.63-6.07,5.66m5.45-17.38c-4.08-.24-4.02,4.55-1.49,6.73m-9.91-22.98c-.71-1.88-3.63-2.59-6.61-1.61-1.76.57-3.13,1.61-3.78,2.77-1.19.12-2.5.65-3.6,1.58-2.2,1.82-2.92,4.2-1.49,5.98-1.91.33-3.84,1.73-4.76,4.05-.95,2.41-.51,4.88.95,6.07-1.28,1.07-1.96,3.13-1.61,5.33.39,2.38,1.85,4.26,3.57,4.82-1.01,1.52-.71,3.96.89,6.01,1.64,2.08,4.08,3.13,5.95,2.68,2.62,2.23,6.16,2.83,8.6,1.19.86-.57,1.49-1.37,1.88-2.29m-8.45-25c3.27,1.01,4.44-3.07,2.38-6.1m2.14,13.6c-1.99.36-4.11,1.49-5.15,2.95-.03.06-.09.12-.12.15m-1.19-21.04l1.61,2.41m-4.17,5.83l-2.53-.65m-3.78,10.15h3.93m-2.02,10.09l1.99-.45m4.88,9.17l1.34-2.65m3.16-1.4c1.01-5.03-2.56-6.82-6.07-5.66m2.11-5c2.53-2.17,2.59-6.97-1.49-6.73"></path></svg> 