<?xml version="1.0" encoding="UTF-8"?> <svg xmlns="http://www.w3.org/2000/svg" id="Warstwa_1" data-name="Warstwa 1" viewBox="0 0 100 100"><defs><style> .cls-1 { fill: none; stroke: #fc6623; stroke-linecap: round; stroke-linejoin: round; stroke-width: 3px; } </style></defs><path class="cls-1" d="M72.85,49.91h6.46l5.35,5.27M68.63,42.7l9.17-10.4.29-7.18M78.18,15.34c-2.68,0-4.85,2.19-4.85,4.89s2.17,4.89,4.85,4.89,4.85-2.19,4.85-4.89-2.17-4.89-4.85-4.89ZM88.19,53.63c-2.68,0-4.85,2.19-4.85,4.89s2.17,4.89,4.85,4.89,4.85-2.19,4.85-4.89-2.17-4.89-4.85-4.89ZM27.15,49.91h-6.46l-5.35,5.27M6.95,58.52c0,2.7,2.17,4.89,4.85,4.89s4.85-2.19,4.85-4.89-2.17-4.89-4.85-4.89-4.85,2.19-4.85,4.89ZM31.38,59.65l-7.29,8.27-.29,6.96M21.91,25.11l.29,7.18,9.17,10.4h0M18.85,79.77c0,2.7,2.17,4.89,4.85,4.89s4.85-2.19,4.85-4.89-2.17-4.89-4.85-4.89-4.85,2.19-4.85,4.89ZM50.1,81.26l.29-15.96M45.15,86.14c0,2.7,2.17,4.89,4.85,4.89s4.85-2.19,4.85-4.89-2.17-4.89-4.85-4.89-4.85,2.19-4.85,4.89ZM76.2,74.89l-.29-6.96-7.29-8.27M76.3,74.88c-2.68,0-4.85,2.19-4.85,4.89s2.17,4.89,4.85,4.89,4.85-2.19,4.85-4.89-2.17-4.89-4.85-4.89ZM16.97,20.23c0,2.7,2.17,4.89,4.85,4.89s4.85-2.19,4.85-4.89-2.17-4.89-4.85-4.89-4.85,2.19-4.85,4.89ZM57.82,32.11v-5.34c0-3.09-3.58-5.7-7.82-5.7s-7.82,2.61-7.82,5.7v9.11M63.06,35.88v-9.11c0-6.04-5.85-10.94-13.06-10.94s-13.06,4.9-13.06,10.94v9.11M31.37,35.88v22.33c0,3.64,2.95,6.59,6.59,6.59h24.07c3.64,0,6.59-2.95,6.59-6.59v-22.33H31.37ZM54.18,48.36c0-2.31-1.87-4.18-4.18-4.18s-4.18,1.87-4.18,4.18c0,1.46.75,2.74,1.88,3.49v5.4h4.59v-5.4c1.13-.75,1.88-2.03,1.88-3.49Z"></path></svg> 