<?xml version="1.0" encoding="UTF-8"?> <svg xmlns="http://www.w3.org/2000/svg" id="Warstwa_1" data-name="Warstwa 1" viewBox="0 0 100 100"><defs><style> .cls-1 { fill: none; stroke: #fc6623; stroke-linecap: round; stroke-linejoin: round; stroke-width: 3px; } </style></defs><g><path class="cls-1" d="m73.85,71.54c10.31,0,18.74-8.43,18.74-18.74v-.72c0-10.3-8.43-18.74-18.74-18.74h-4.77v-1.47c0-10.55-8.55-19.09-19.09-19.09-8.83,0-16.25,5.99-18.44,14.13"></path><path class="cls-1" d="m39.15,39.18c-3.97-4.13-7.42-5.83-13.39-5.83l-.93.03c-9.7.68-17.42,8.83-17.42,18.69v.72c0,9.76,7.66,18.67,17.12,18.67"></path></g><g><polyline class="cls-1" points="40.37 69.54 46.33 77.79 57.31 64.67"></polyline><path class="cls-1" d="m41.7,55.66c2.25-1.13,4.79-1.77,7.49-1.77,9.2,0,16.66,7.46,16.66,16.66s-7.46,16.66-16.66,16.66-16.66-7.46-16.66-16.66c0-3.82,1.29-7.34,3.45-10.15"></path></g></svg> 