<?xml version="1.0" encoding="UTF-8"?> <svg xmlns="http://www.w3.org/2000/svg" id="Warstwa_1" data-name="Warstwa 1" viewBox="0 0 100 100"><defs><style> .cls-1 { fill: none; stroke: #fc6623; stroke-linecap: round; stroke-linejoin: round; stroke-width: 3px; } </style></defs><g><line class="cls-1" x1="45.96" y1="69.12" x2="38.1" y2="61.95"></line><polyline class="cls-1" points="62.36 22.41 62.36 61.73 72.93 93.42 50.07 72.76"></polyline><polyline class="cls-1" points="31.14 51.71 11.32 60.17 88.68 60.17 62.29 49.21 37.71 49.21"></polyline><polyline class="cls-1" points="31.04 25.51 17.34 32 82.66 32 62.3 22.36 45.34 22.36"></polyline><g><line class="cls-1" x1="37.71" y1="32.02" x2="45.57" y2="37.52"></line><line class="cls-1" x1="50.03" y1="40.63" x2="62.29" y2="49.21"></line><line class="cls-1" x1="62.29" y1="32.02" x2="37.71" y2="49.21"></line></g><g><line class="cls-1" x1="20.9" y1="38.43" x2="20.9" y2="42.45"></line><line class="cls-1" x1="79.11" y1="38.43" x2="79.11" y2="42.45"></line></g><g><line class="cls-1" x1="84.57" y1="66.58" x2="84.57" y2="70.6"></line><line class="cls-1" x1="15.43" y1="66.58" x2="15.43" y2="70.6"></line></g></g><polyline class="cls-1" points="62.37 22.41 53.99 6.58 46.01 6.58 37.63 22.41 37.65 61.73 27.07 93.42 61.99 61.95"></polyline></svg> 