<?xml version="1.0" encoding="UTF-8"?> <svg xmlns="http://www.w3.org/2000/svg" id="Warstwa_1" data-name="Warstwa 1" viewBox="0 0 100 100"><defs><style> .cls-1 { fill: none; stroke: #fc6623; stroke-linecap: round; stroke-linejoin: round; stroke-width: 3px; } </style></defs><path class="cls-1" d="m54.91,92.39c-23.41,0-42.4-18.98-42.4-42.39S31.5,7.61,54.91,7.61c11.71,0,22.32,4.74,29.99,12.42"></path><path class="cls-1" d="m54.91,83.24c-18.33,0-33.24-14.91-33.24-33.24s14.91-33.24,33.24-33.24c16.05,0,29.47,11.42,32.58,26.55"></path><path class="cls-1" d="m54.91,74.08c-13.28,0-24.09-10.8-24.09-24.08s10.8-24.08,24.09-24.08"></path><path class="cls-1" d="m54.91,64.93c-8.23,0-14.93-6.7-14.93-14.93s6.7-14.93,14.93-14.93c6.74,0,12.46,4.48,14.31,10.62"></path></svg> 