<?xml version="1.0" encoding="UTF-8"?> <svg xmlns="http://www.w3.org/2000/svg" id="Warstwa_1" data-name="Warstwa 1" viewBox="0 0 100 100"><defs><style> .cls-1 { fill: none; stroke: #fc6623; stroke-linecap: round; stroke-linejoin: round; stroke-width: 3px; } </style></defs><g><g><line class="cls-1" x1="34.79" y1="26.26" x2="34.79" y2="19.5"></line><line class="cls-1" x1="44.93" y1="26.26" x2="44.93" y2="19.5"></line><line class="cls-1" x1="55.07" y1="26.26" x2="55.07" y2="19.5"></line><line class="cls-1" x1="65.21" y1="26.26" x2="65.21" y2="19.5"></line></g><g><line class="cls-1" x1="34.79" y1="80.5" x2="34.79" y2="73.74"></line><line class="cls-1" x1="44.93" y1="80.5" x2="44.93" y2="73.74"></line><line class="cls-1" x1="55.07" y1="80.5" x2="55.07" y2="73.74"></line><line class="cls-1" x1="65.21" y1="80.5" x2="65.21" y2="73.74"></line></g></g><g><g><g><path class="cls-1" d="m9.1,45.74c2.35,0,3.99,1.91,3.99,4.26s-1.91,4.26-4.26,4.26-4.26-1.91-4.26-4.26,2.17-4.26,4.52-4.26Z"></path><line class="cls-1" x1="13.05" y1="50" x2="26.49" y2="50"></line></g><g><path class="cls-1" d="m16.89,33.02c1.66,1.66,1.66,4.36,0,6.02-1.66,1.66-4.36,1.66-6.02,0-1.66-1.66-1.66-4.36,0-6.02,1.66-1.66,4.36-1.66,6.02,0Z"></path><polyline class="cls-1" points="16.9 39.05 20.61 43.29 26.41 43.29"></polyline></g><g><path class="cls-1" d="m16.89,66.98c1.66-1.66,1.66-4.36,0-6.02-1.66-1.66-4.36-1.66-6.02,0-1.66,1.66-1.66,4.36,0,6.02,1.66,1.66,4.36,1.66,6.02,0Z"></path><polyline class="cls-1" points="16.9 60.95 20.61 56.71 26.41 56.71"></polyline></g></g><g><g><path class="cls-1" d="m90.9,54.26c-2.35,0-3.99-1.91-3.99-4.26s1.91-4.26,4.26-4.26,4.26,1.91,4.26,4.26-2.17,4.26-4.52,4.26Z"></path><line class="cls-1" x1="86.95" y1="50" x2="73.52" y2="50"></line></g><g><path class="cls-1" d="m83.11,66.98c-1.66-1.66-1.66-4.36,0-6.02,1.66-1.66,4.36-1.66,6.02,0,1.66,1.66,1.66,4.36,0,6.02-1.66,1.66-4.36,1.66-6.02,0Z"></path><polyline class="cls-1" points="83.1 60.95 79.39 56.71 73.59 56.71"></polyline></g><g><path class="cls-1" d="m83.11,33.02c-1.66,1.66-1.66,4.36,0,6.02,1.66,1.66,4.36,1.66,6.02,0,1.66-1.66,1.66-4.36,0-6.02-1.66-1.66-4.36-1.66-6.02,0Z"></path><polyline class="cls-1" points="83.1 39.05 79.39 43.29 73.59 43.29"></polyline></g></g></g><g><path class="cls-1" d="m30.27,26.75h39.46c1.94,0,3.52,1.58,3.52,3.52v39.46c0,1.94-1.58,3.52-3.52,3.52H30.27c-1.94,0-3.52-1.58-3.52-3.52V30.27c0-1.95,1.58-3.53,3.53-3.53Z"></path><polyline class="cls-1" points="38.79 32.62 67.38 32.62 67.38 67.38 32.62 67.38 32.62 38.4"></polyline></g></svg> 