<?xml version="1.0" encoding="UTF-8"?> <svg xmlns="http://www.w3.org/2000/svg" id="Warstwa_1" data-name="Warstwa 1" viewBox="0 0 100 100"><defs><style> .cls-1 { fill: none; stroke: #fc6623; stroke-linecap: round; stroke-linejoin: round; stroke-width: 3px; } </style></defs><g><path class="cls-1" d="m46.65,36.87c-1.26.32-2.45.82-3.54,1.46l-3.98-2.82-3.62,3.61,2.82,3.98c-.64,1.09-1.13,2.26-1.46,3.51l-4.81.82v5.12l4.81.82c.32,1.26.82,2.44,1.47,3.53l-2.84,3.96,3.62,3.62,3.96-2.84c1.09.65,2.28,1.14,3.54,1.47l.82,4.81h5.11l.82-4.81c1.26-.33,2.44-.82,3.54-1.47l3.96,2.84,3.61-3.62-2.84-3.96c.66-1.1,1.16-2.3,1.48-3.57l4.8-.79v-5.12l-4.8-.79c-.32-1.26-.82-2.45-1.47-3.54l2.82-3.98-3.61-3.62-3.98,2.82c-1.09-.65-2.28-1.14-3.54-1.46l-.79-4.8h-5.11"></path><path class="cls-1" d="m49.05,44.84c.31-.06.63-.09.96-.09,2.89,0,5.24,2.34,5.24,5.24s-2.35,5.24-5.24,5.24-5.24-2.34-5.24-5.24c0-.31.03-.62.08-.91"></path></g><g><path class="cls-1" d="m29.41,16.06c-12.03,7.29-19.21,20.03-19.21,34.07v1.37H3.73l10.53,15.74,10.54-15.74h-6.72v-1.37c0-17.6,14.3-31.92,31.89-31.92,10.39,0,20.16,5.09,26.13,13.61"></path><path class="cls-1" d="m70.59,83.94c12.03-7.29,19.21-20.03,19.21-34.07v-1.37h6.47l-10.53-15.74-10.54,15.74h6.72v1.37c0,17.6-14.3,31.92-31.88,31.92-10.39,0-20.16-5.09-26.13-13.61"></path><path class="cls-1" d="m47.5,89.59c.84.05,1.68.08,2.54.08,5.68,0,11.17-1.18,16.31-3.5"></path><path class="cls-1" d="m31.08,84.87c3.53,1.92,7.32,3.28,11.25,4.05"></path><path class="cls-1" d="m20.53,76.57c2,2.21,4.25,4.2,6.68,5.9"></path><path class="cls-1" d="m52.5,10.41c-.84-.05-1.68-.08-2.53-.08-5.68,0-11.17,1.18-16.32,3.5"></path><path class="cls-1" d="m68.93,15.13c-3.53-1.92-7.32-3.28-11.25-4.05"></path><path class="cls-1" d="m79.47,23.43c-2-2.21-4.25-4.2-6.68-5.91"></path></g></svg> 