<?xml version="1.0" encoding="UTF-8"?> <svg xmlns="http://www.w3.org/2000/svg" id="Warstwa_1" data-name="Warstwa 1" viewBox="0 0 100 100"><defs><style> .cls-1 { fill: none; stroke: #fc6623; stroke-linecap: round; stroke-linejoin: round; stroke-width: 3px; } </style></defs><polyline class="cls-1" points="69.36 40.19 82.84 40.19 73.46 62.72"></polyline><line class="cls-1" x1="69.14" y1="25.62" x2="55.65" y2="59.41"></line><g><path class="cls-1" d="m44.35,41.39h-5.27c-1.13,0-2.05-.92-2.05-2.05v-2.96c0-1.13.92-2.05,2.05-2.05h3.23c1.13,0,2.05-.92,2.05-2.05v-2.97c0-1.13-.92-2.05-2.05-2.05h-4.66"></path><polyline class="cls-1" points="55.31 41.39 55.31 27.27 48.37 37.72 58.14 37.72"></polyline></g><g><g><line class="cls-1" x1="69.36" y1="88.55" x2="55.43" y2="79.21"></line><path class="cls-1" d="m20.53,44.56l-9.25-13.89c-.61.54-.98.9-.98.9-3.48,3.1-2.7,5.8-2.7,5.8,2.35,16.55,19.77,32.49,21.1,33.88,1.8,1.67,17.36,18.74,33.91,21.06,0,0,2.71.77,5.8-2.71l.96-1.06c1.19-1.57,5.28-6.86,5.32-7.74,0,0,.39-1.74-1.65-3.19l-12.18-8.11s-2.13-1.93-5.12-.29l-7.35,4.06s-7.37-5.85-11.45-10.28c-4.43-4.08-10.29-11.44-10.29-11.44l4.06-7.35c1.64-3-.29-5.12-.29-5.12l-8.13-12.17c-1.45-2.03-3.19-1.64-3.19-1.64-.9.04-2.5,1.07-4.1,2.29"></path></g><path class="cls-1" d="m29.35,24.82c5.78-10.27,16.79-17.21,29.41-17.21,18.63,0,33.72,15.1,33.72,33.72,0,12.49-6.79,23.4-16.88,29.22"></path></g></svg> 