<?xml version="1.0" encoding="UTF-8"?> <svg xmlns="http://www.w3.org/2000/svg" id="Warstwa_1" data-name="Warstwa 1" viewBox="0 0 100 100"><defs><style> .cls-1 { fill: none; stroke: #fc6623; stroke-linecap: round; stroke-linejoin: round; stroke-width: 3px; } </style></defs><path class="cls-1" d="m84.45,50c0,19.03-15.42,34.45-34.45,34.45S15.55,69.03,15.55,50,30.97,15.55,50,15.55s34.45,15.42,34.45,34.45Z"></path><path class="cls-1" d="m71.69,50c0,11.98-9.71,21.69-21.69,21.69s-21.69-9.71-21.69-21.69,9.71-21.69,21.69-21.69,21.69,9.71,21.69,21.69Z"></path><path class="cls-1" d="m59.93,50c0,5.49-4.45,9.93-9.93,9.93s-9.94-4.45-9.94-9.93,4.45-9.93,9.94-9.93,9.93,4.45,9.93,9.93Z"></path><g><line class="cls-1" x1="50" y1="8.49" x2="50" y2="29.63"></line><line class="cls-1" x1="50" y1="70.37" x2="50" y2="91.51"></line></g><g><line class="cls-1" x1="91.51" y1="50" x2="70.37" y2="50"></line><line class="cls-1" x1="29.63" y1="50" x2="8.49" y2="50"></line></g></svg> 