<?xml version="1.0" encoding="UTF-8"?> <svg xmlns="http://www.w3.org/2000/svg" width="118" height="36" viewBox="0 0 118 36" fill="none"><path d="M1 8.77808H6.37242L5.84477 14.2224L6.22851 14.2464C6.68421 10.2651 8.67488 8.27441 12.7761 8.27441C17.501 8.27441 20.6669 12.1838 20.6669 18.1079C20.6669 24.0319 17.501 27.9413 12.5363 27.9413C9.01066 27.9413 7.13991 26.3104 6.49234 24.1039L6.10859 24.1278L6.56429 28.397V34.345H1V8.77808ZM15.5823 18.1079C15.5823 14.7261 14.0233 12.9273 11.0733 12.9273C8.12325 12.9273 6.49234 14.7501 6.49234 18.1079C6.49234 21.4656 8.07528 23.2884 11.0493 23.2884C14.0233 23.2884 15.5823 21.4896 15.5823 18.1079Z" fill="#00B262"></path><path d="M32.9705 22.5209L33.4742 27.1738C32.2031 27.6295 30.86 27.8453 29.5168 27.8213C25.8473 27.8213 23.7847 25.4469 23.7847 21.5855V1.65479H29.0612V20.77C29.0612 22.1131 29.6368 22.8327 30.6921 22.8327C31.4835 22.8806 32.251 22.7607 32.9705 22.5209Z" fill="#00B262"></path><path d="M49.0878 22.017L48.704 21.993C48.2483 26.0943 46.3296 28.1089 42.3723 28.1089C38.1511 28.1089 35.6567 25.3748 35.6567 20.578V8.77783H40.9092V19.9304C40.9092 22.2089 42.0125 23.4081 44.0032 23.4081C46.9292 23.4081 48.1524 22.2089 48.1524 19.4987V8.77783H53.4049V27.4854H48.5361L49.0878 22.017Z" fill="#00B262"></path><path d="M72.2327 21.8733C72.2327 25.6388 69.2347 27.9413 64.366 27.9413C62.0155 27.9413 59.3773 27.7734 56.6191 26.6941L57.7704 22.4729C59.857 23.2884 62.0875 23.6961 64.318 23.6481C66.5965 23.6481 67.2441 22.8327 67.2441 21.9453C67.2441 21.1538 66.7884 20.7701 65.3973 20.4822L61.5838 19.6908C58.274 18.9713 56.6671 17.1245 56.6671 14.0785C56.6671 10.4809 59.6891 8.27438 64.6298 8.27438C67.0042 8.2504 69.3547 8.68211 71.5612 9.5935L70.5778 13.7427C68.6351 12.9752 66.5725 12.5675 64.4859 12.5675C62.6391 12.5675 61.6798 13.0232 61.6798 13.9586C61.6798 14.6301 62.1115 15.0379 63.1668 15.2537L67.1961 16.1172C70.4819 16.8127 72.2327 18.8034 72.2327 21.8733Z" fill="#00B262"></path><path d="M109.576 3.28581C108.64 2.90207 107.681 2.66223 106.698 2.56629C106.074 1.9427 105.402 1.36709 104.659 0.83944C106.41 1.39107 108.065 2.20653 109.576 3.28581ZM112.142 30.5077C112.646 29.98 113.125 29.4284 113.581 28.8288C114.396 27.006 114.948 25.0633 115.212 23.0726C115.764 22.9527 116.267 22.7129 116.699 22.3291C116.891 21.5376 117.035 20.7222 117.131 19.9307C116.003 20.3624 114.852 20.6742 113.677 20.9141C113.653 20.8901 114.157 26.1905 112.142 30.5077ZM97.8475 35.928C97.8475 35.928 94.8015 27.2698 94.5137 26.5263C94.5137 26.5263 86.3831 29.1646 85.3038 29.4044C85.6396 29.8121 85.9994 30.2199 86.3831 30.6036C87.4624 31.1073 92.9547 29.7402 92.9787 29.7642C93.8901 31.8508 95.8568 35.6642 95.8568 35.6642M93.9141 35.1845C93.9141 35.1845 92.6909 33.5536 91.8035 32.1386C89.4291 32.2345 88.1579 32.1865 88.1579 32.1865C88.1579 32.1865 89.3332 33.05 89.525 33.1699C90.0287 33.3378 90.5563 33.4817 91.084 33.5296C91.4438 33.9134 91.8515 34.2732 92.2832 34.6089C92.8828 34.8488 93.4344 35.0646 93.9141 35.1845ZM88.11 7.62691L87.1986 4.60493C86.6469 5.10859 86.1193 5.63624 85.6156 6.21186C85.4957 6.76349 85.3998 7.33911 85.3998 7.89074C85.3998 7.89074 83.0733 10.1213 82.114 12.3518C81.8981 13.0233 81.7062 13.6949 81.5623 14.3664C81.5863 14.3664 83.3851 10.8648 88.11 7.62691ZM91.2519 1.82278C90.5803 2.15856 89.9328 2.51832 89.3092 2.95003C89.525 3.50167 90.4844 5.44437 91.5877 8.08261C84.7522 11.4883 81.2745 15.8294 81.2266 17.7242C81.2266 18.4197 81.2505 19.0913 81.3225 19.7868V19.7628C81.4184 17.4124 86.0474 13.0473 95.545 9.32978C93.1226 3.33378 91.9234 1.70286 91.2519 1.82278ZM102.045 35.7602C101.949 32.1865 100.726 25.1592 98.639 18.4197C89.0214 21.6576 82.8095 25.2312 83.2412 26.3105C83.4811 26.7662 83.7449 27.1979 84.0087 27.6296C88.086 25.6869 92.2832 24.056 96.5763 22.7129C98.2552 27.7255 99.6463 33.7695 99.8382 36M104.155 35.3045C104.659 35.1606 105.139 34.9927 105.618 34.8248C107.609 33.8414 107.441 28.8767 106.41 22.8328C105.714 18.7075 103.963 13.2152 103.963 13.2152C105.906 12.7115 107.873 12.3278 109.863 12.064C114.348 11.4404 115.931 12.064 116.387 12.5916C116.147 11.8001 115.835 11.0326 115.5 10.3131C114.756 9.56962 112.478 8.994 108.856 9.20986C106.818 9.35376 104.803 9.68954 102.836 10.1692C102.141 8.37042 101.325 6.61959 100.414 4.91672C98.6629 1.67888 97.032 0.11992 95.521 0.383744C94.9694 0.503664 94.4178 0.647568 93.8661 0.815456C94.2979 1.27115 95.569 2.15856 97.3918 5.75616C98.2552 7.48301 98.9987 9.23384 99.6703 11.0326C99.6703 11.0326 96.4564 12.04 93.5543 13.3111C86.9348 16.2372 81.5623 20.0746 81.8022 22.7129C81.9221 23.1446 82.066 23.5763 82.2099 24.008C82.8575 21.8254 88.3258 18.7555 94.4897 16.2851C97.2239 15.1819 100.75 14.1026 100.75 14.1026C101.805 17.2925 102.668 20.5063 103.364 23.7921C103.604 24.8234 105.45 33.9134 104.155 35.3045ZM112.118 5.46835C111.518 4.96469 109.384 4.29314 106.266 4.24517C104.539 1.70286 102.692 0.383744 101.061 0.095936C100.294 0.023984 99.5264 0 98.7589 0C99.7902 0.23984 102.093 1.87075 104.731 6.78747C110.559 5.97202 113.317 6.97935 114.037 7.81879C113.485 6.97935 112.837 6.18787 112.118 5.46835ZM117.203 17.2205C117.179 16.429 117.083 15.6616 116.939 14.8701C116.795 14.7022 115.308 14.1266 107.921 15.7815C110.631 27.5816 109.312 32.3065 107.969 33.6975C108.568 33.3618 109.144 33.002 109.696 32.5943C111.135 31.2751 112.478 27.0779 111.255 18.3717C114.756 17.6522 116.771 17.4364 117.203 17.2205Z" fill="#00B262"></path></svg> 