<?xml version="1.0" encoding="UTF-8"?> <svg xmlns="http://www.w3.org/2000/svg" width="200" height="200" viewBox="0 0 72 72" fill="none"><path d="M0 0H71.7496C71.7491 23.9796 71.7506 47.959 71.7491 71.9386C47.8331 71.9401 23.9159 71.9386 0 71.9393V0ZM62.1226 52.0341C62.1194 52.1871 62.1192 52.3401 62.1218 52.4931C62.4645 52.4909 62.8089 52.4924 63.1516 52.4924C63.1539 53.4467 63.1516 54.401 63.1531 55.3563C63.3406 55.3546 63.5278 55.3546 63.7151 55.3553C63.7151 54.401 63.7143 53.4467 63.7159 52.4924C64.0595 52.4924 64.4045 52.4916 64.7479 52.4924C64.7471 52.3398 64.7471 52.1882 64.7479 52.0356C63.8728 52.0341 62.9977 52.0371 62.1226 52.0341ZM65.4026 52.0348C65.4003 53.1417 65.4003 54.2486 65.4026 55.3555H65.963C65.9668 54.4484 65.957 53.5422 65.9687 52.6353C66.3442 53.5341 66.6833 54.4476 67.0417 55.3533C67.1617 55.354 67.2824 55.354 67.4045 55.354C67.7657 54.4448 68.1101 53.5288 68.481 52.6241C68.4877 53.5341 68.4826 54.4448 68.4848 55.3553C68.6706 55.3546 68.8571 55.3546 69.0436 55.3569C69.0504 54.25 69.0443 53.1431 69.0466 52.0363C68.7623 52.0341 68.478 52.0348 68.1945 52.0363C67.8783 52.8678 67.5555 53.6971 67.2348 54.5269C66.912 53.6956 66.5834 52.8663 66.2606 52.0348C65.974 52.0356 65.6874 52.0348 65.4026 52.0348ZM8.51651 55.5746C7.12019 55.6309 5.71419 56.264 4.88288 57.415C4.16756 58.3798 3.88174 59.6061 3.8878 60.7928C3.8662 61.9101 4.09137 63.0606 4.68803 64.018C5.17155 64.8013 5.91188 65.4158 6.76347 65.7608C7.78963 66.1778 8.94013 66.2524 10.0211 66.0296C11.0237 65.823 11.9727 65.2974 12.6257 64.5C13.2152 63.7943 13.5563 62.9073 13.6956 62.0041C13.8459 60.9551 13.806 59.8652 13.4964 58.8478C13.2063 57.8944 12.6175 57.0257 11.7995 56.452C10.8526 55.7797 9.66416 55.5132 8.5167 55.5744M18.0734 56.9911C18.0749 56.6033 18.0749 56.2156 18.0734 55.8279C17.2375 55.8279 16.4017 55.8233 15.5658 55.8307C15.5702 59.1743 15.5666 62.518 15.5681 65.8614C16.4638 65.8652 17.3598 65.8614 18.2557 65.8637C18.2601 63.6442 18.2504 61.4236 18.2609 59.2047C18.3704 58.8783 18.6695 58.6419 18.9678 58.4873C19.6526 58.1615 20.4286 58.1334 21.1727 58.1268C21.1727 57.2975 21.172 56.4683 21.1735 55.6398C20.0008 55.5303 18.8285 56.1106 18.0734 56.9911ZM24.6511 55.9114C23.7389 56.2033 22.9252 56.7955 22.3759 57.5832C22.969 57.9306 23.5679 58.2682 24.1653 58.6072C24.6748 57.9749 25.4277 57.5388 26.2421 57.4744C26.8247 57.4241 27.523 57.4537 27.939 57.9268C28.2338 58.2651 28.1479 58.7382 28.1589 59.1493C26.7908 59.3104 25.41 59.5356 24.135 60.0784C23.4153 60.3908 22.7135 60.8387 22.2885 61.5184C21.8139 62.2811 21.7658 63.256 22.0302 64.1008C22.2448 64.7976 22.7616 65.3929 23.4265 65.691C24.1885 66.0459 25.0598 66.0265 25.8719 65.8971C26.682 65.7615 27.4578 65.4454 28.1441 64.9945C28.2205 65.2839 28.2967 65.5726 28.3737 65.863C29.1578 65.8622 29.9419 65.863 30.7258 65.863C30.697 63.5441 30.7156 61.2238 30.7126 58.905C30.7592 58.2215 30.6305 57.4981 30.2017 56.948C29.6441 56.2039 28.7209 55.8516 27.8318 55.7094C26.7745 55.5576 25.6743 55.5843 24.6511 55.9114ZM37.7387 55.6961C36.7992 55.89 35.9768 56.4186 35.2097 56.9725C35.1326 56.5801 35.0439 56.1891 34.9743 55.796C34.2419 55.8959 33.5092 55.9973 32.7768 56.1002C32.7753 59.3499 32.7768 62.5985 32.7768 65.8474C33.6525 65.8482 34.5278 65.8474 35.4044 65.8474V58.6635C36.0249 58.1467 36.7349 57.6759 37.5537 57.5737C37.9662 57.5278 38.4503 57.5521 38.7509 57.8789C39.0479 58.2259 39.0953 58.7079 39.1091 59.1469C39.1108 61.3808 39.11 63.6137 39.11 65.8474C39.991 65.8489 40.8722 65.8474 41.7531 65.8474V58.7198C41.7429 58.243 41.6777 57.7625 41.5134 57.3138C41.2992 56.7103 40.8557 56.1884 40.2702 55.9234C39.4832 55.5657 38.5769 55.5367 37.7389 55.6959M44.6059 57.1561C43.8003 58.2467 43.5183 59.6408 43.5441 60.9765C43.5555 62.1952 43.8256 63.4708 44.5979 64.4422C45.2101 65.2322 46.1645 65.7193 47.1506 65.823C47.8703 65.8918 48.6394 65.8614 49.2829 65.4951C49.7302 65.2454 50.0449 64.8264 50.3091 64.3976C50.3299 64.8197 50.315 65.2426 50.3195 65.6645C50.3024 66.2236 50.2209 66.8321 49.8345 67.2661C49.4819 67.6577 48.9327 67.7961 48.4234 67.7976C47.8879 67.8051 47.3098 67.7866 46.8464 67.4852C46.6152 67.3364 46.4969 67.0758 46.4287 66.8195C45.5594 66.9594 44.691 67.1001 43.8218 67.2401C43.9795 68.0515 44.5452 68.7401 45.2611 69.1296C46.3792 69.7513 47.708 69.8203 48.9548 69.7003C50.0358 69.5923 51.1775 69.2843 51.9482 68.4706C52.6391 67.7405 52.8551 66.7011 52.8709 65.7253V55.7973C52.1252 55.8019 51.3796 55.7864 50.6349 55.8057C50.5771 56.1751 50.5045 56.543 50.4401 56.9126C50.2092 56.4334 49.759 56.101 49.2763 55.9056C48.6417 55.6457 47.9419 55.5843 47.2615 55.6235C46.2044 55.7035 45.224 56.3025 44.6059 57.1561ZM55.5976 57.0805C54.872 57.9446 54.5485 59.0765 54.4679 60.1865C54.3902 61.3976 54.5034 62.6609 55.0564 63.7589C55.485 64.6146 56.221 65.3158 57.1118 65.6698C58.2557 66.131 59.5394 66.1266 60.7314 65.8741C61.8982 65.6186 62.9964 64.9175 63.59 63.8603C62.942 63.5038 62.2954 63.1447 61.6503 62.783C61.3607 63.1984 61.0083 63.587 60.5515 63.8173C60.0369 64.0794 59.4365 64.1128 58.8745 64.0314C58.3305 63.952 57.8157 63.6524 57.5189 63.1835C57.1523 62.6074 57.0517 61.9041 57.0473 61.2325C59.2596 61.2341 61.4725 61.2325 63.6863 61.2333C63.7612 60.35 63.6768 59.4497 63.4228 58.6006C63.1437 57.6795 62.5765 56.8265 61.7576 56.3061C60.7536 55.6559 59.4994 55.5155 58.3341 55.6523C57.2909 55.7782 56.2719 56.2594 55.5976 57.0805Z" fill="#FF6600"></path><path d="M57.6611 57.9946C57.9809 57.6325 58.4577 57.4377 58.9339 57.4089C59.5409 57.3636 60.2036 57.534 60.6181 58.0056C60.9847 58.4134 61.1067 58.9779 61.1209 59.513C59.7764 59.5122 58.4318 59.5145 57.0872 59.5114C57.1308 58.968 57.2894 58.4078 57.6611 57.9946ZM47.8281 57.5228C48.4469 57.4089 49.1207 57.6081 49.5591 58.0662C50.0743 58.5935 50.2839 59.3435 50.3283 60.0639C50.3491 60.5918 50.3267 61.1235 50.2432 61.6453C50.1492 62.1955 49.964 62.758 49.5673 63.1646C49.2058 63.5325 48.6802 63.7006 48.173 63.6881C47.7007 63.7029 47.2032 63.5526 46.8758 63.1964C46.4361 62.7425 46.2902 62.0954 46.2193 61.4868C46.1615 60.867 46.1444 60.24 46.2259 59.6218C46.3029 59.0783 46.471 58.5262 46.8338 58.1026C47.0884 57.8005 47.4397 57.5957 47.8281 57.5228ZM8.40852 57.8412C9.04972 57.7457 9.76713 57.8517 10.2692 58.2921C10.7408 58.6985 10.9703 59.3124 11.0732 59.9121C11.182 60.5865 11.1775 61.281 11.0467 61.9512C10.9265 62.5397 10.6646 63.1335 10.176 63.5044C9.63085 63.91 8.90018 63.9826 8.25025 63.8486C7.71936 63.7406 7.2476 63.3949 6.97656 62.9256C6.58573 62.2457 6.49987 61.4387 6.51598 60.6672C6.54138 59.9743 6.66344 59.2533 7.05806 58.6682C7.36397 58.2137 7.86739 57.9123 8.40852 57.8412ZM25.7247 61.3064C26.474 60.9961 27.2816 60.8583 28.082 60.7567C28.085 61.5387 28.0805 62.3213 28.0843 63.1039C27.415 63.705 26.5613 64.1775 25.6411 64.1604C25.3322 64.1686 25.0265 64.0367 24.8163 63.8124C24.4156 63.3615 24.358 62.6477 24.668 62.1326C24.8993 61.7334 25.313 61.4855 25.7247 61.3062V61.3064Z" fill="#FF6600"></path><path d="M71.7496 0H71.8105V72H0V71.9393C23.9159 71.9386 47.8331 71.9401 71.7491 71.9386C71.7506 47.959 71.7491 23.9796 71.7498 0L71.7496 0Z" fill="#FDD9BD"></path><path d="M62.1224 52.0342C62.9975 52.0372 63.8726 52.0342 64.7477 52.0357C64.747 52.1883 64.747 52.3401 64.7477 52.4925C64.4043 52.4917 64.0593 52.4925 63.7157 52.4925C63.7142 53.447 63.7149 54.4011 63.7149 55.3556C63.5277 55.3549 63.3402 55.3549 63.153 55.3564C63.1514 54.4011 63.1537 53.447 63.1514 52.4925C62.8088 52.4925 62.4644 52.4912 62.1217 52.4934C62.119 52.3404 62.1192 52.1874 62.1224 52.0344V52.0342ZM65.4024 52.0349C65.6873 52.0349 65.9739 52.0357 66.2604 52.0349C66.5832 52.8664 66.9119 53.6957 67.2347 54.5272C67.5554 53.697 67.8781 52.868 68.1943 52.0365C68.4778 52.0349 68.7621 52.0342 69.0465 52.0365C69.0442 53.1434 69.0502 54.2503 69.0434 55.3572C68.8571 55.3552 68.6708 55.3547 68.4845 55.3556C68.4824 54.4449 68.4875 53.5342 68.4807 52.6244C68.1099 53.5291 67.7656 54.4449 67.4043 55.3541C67.2822 55.3541 67.1615 55.3541 67.0415 55.3534C66.6833 54.4478 66.344 53.5342 65.9687 52.6354C65.9568 53.5423 65.9665 54.4485 65.9629 55.3555H65.4024C65.4001 54.2485 65.4001 53.1416 65.4024 52.0347V52.0349ZM8.51654 55.5746C9.664 55.5133 10.8524 55.7798 11.7993 56.4521C12.6174 57.0259 13.2061 57.8945 13.4963 58.8479C13.8058 59.8653 13.8458 60.9552 13.6953 62.0043C13.5562 62.9074 13.215 63.7944 12.6255 64.5001C11.9726 65.2975 11.0234 65.8231 10.0209 66.0297C8.93996 66.2526 7.78947 66.1777 6.76331 65.7609C5.91172 65.4159 5.17138 64.8015 4.68787 64.0181C4.0912 63.0607 3.86603 61.9102 3.88764 60.7929C3.88157 59.606 4.1674 58.3801 4.88271 57.4154C5.71403 56.2641 7.12002 55.631 8.51654 55.5747M8.4085 57.8411C7.86718 57.9121 7.36377 58.2135 7.05785 58.668C6.66323 59.2529 6.54117 59.9739 6.51577 60.6671C6.49966 61.4385 6.58552 62.2455 6.97635 62.9252C7.24739 63.3947 7.71915 63.7404 8.25005 63.8485C8.89997 63.9825 9.63083 63.9099 10.1758 63.5043C10.6644 63.1333 10.9263 62.5395 11.0463 61.951C11.1775 61.2808 11.1818 60.5863 11.0728 59.9119C10.9701 59.3122 10.7406 58.6983 10.269 58.292C9.76692 57.8515 9.04971 57.7455 8.4085 57.8411ZM18.0732 56.9912C18.8285 56.1108 20.0005 55.5304 21.1733 55.6398C21.1718 56.4684 21.1726 57.2976 21.1726 58.1269C20.4284 58.1335 19.6525 58.1616 18.9677 58.4874C18.6693 58.6422 18.3702 58.8784 18.2607 59.2048C18.2503 61.4237 18.2599 63.6441 18.2554 65.8638C17.3596 65.8615 16.4637 65.8653 15.5677 65.8615C15.5664 62.5181 15.57 59.1746 15.5656 55.831C16.4015 55.8234 17.2374 55.828 18.0732 55.828C18.0748 56.2152 18.0748 56.6032 18.0732 56.9912ZM24.651 55.9116C25.6741 55.5844 26.7744 55.5577 27.8314 55.7095C28.7207 55.8517 29.644 56.2042 30.2016 56.9481C30.6301 57.4982 30.759 58.2216 30.7124 58.9049C30.7154 61.2239 30.6968 63.5443 30.7257 65.8631C29.9417 65.8631 29.1576 65.8623 28.3735 65.8631C28.2965 65.5729 28.2203 65.284 28.1441 64.9946C27.4576 65.4457 26.6817 65.7617 25.8718 65.8972C25.0596 66.0266 24.1881 66.046 23.4264 65.6913C22.7615 65.393 22.2446 64.7977 22.0298 64.1011C21.7656 63.2562 21.8138 62.2812 22.2884 61.5185C22.7133 60.8388 23.4152 60.3909 24.1348 60.0786C25.4097 59.5357 26.7907 59.3107 28.1587 59.1492C28.1477 58.7383 28.2336 58.2652 27.9389 57.9269C27.5228 57.4538 26.8246 57.4243 26.2419 57.4745C25.4275 57.5389 24.6745 57.9751 24.1652 58.6074C23.5678 58.2681 22.9688 57.9307 22.3757 57.5835C22.925 56.7956 23.7387 56.2033 24.651 55.9118M25.7245 61.306C25.3128 61.4853 24.8989 61.7332 24.6678 62.1324C24.3577 62.6475 24.4154 63.3614 24.816 63.8123C25.0264 64.0365 25.332 64.1684 25.6407 64.1603C26.5611 64.1773 27.4148 63.7048 28.0839 63.1038C28.0803 62.321 28.0848 61.5386 28.082 60.7567C27.2816 60.8581 26.4738 60.9957 25.7245 61.306ZM37.7388 55.6962C38.5767 55.537 39.4829 55.5658 40.27 55.9235C40.8557 56.1885 41.2992 56.7105 41.513 57.3139C41.6775 57.7626 41.7426 58.2431 41.753 58.7199V65.8475C40.872 65.8475 39.9908 65.849 39.1099 65.8475C39.1099 63.6138 39.1106 61.3809 39.1091 59.1472C39.0951 58.708 39.0477 58.226 38.7509 57.8788C38.4501 57.5524 37.966 57.5279 37.5536 57.5736C36.7348 57.676 36.0246 58.1468 35.4042 58.6635V65.8475C34.5276 65.8475 33.6525 65.8483 32.7766 65.8475C32.7766 62.5988 32.7751 59.35 32.7766 56.1003C33.5088 55.9974 34.2418 55.896 34.974 55.7961C35.0437 56.1892 35.1324 56.5802 35.2096 56.9726C35.9764 56.4188 36.799 55.8901 37.7386 55.6962H37.7388ZM44.6057 57.1563C45.224 56.3026 46.2041 55.7036 47.2615 55.6236C47.942 55.5844 48.6414 55.6458 49.2759 55.9057C49.7587 56.1011 50.2088 56.4335 50.4399 56.9127C50.5043 56.5431 50.5769 56.1752 50.6345 55.8058C51.3794 55.7865 52.1251 55.802 52.8705 55.7976V65.7255C52.855 66.7012 52.6389 67.7406 51.948 68.4707C51.1774 69.2844 50.0356 69.5924 48.9547 69.7005C47.7079 69.8204 46.3788 69.7516 45.2609 69.1297C44.5451 68.7402 43.9793 68.0517 43.8216 67.2401C44.6908 67.1002 45.5593 66.9595 46.4285 66.8197C46.4967 67.0759 46.615 67.3365 46.8461 67.4853C47.3095 67.7867 47.8878 67.8051 48.423 67.7977C48.9325 67.7962 49.4818 67.6578 49.8343 67.266C50.2208 66.8322 50.3023 66.2236 50.3192 65.6646C50.3148 65.2427 50.3296 64.8198 50.3089 64.3979C50.0445 64.8265 49.7299 65.2455 49.2828 65.4952C48.6393 65.8615 47.8699 65.8919 47.1505 65.8231C46.1641 65.7194 45.2098 65.2323 44.5974 64.4423C43.8254 63.4709 43.5549 62.1953 43.5439 60.9766C43.5182 59.6409 43.8002 58.2469 44.6057 57.1563ZM47.8279 57.5226C47.4395 57.5955 47.0882 57.8003 46.8335 58.1024C46.4708 58.5259 46.3027 59.0782 46.2257 59.6216C46.1442 60.2399 46.1613 60.8668 46.2189 61.4866C46.29 62.0952 46.4359 62.7423 46.8756 63.1963C47.203 63.5524 47.7005 63.7027 48.1728 63.6879C48.68 63.7004 49.2058 63.5325 49.5671 63.1644C49.9638 62.7579 50.1489 62.1953 50.243 61.6451C50.3265 61.1231 50.3489 60.5916 50.3283 60.0636C50.2837 59.3433 50.0743 58.5933 49.5587 58.066C49.1205 57.6077 48.4467 57.4087 47.8279 57.5226ZM55.5974 57.0806C56.272 56.2596 57.2907 55.7785 58.334 55.6525C59.4992 55.5154 60.7534 55.6563 61.7574 56.3064C62.5762 56.8267 63.1435 57.6796 63.4225 58.6007C63.6765 59.4499 63.7608 60.3502 63.6859 61.2334C61.4723 61.2327 59.2593 61.2342 57.047 61.2327C57.0515 61.9042 57.1522 62.6076 57.5187 63.1836C57.8156 63.6523 58.3302 63.9521 58.8743 64.0314C59.4363 64.1129 60.0368 64.0795 60.5514 63.8174C61.0081 63.5871 61.3607 63.1985 61.6501 62.7831C62.2952 63.1448 62.9418 63.5039 63.5898 63.8604C62.996 64.9176 61.898 65.6187 60.7312 65.8742C59.539 66.1267 58.2553 66.1311 57.1114 65.6699C56.2208 65.3159 55.4848 64.6148 55.0563 63.759C54.5032 62.661 54.3899 61.3977 54.4676 60.1866C54.5483 59.0767 54.8719 57.9447 55.5974 57.0806ZM57.6609 57.9942C57.2892 58.4074 57.1308 58.9679 57.087 59.5113C58.4316 59.5143 59.7761 59.512 61.1207 59.5128C61.1065 58.9775 60.9843 58.4135 60.6179 58.0054C60.2034 57.5338 59.5407 57.3636 58.9337 57.4087C58.4575 57.4375 57.9807 57.6322 57.6609 57.9942Z" fill="white"></path></svg> 