<?xml version="1.0" encoding="UTF-8"?> <svg xmlns="http://www.w3.org/2000/svg" width="96" height="24" viewBox="0 0 96 24" fill="none"><g clip-path="url(#clip0_12981_15113)"><path d="M37.598 16.56C34.9379 16.56 33.3229 14.472 33.3229 12C33.3229 9.528 34.9379 7.44 37.598 7.44C40.2581 7.44 41.8732 9.528 41.8732 12C41.8732 14.472 40.2581 16.56 37.598 16.56ZM37.598 4.56C33.6554 4.512 30.4015 7.704 30.354 11.688C30.354 11.784 30.354 11.904 30.354 12C30.2353 16.032 33.3704 19.416 37.3605 19.56C41.3507 19.704 44.6995 16.512 44.842 12.48C44.842 12.312 44.842 12.168 44.842 12C44.937 8.016 41.8257 4.704 37.883 4.608C37.788 4.608 37.693 4.608 37.6218 4.608V4.56H37.598ZM15.391 20.712L7.5295 6.744V3.432H7.64825L17.4098 20.712H15.391ZM37.6455 21.144C32.7529 21.24 28.7152 17.328 28.6202 12.384C28.6202 12.264 28.6202 12.12 28.6202 12C28.4777 6.984 32.3966 2.808 37.3605 2.664C42.3244 2.52 46.4571 6.48 46.5996 11.496C46.5996 11.664 46.5996 11.856 46.5996 12.024C46.7183 16.968 42.8232 21.048 37.9305 21.168C37.8118 21.168 37.7168 21.168 37.598 21.168H37.6455V21.144ZM84.7196 3.336L92.3911 23.424H95.4788L86.7385 0.576H77.6894L68.9491 23.424H72.0604L79.7557 3.288H81.5845L73.8893 23.424H77.0006L78.3544 19.872H84.3396L83.2471 17.064H79.3995L82.1783 9.816H82.2733L87.4272 23.424H90.5623L83.7934 5.64L84.6721 3.336H84.7196ZM64.0802 15.744L69.8279 0.576H66.7165L62.4651 11.76L63.9377 15.696L64.0802 15.744ZM71.7042 0.576L64.0327 20.664H63.9139L56.2662 0.576H53.1548L60.8501 20.712H58.9975L51.326 0.576H48.2621L56.9549 23.424H66.0752L74.8155 0.576H71.7042ZM19.0011 14.016V0.576H16.151V9L18.9299 13.992L19.0011 14.016ZM20.7824 20.664H20.6637L9.42956 0.576H4.6319V23.424H7.50574V12.576H7.55325L13.5622 23.424H23.7513V0.576H20.7824V20.664ZM0.000488281 23.424H2.96934V0.576H0.000488281V23.424ZM37.598 0C30.6628 0 25.5326 5.208 25.5326 12C25.5326 18.792 30.6865 24 37.598 24C44.5095 24 49.6634 18.792 49.6634 12C49.6634 5.208 44.5333 0 37.598 0Z" fill="#212121"></path></g><defs><clipPath id="clip0_12981_15113"><rect width="95.4783" height="24" fill="white"></rect></clipPath></defs></svg> 