<?xml version="1.0" encoding="UTF-8"?> <svg xmlns="http://www.w3.org/2000/svg" id="Warstwa_1" data-name="Warstwa 1" viewBox="0 0 100 100"><defs><style> .cls-1 { fill: none; stroke: #fc6623; stroke-linejoin: round; stroke-width: 3px; } </style></defs><g><polyline class="cls-1" points="56.37 19.75 54.55 8.67 42.75 8.67 42.02 13.61"></polyline><path class="cls-1" d="m21.77,34.12c-1.48,2.5-2.61,5.21-3.35,8.1l-11.09,1.88v11.79l11.09,1.89c.74,2.91,1.89,5.64,3.39,8.15l-6.55,9.12,8.34,8.34,9.12-6.54c2.51,1.49,5.25,2.64,8.15,3.38l1.89,11.1h11.79l1.89-11.09"></path><path class="cls-1" d="m40.93,19.75c-2.9.74-5.64,1.88-8.16,3.37l-9.18-6.51-8.34,8.33,2.81,3.92"></path></g><g><path class="cls-1" d="m87.04,55.31c-2.93,0-4.98-2.38-4.98-5.31s2.38-5.31,5.31-5.31,5.31,2.38,5.31,5.31-2.7,5.31-5.64,5.31Z"></path><line class="cls-1" x1="81.49" y1="50" x2="49.13" y2="50"></line></g><g><path class="cls-1" d="m68.8,25.17c-2.93,0-5.31-2.38-5.31-5.31s2.38-5.31,5.31-5.31,5.31,2.38,5.31,5.31c0,2.93-2.38,5.31-5.31,5.31Z"></path><path class="cls-1" d="m68.8,74.83c-2.93,0-5.31,2.38-5.31,5.31s2.38,5.31,5.31,5.31,5.31-2.38,5.31-5.31c0-2.93-2.38-5.31-5.31-5.31Z"></path><path class="cls-1" d="m35.63,33.83c3.56-2.87,8.09-4.59,13.02-4.59h9.56l7.08-5.47"></path><path class="cls-1" d="m65.29,76.23l-7.08-5.49h-9.56c-11.46,0-20.75-9.29-20.75-20.75,0-3.91,1.08-7.57,2.97-10.7"></path></g><g><path class="cls-1" d="m80.23,38.59c-2.93,0-5.31-2.38-5.31-5.31s2.38-5.31,5.31-5.31,5.31,2.38,5.31,5.31c0,2.93-2.38,5.31-5.31,5.31Z"></path><path class="cls-1" d="m80.23,61.41c-2.93,0-5.31,2.38-5.31,5.31s2.38,5.31,5.31,5.31,5.31-2.38,5.31-5.31c0-2.93-2.38-5.31-5.31-5.31Z"></path><path class="cls-1" d="m74.77,64.62l-9.29-4.23h-16.83c-5.75,0-10.41-4.66-10.41-10.41s4.66-10.37,10.41-10.37h16.83l9.29-4.23"></path></g></svg> 