<?xml version="1.0" encoding="UTF-8"?> <svg xmlns="http://www.w3.org/2000/svg" id="Warstwa_1" data-name="Warstwa 1" viewBox="0 0 100 100"><defs><style> .cls-1 { fill: none; stroke: #fc6623; stroke-linejoin: round; stroke-width: 3px; } </style></defs><g><line class="cls-1" x1="46.05" y1="68.12" x2="46.05" y2="59.4"></line><line class="cls-1" x1="53.95" y1="68.12" x2="53.95" y2="59.4"></line></g><line class="cls-1" x1="26.06" y1="94.93" x2="73.94" y2="94.93"></line><polyline class="cls-1" points="67.59 94.49 67.59 74.56 32.41 74.56 32.41 89.65"></polyline><g><path class="cls-1" d="m50,5.07c-15.44,0-27.95,12.52-27.95,27.95s12.52,27.95,27.95,27.95,27.96-12.52,27.96-27.95-12.52-27.95-27.96-27.95h0Z"></path><g><polyline class="cls-1" points="50 21.66 50 14.67 40.55 7.59"></polyline><polyline class="cls-1" points="39.09 29.58 32.68 26.91 29.8 15.4"></polyline><line class="cls-1" x1="32.68" y1="26.91" x2="23.45" y2="34.13"></line><polyline class="cls-1" points="43.26 42.4 39.33 47.36 27.59 47.13"></polyline><line class="cls-1" x1="39.33" y1="47.36" x2="43.16" y2="58.89"></line><line class="cls-1" x1="50" y1="14.67" x2="59.45" y2="7.59"></line><polyline class="cls-1" points="60.9 29.58 67.22 27.07 70.2 15.4"></polyline><line class="cls-1" x1="67.22" y1="27.07" x2="76.55" y2="34.13"></line><polyline class="cls-1" points="56.74 42.4 60.57 47.83 72.41 47.13"></polyline><line class="cls-1" x1="60.57" y1="47.83" x2="56.84" y2="58.89"></line><polygon class="cls-1" points="43.26 42.4 39.09 29.58 50 21.66 60.9 29.58 56.74 42.4 43.26 42.4"></polygon></g></g><polyline class="cls-1" points="37.96 68.22 62.04 68.22 62.04 74.56"></polyline></svg> 