<?xml version="1.0" encoding="UTF-8"?> <svg xmlns="http://www.w3.org/2000/svg" width="141" height="24" viewBox="0 0 141 24" fill="none"><path d="M126.03 15.1688C126.03 9.84253 128.102 6.40421 133.247 6.40421C138.392 6.40421 140.463 9.57305 140.463 14.832V16.7192H129.438C129.705 19.0787 130.641 20.9667 134.516 20.9667C138.392 20.9667 137.19 20.9667 139.328 20.3596V23.3255C136.721 24 135.786 24 134.516 24C126.966 24 126.03 18.5389 126.03 15.2362V15.1688ZM110.462 21.7752V18.4051C113.536 20.2922 115.073 20.9667 117.545 20.9667C120.017 20.9667 120.484 20.0227 120.484 18.944C120.484 17.8644 119.616 17.1234 116.542 16.4497C111.732 15.3709 110.462 13.8206 110.462 11.1234C110.462 8.42695 112.868 6.40421 116.409 6.40421C119.95 6.40421 120.885 7.01137 122.489 8.15747V11.1907C120.017 9.97726 117.879 9.43832 116.075 9.43832C114.27 9.43832 113.803 10.1802 113.803 10.9886C113.803 11.7979 114.204 12.6072 117.077 13.3482C122.022 14.6964 123.826 15.7752 123.826 18.8758C123.826 21.9781 121.421 23.9326 117.545 23.9326C113.669 23.9326 112.867 23.3937 110.462 21.7752ZM39.4309 15.1688C39.4309 9.84253 42.0364 6.40421 46.9147 6.40421C51.793 6.40421 53.8646 9.16884 53.8646 13.1461H50.5231C50.3892 11.0568 49.7214 9.43832 47.0477 9.43832C44.3757 9.43832 42.705 10.7865 42.705 15.1688C42.705 19.5503 43.9075 20.8985 47.0477 20.8985C50.1888 20.8985 50.3892 19.2808 50.5231 17.1916H53.8646C53.8646 21.2362 51.2582 23.9326 46.9147 23.9326C42.5711 23.9326 39.4309 20.4269 39.4309 15.1688ZM89.8132 15.1688C89.8132 20.1575 87.8755 23.9326 82.4625 23.9326C77.0502 23.9326 78.4532 23.056 77.4511 21.5731V23.5958H74.1105V0H77.4511V8.76379C78.4532 7.28168 80.1239 6.40421 82.4625 6.40421C87.8755 6.40421 89.8132 10.2476 89.8132 15.1688ZM21.9235 17.9663C21.9387 15.0779 23.8772 12.0674 27.9378 12.0674C32.0136 12.0674 31.6128 12.7411 32.6149 14.0893V9.70779H23.9286V6.67453H35.9564V20.1575H37.9606V23.5276H32.6149V21.8434C31.6128 23.1907 30.2764 23.8644 27.9378 23.8644C23.8772 23.8644 21.9387 20.9213 21.9235 17.9663ZM92.0187 17.9663C92.033 15.0779 93.9715 12.0674 98.0321 12.0674C102.108 12.0674 101.707 12.7411 102.709 14.0893V9.70779H94.0229V6.67453H106.051V20.1575H108.056V23.5276H102.709V21.8434C101.707 23.1907 100.371 23.8644 98.0321 23.8644C93.9715 23.8644 92.033 20.9213 92.0187 17.9663ZM60.3454 13.6851H62.9517L67.6288 6.74105H71.7046L65.9589 15.2362L71.7046 23.6623H67.6288L62.9517 16.7865H60.3454V23.5958H57.0039V0H60.3454V13.6851ZM14.5728 11.6632V11.0568C17.9142 10.5844 18.7825 8.56168 18.7825 6.33684C18.7825 4.112 16.8448 0.607158 12.1004 0.607158H9.42751V3.64042H12.1004C14.6393 3.64042 15.441 4.44968 15.441 6.60716C15.441 8.76379 14.6393 9.90989 12.1004 9.90989H3.74835V23.5958H12.1004C17.5791 23.5958 19.4503 20.4269 19.4503 17.1916C19.4503 13.9554 18.449 12.1347 14.5728 11.6632ZM32.5475 18C32.5475 16.3141 31.345 15.1688 28.8726 15.1688C26.4001 15.1688 25.1985 16.3823 25.1985 18C25.1985 19.6185 26.4001 20.8985 28.8726 20.8985C31.345 20.8985 32.5475 19.6851 32.5475 18ZM102.643 18C102.643 16.3141 101.44 15.1688 98.9669 15.1688C96.4953 15.1688 95.2919 16.3823 95.2919 18C95.2919 19.6185 96.4953 20.8985 98.9669 20.8985C101.44 20.8985 102.643 19.6851 102.643 18ZM86.4717 15.1688C86.4717 11.1234 85.2692 9.43832 81.9951 9.43832C78.721 9.43832 77.5185 11.1234 77.5185 15.1688C77.5185 19.2135 78.721 20.8985 81.9951 20.8985C85.2692 20.8985 86.4717 19.2135 86.4717 15.1688ZM12.1677 20.5617H7.15551V12.944H12.1677C15.174 12.944 16.177 13.7524 16.177 16.9213C16.177 20.0893 15.174 20.5617 12.1677 20.5617ZM21.9235 17.9663V18V17.9326V17.9663ZM92.0187 17.9663L92.0178 18V17.9326L92.0187 17.9663ZM137.123 13.6851C137.056 10.7192 135.92 9.50568 133.247 9.50568C130.574 9.50568 129.505 10.9886 129.372 13.6851H137.123ZM0.673828 0.674526V3.84337H3.81404V7.21347H7.08899V0.674526H0.673828Z" fill="#091C35"></path></svg> 