<?xml version="1.0" standalone="no"?>
<!DOCTYPE svg PUBLIC "-//W3C//DTD SVG 20010904//EN"
 "http://www.w3.org/TR/2001/REC-SVG-20010904/DTD/svg10.dtd">
<svg version="1.0" xmlns="http://www.w3.org/2000/svg"
 width="299.000000pt" height="168.000000pt" viewBox="0 0 299.000000 168.000000"
 preserveAspectRatio="xMidYMid meet">

<g transform="translate(0.000000,168.000000) scale(0.100000,-0.100000)"
fill="#000000" stroke="none">
<path d="M0 840 l0 -840 1495 0 1495 0 0 840 0 840 -1495 0 -1495 0 0 -840z
m128 723 c3 -20 -1 -23 -27 -23 -27 0 -31 4 -31 26 0 22 4 25 28 22 19 -2 28
-9 30 -25z m82 2 c0 -20 -5 -25 -25 -25 -20 0 -25 5 -25 25 0 20 5 25 25 25
20 0 25 -5 25 -25z m90 0 c0 -21 -5 -25 -30 -25 -25 0 -30 4 -30 25 0 21 5 25
30 25 25 0 30 -4 30 -25z m90 16 c0 -25 -14 -41 -36 -41 -19 0 -24 5 -24 25 0
21 5 25 30 25 17 0 30 -4 30 -9z m1429 -9 c7 -13 6 -19 -2 -19 -7 0 -13 9 -13
19 0 10 1 18 3 18 1 0 7 -8 12 -18z m81 -2 c6 -11 8 -20 6 -20 -3 0 -10 9 -16
20 -6 11 -8 20 -6 20 3 0 10 -9 16 -20z m-382 -373 c4 -35 35 -36 51 -1 14 32
35 26 39 -12 5 -44 18 -51 46 -25 32 30 48 19 40 -25 -7 -38 9 -45 46 -22 30
19 50 -4 27 -30 -26 -28 -12 -55 24 -47 43 10 54 -3 28 -31 -28 -30 -19 -54
21 -54 37 0 40 -22 4 -39 -33 -15 -28 -45 9 -49 38 -5 38 -39 0 -44 -37 -4
-42 -34 -9 -49 43 -20 33 -45 -17 -40 -28 3 -32 -27 -8 -53 27 -28 15 -41 -29
-31 -38 8 -51 -16 -24 -46 14 -15 15 -22 6 -31 -10 -10 -17 -10 -32 0 -38 23
-53 16 -47 -23 7 -44 -8 -53 -39 -24 -28 26 -41 19 -46 -25 -4 -38 -21 -43
-38 -11 -19 35 -46 32 -53 -5 -8 -40 -36 -40 -43 0 -8 38 -36 40 -53 4 -14
-32 -35 -26 -39 12 -5 44 -18 51 -46 25 -32 -30 -48 -19 -40 25 7 38 -9 45
-46 22 -31 -20 -46 3 -24 36 22 35 7 55 -30 39 -36 -17 -52 4 -25 33 28 30 19
56 -18 52 -38 -4 -44 28 -9 42 14 5 26 14 26 19 0 12 -22 28 -45 33 -11 2 -20
10 -20 18 0 8 9 16 20 18 23 5 45 21 45 33 0 5 -12 14 -26 19 -36 14 -29 45
10 45 37 0 44 20 17 49 -26 27 -11 49 24 36 12 -4 28 -5 35 0 11 7 10 13 -4
35 -22 34 -7 57 24 37 39 -24 52 -16 45 28 -6 33 -4 40 9 40 9 0 25 -9 37 -21
24 -24 36 -17 41 25 4 38 25 44 39 12 17 -36 45 -34 53 5 8 39 39 37 44 -4z
m-967 -205 c0 -4 2 -16 5 -27 2 -11 -1 -32 -7 -46 -15 -37 -45 -48 -109 -40
-21 2 -59 101 -39 101 6 0 8 3 6 8 -2 4 4 15 15 25 10 9 18 15 18 12 0 -4 8
-2 17 4 12 6 28 4 55 -10 21 -11 38 -23 39 -27z m249 -94 c0 -5 4 -7 9 -3 9 5
22 -20 20 -39 0 -5 5 -13 13 -17 7 -5 8 -9 2 -9 -6 0 -11 -6 -11 -12 0 -7 -4
-22 -8 -33 -6 -17 -5 -18 7 -5 17 20 67 19 97 0 34 -23 36 -76 4 -106 -14 -13
-29 -21 -34 -18 -5 3 -9 0 -9 -6 0 -7 -17 -2 -40 11 -21 12 -37 26 -34 31 3 4
1 8 -5 8 -5 0 -7 10 -5 23 7 27 7 39 4 52 -2 6 0 23 5 38 17 61 -40 106 -91
72 -55 -36 -13 -127 51 -111 14 4 25 2 25 -4 0 -5 -19 -10 -43 -10 -45 0 -76
22 -71 52 1 11 -3 15 -12 11 -8 -3 -12 -8 -10 -12 2 -3 -2 -17 -10 -31 -7 -14
-14 -20 -14 -15 0 6 -4 5 -8 -2 -4 -6 -22 -13 -40 -16 -25 -4 -39 0 -59 19
-14 13 -23 24 -19 24 4 0 2 9 -4 20 -6 12 -7 20 -1 20 5 0 8 8 7 18 -4 21 44
52 81 52 27 0 77 -45 68 -61 -3 -5 1 -6 8 -3 8 3 14 13 13 22 -3 19 9 33 43
48 27 12 71 7 71 -8z m-7 -50 c8 -12 7 -21 -2 -32 -19 -23 -58 -20 -66 4 -14
43 44 67 68 28z m-613 -381 c0 -5 5 -5 10 -2 6 3 10 1 10 -4 0 -6 7 -11 16
-11 8 0 12 -4 9 -10 -3 -5 1 -10 10 -10 9 0 13 -5 9 -11 -3 -6 0 -15 7 -20 12
-7 12 -9 0 -9 -11 0 -11 -3 -1 -15 10 -12 10 -15 -1 -15 -10 0 -10 -3 -1 -12
8 -8 6 -16 -9 -29 -12 -10 -18 -23 -14 -28 3 -7 0 -8 -9 -5 -9 3 -16 1 -16 -6
0 -6 -4 -8 -10 -5 -5 3 -10 2 -10 -3 0 -14 -39 -22 -46 -10 -4 6 -10 5 -15 -3
-7 -12 -9 -12 -9 0 0 7 -6 11 -15 7 -9 -3 -15 0 -15 10 0 8 -4 12 -10 9 -5 -3
-10 1 -10 9 0 9 -5 16 -11 16 -5 0 -7 5 -4 10 3 6 3 10 -2 10 -4 0 -8 16 -8
35 0 19 4 35 9 35 4 0 6 6 4 13 -6 15 34 55 50 49 7 -2 12 0 12 5 0 4 16 8 35
8 19 0 35 -4 35 -8z m1608 -105 c3 -17 -2 -22 -17 -22 -16 0 -21 6 -21 26 0
33 33 30 38 -4z m80 0 c3 -17 -2 -22 -17 -22 -16 0 -21 6 -21 26 0 33 33 30
38 -4z m80 0 c3 -16 -2 -22 -16 -22 -22 0 -32 17 -24 38 7 20 37 9 40 -16z
m80 0 c3 -16 -2 -22 -16 -22 -22 0 -32 17 -24 38 7 20 37 9 40 -16z m-930
-178 c19 -13 22 -24 20 -57 -2 -34 -8 -44 -31 -55 -48 -23 -97 7 -97 59 0 57
60 87 108 53z m-468 -84 c0 -5 -5 -10 -11 -10 -5 0 -7 5 -4 10 3 6 8 10 11 10
2 0 4 -4 4 -10z m30 0 c0 -5 -5 -10 -11 -10 -5 0 -7 5 -4 10 3 6 8 10 11 10 2
0 4 -4 4 -10z"/>
<path d="M1412 1105 c-41 -13 -103 -53 -130 -85 -37 -43 -62 -116 -62 -180 0
-282 363 -383 514 -142 42 66 48 175 16 250 -56 130 -204 199 -338 157z"/>
<path d="M437 992 c-21 -23 -21 -32 -1 -32 10 0 14 6 11 14 -4 10 -1 13 9 9 8
-3 14 1 14 11 0 21 -13 20 -33 -2z"/>
<path d="M480 994 c0 -17 22 -14 28 4 2 7 -3 12 -12 12 -9 0 -16 -7 -16 -16z"/>
<path d="M510 975 c-10 -13 -9 -15 8 -15 15 0 20 5 16 15 -4 8 -7 15 -9 15 -1
0 -8 -7 -15 -15z"/>
<path d="M460 946 c0 -14 -5 -28 -10 -31 -12 -7 -4 -25 11 -25 5 0 9 7 9 16 0
9 7 22 17 29 18 13 10 35 -13 35 -8 0 -14 -10 -14 -24z"/>
<path d="M420 934 c0 -17 22 -14 28 4 2 7 -3 12 -12 12 -9 0 -16 -7 -16 -16z"/>
<path d="M497 932 c-19 -21 -22 -42 -7 -42 13 0 50 37 50 50 0 16 -26 11 -43
-8z"/>
<path d="M540 859 c-16 -29 -6 -35 19 -10 22 22 47 19 68 -7 7 -9 16 -13 20
-9 3 4 -2 16 -12 27 -25 28 -81 27 -95 -1z"/>
<path d="M571 851 c-7 -5 -11 -19 -9 -32 4 -33 52 -35 56 -2 4 25 -27 46 -47
34z"/>
<path d="M530 807 c0 -20 33 -47 56 -47 26 0 64 27 64 46 0 20 -5 18 -36 -13
l-27 -27 -23 27 c-26 30 -34 33 -34 14z"/>
<path d="M834 755 c-19 -29 -11 -60 21 -81 51 -33 106 29 75 86 -16 30 -74 28
-96 -5z"/>
<path d="M734 845 c-4 -9 -2 -21 4 -27 16 -16 47 -5 47 17 0 26 -42 34 -51 10z"/>
<path d="M85 425 c-48 -47 -25 -125 42 -141 53 -14 113 46 99 99 -16 67 -94
90 -141 42z"/>
<path d="M1009 156 c-10 -20 -9 -30 5 -51 24 -37 76 -32 90 8 14 39 -2 61 -47
65 -31 3 -39 -1 -48 -22z m75 -12 c7 -19 -10 -44 -31 -44 -17 0 -27 24 -19 45
7 20 42 19 50 -1z"/>
</g>
</svg>
