<?xml version="1.0" encoding="UTF-8"?> <svg xmlns="http://www.w3.org/2000/svg" id="Warstwa_1" data-name="Warstwa 1" viewBox="0 0 100 100"><defs><style> .cls-1 { fill: none; stroke: #fc6623; stroke-linecap: round; stroke-linejoin: round; stroke-width: 3px; } </style></defs><g><path class="cls-1" d="M46.43,75.3v4.53c0,3.23-2.62,5.85-5.85,5.85H9.47c-3.23,0-5.85-2.62-5.85-5.85V20.17c0-3.23,2.62-5.85,5.85-5.85h31.12c3.23,0,5.85,2.62,5.85,5.85v4.53"></path><line class="cls-1" x1="21.46" y1="19.7" x2="28.6" y2="19.7"></line></g><g><path class="cls-1" d="M53.57,24.7v-4.53c0-3.23,2.62-5.85,5.85-5.85h31.12c3.23,0,5.85,2.62,5.85,5.85v59.66c0,3.23-2.62,5.85-5.85,5.85h-31.12c-3.23,0-5.85-2.62-5.85-5.85v-4.53"></path><line class="cls-1" x1="71.4" y1="19.7" x2="78.54" y2="19.7"></line></g><polyline class="cls-1" points="24.41 44.26 68.44 44.26 68.44 49.42 79.16 39.09 68.41 28.34 68.44 33.93 37.88 33.93"></polyline><polyline class="cls-1" points="75.59 66.54 31.56 66.54 31.56 71.7 20.84 61.38 31.59 50.63 31.56 56.22 62.12 56.22"></polyline></svg> 