<?xml version="1.0" encoding="UTF-8"?> <svg xmlns="http://www.w3.org/2000/svg" id="Warstwa_1" data-name="Warstwa 1" viewBox="0 0 100 100"><defs><style> .cls-1 { fill: none; stroke: #fc6623; stroke-linecap: round; stroke-linejoin: round; stroke-width: 3px; } </style></defs><line class="cls-1" x1="31.99" y1="14.17" x2="40.52" y2="14.17"></line><line class="cls-1" x1="36.25" y1="86.62" x2="36.25" y2="86.62"></line><path class="cls-1" d="M10.61,80.48h51.24v6.68c0,3.27-2.64,5.92-5.91,5.92H16.57c-3.27,0-5.92-2.65-5.92-5.92V13.66c0-3.27,2.65-5.92,5.92-5.92h39.37c3.27,0,5.92,2.65,5.92,5.92v6.88"></path><rect class="cls-1" x="28.83" y="26.66" width="63.21" height="46.41" rx="7" ry="7"></rect><rect class="cls-1" x="36.73" y="34.56" width="15.8" height="11.85" rx="5.93" ry="5.93"></rect><line class="cls-1" x1="36.73" y1="56.49" x2="36.73" y2="56.49"></line><line class="cls-1" x1="42.06" y1="56.49" x2="42.06" y2="56.49"></line><line class="cls-1" x1="47.39" y1="56.49" x2="47.39" y2="56.49"></line><line class="cls-1" x1="52.72" y1="56.49" x2="52.72" y2="56.49"></line><line class="cls-1" x1="58.05" y1="56.49" x2="58.05" y2="56.49"></line><line class="cls-1" x1="68.71" y1="56.49" x2="68.71" y2="56.49"></line><line class="cls-1" x1="74.04" y1="56.49" x2="74.04" y2="56.49"></line><line class="cls-1" x1="79.37" y1="56.49" x2="79.37" y2="56.49"></line><line class="cls-1" x1="79.37" y1="64.08" x2="68.34" y2="64.08"></line><line class="cls-1" x1="58.05" y1="64.08" x2="36.73" y2="64.08"></line></svg> 