<?xml version="1.0" encoding="UTF-8"?> <svg xmlns="http://www.w3.org/2000/svg" id="Warstwa_1" data-name="Warstwa 1" viewBox="0 0 100 100"><defs><style> .cls-1 { fill: none; stroke: #fc6623; stroke-linecap: round; stroke-linejoin: round; stroke-width: 3px; } </style></defs><circle class="cls-1" cx="50" cy="13.48" r="5.7"></circle><line class="cls-1" x1="50" y1="19.18" x2="50" y2="28.21"></line><circle class="cls-1" cx="50" cy="86.52" r="5.7"></circle><line class="cls-1" x1="50" y1="80.82" x2="50" y2="72.53"></line><circle class="cls-1" cx="86.52" cy="50" r="5.7"></circle><line class="cls-1" x1="80.82" y1="50" x2="71.79" y2="50"></line><circle class="cls-1" cx="13.48" cy="50" r="5.7"></circle><line class="cls-1" x1="19.18" y1="50" x2="27.34" y2="50"></line><circle class="cls-1" cx="24.18" cy="24.18" r="5.7"></circle><line class="cls-1" x1="28.21" y1="28.21" x2="34.37" y2="34.37"></line><circle class="cls-1" cx="75.82" cy="75.82" r="5.7"></circle><line class="cls-1" x1="71.79" y1="71.79" x2="66.29" y2="66.29"></line><circle class="cls-1" cx="75.82" cy="24.18" r="5.7"></circle><line class="cls-1" x1="71.79" y1="28.21" x2="65.63" y2="34.37"></line><circle class="cls-1" cx="24.18" cy="75.82" r="5.7"></circle><line class="cls-1" x1="28.21" y1="71.79" x2="33.71" y2="66.29"></line><g><path class="cls-1" d="M42.96,35.78c2.12-1.03,4.49-1.61,7.01-1.61,8.87,0,16.06,7.19,16.06,16.06s-7.19,16.06-16.06,16.06-16.06-7.19-16.06-16.06c0-4.49,1.84-8.55,4.82-11.47"></path><ellipse class="cls-1" cx="49.97" cy="50.23" rx="8.03" ry="16.06"></ellipse><path class="cls-1" d="M63.14,41.06c-2.9,1.08-7.72,1.78-13.18,1.78s-10.28-.71-13.18-1.78"></path><path class="cls-1" d="M36.76,59.27c2.89-.85,7.77-1.42,13.31-1.42s10.28.54,13.18,1.38"></path><line class="cls-1" x1="33.91" y1="50.23" x2="66.02" y2="50.23"></line><line class="cls-1" x1="49.97" y1="34.17" x2="49.97" y2="66.29"></line></g></svg> 