<?xml version="1.0" encoding="UTF-8"?> <svg xmlns="http://www.w3.org/2000/svg" id="Warstwa_1" data-name="Warstwa 1" viewBox="0 0 100 100"><defs><style> .cls-1 { fill: none; stroke: #fc6623; stroke-linecap: round; stroke-linejoin: round; stroke-width: 3px; } </style></defs><polygon class="cls-1" points="32.34 41.17 50 32.34 67.66 41.17 50 50 32.34 41.17"></polygon><polyline class="cls-1" points="32.34 41.17 32.34 58.83 50 67.66 67.66 58.83 67.66 41.17"></polyline><line class="cls-1" x1="50" y1="50" x2="50" y2="67.66"></line><polygon class="cls-1" points="11.77 27.93 11.77 72.07 50 94.14 88.23 72.07 88.23 27.93 50 5.86 11.77 27.93"></polygon><line class="cls-1" x1="50" y1="5.86" x2="50" y2="25.22"></line><line class="cls-1" x1="50" y1="74.66" x2="50" y2="94.02"></line><line class="cls-1" x1="11.82" y1="27.9" x2="28.59" y2="37.58"></line><line class="cls-1" x1="71.41" y1="62.3" x2="88.18" y2="71.98"></line><line class="cls-1" x1="88.18" y1="27.9" x2="71.41" y2="37.58"></line><line class="cls-1" x1="28.59" y1="62.3" x2="11.82" y2="71.98"></line></svg> 