<?xml version="1.0" encoding="UTF-8"?> <svg xmlns="http://www.w3.org/2000/svg" id="Warstwa_1" data-name="Warstwa 1" viewBox="0 0 100 100"><defs><style> .cls-1 { fill: none; stroke: #fc6623; stroke-linecap: round; stroke-linejoin: round; stroke-width: 3px; } </style></defs><g><path class="cls-1" d="M89.21,45.92c.14,1.34.22,2.7.22,4.08,0,20.87-16.92,37.79-37.79,37.79-13.52,0-25.38-7.1-32.06-17.77"></path><path class="cls-1" d="M14.74,58.2c-.58-2.64-.89-5.39-.89-8.2,0-20.87,16.92-37.79,37.79-37.79,15.63,0,29.05,9.49,34.8,23.03"></path></g><g><path class="cls-1" d="M26.14,62.64c-11.63,1.67-19.72,1.02-20.74-2.25-.56-1.8,1.09-4.16,4.43-6.8"></path><path class="cls-1" d="M87.7,29.49c3.9.32,6.37,1.31,6.91,3.02.99,3.16-4.88,8.09-14.81,13.17"></path></g><g><path class="cls-1" d="M28.37,49.55c1.16-.02,2,.63,2.6,1.47,2.26,3.21,4.98,3.39,8.57,2.19,8.4-2.81,16.93-5.2,25.41-7.76,3.35-1.01,6.59-1.08,9.51,1.23,1.71,1.35,1.64,2.31-.4,3.07-3.92,1.46-7.88,2.83-11.85,4.14-1.12.37-1.84.95-2.42,1.98-2.46,4.33-4.99,8.61-7.5,12.91-.98,1.67-2.3,2.97-4.13,3.69-.48.19-1.03.65-1.51.19-.42-.4.03-.91.16-1.35,1.17-4.02,2.36-8.04,3.49-12.07.14-.48.67-1.07.17-1.5-.43-.37-1.03.06-1.54.2-4.29,1.11-8.55,2.32-12.95,2.95-3.91.55-5.3-.23-6.77-3.81-.76-1.85-1.51-3.71-2.16-5.61-.44-1.3.05-1.92,1.3-1.93Z"></path><path class="cls-1" d="M43.7,47.97c-2.36-1.8-3.99-2.99-6.36-4.78-.28-.21-.73-.36-.68-.78.07-.53.61-.49,1-.58.83-.2,1.67-.35,2.52-.13,4.34,1.14,6.07,2.34,10.54,4.21"></path></g></svg> 