<?xml version="1.0" encoding="UTF-8"?> <svg xmlns="http://www.w3.org/2000/svg" id="Warstwa_1" data-name="Warstwa 1" viewBox="0 0 100 100"><defs><style> .cls-1 { fill: none; stroke: #fc6623; stroke-linecap: round; stroke-linejoin: round; stroke-width: 3px; } </style></defs><g><path class="cls-1" d="M81.95,88.81h8.71c2.71,0,4.9-2.19,4.9-4.9V21.12c0-2.71-2.19-4.9-4.9-4.9H9.73c-2.71,0-4.9,2.19-4.9,4.9v62.79c0,2.71,2.19,4.9,4.9,4.9h72.22Z"></path><line class="cls-1" x1="4.83" y1="34.37" x2="95.56" y2="34.37"></line><circle class="cls-1" cx="13.92" cy="25.46" r="1.11"></circle><circle class="cls-1" cx="22.98" cy="25.29" r="1.11"></circle><circle class="cls-1" cx="31.44" cy="25.29" r="1.11"></circle></g><g><polyline class="cls-1" points="24.08 73.01 33.84 50.16 43.59 73.01"></polyline><path class="cls-1" d="M49.91,73.01v-22.85h8.53c3.37,0,6.09,2.56,6.09,5.71h0c0,3.15-2.73,5.71-6.09,5.71h-8.53"></path><line class="cls-1" x1="72.84" y1="50.16" x2="72.84" y2="73.01"></line><line class="cls-1" x1="38.71" y1="64.86" x2="28.33" y2="64.86"></line></g></svg> 