<?xml version="1.0" encoding="UTF-8"?> <svg xmlns="http://www.w3.org/2000/svg" id="Warstwa_1" data-name="Warstwa 1" viewBox="0 0 100 100"><defs><style> .cls-1, .cls-2 { fill: none; stroke: #fc6623; stroke-linejoin: round; stroke-width: 3px; } .cls-2 { fill-rule: evenodd; } </style></defs><path class="cls-2" d="m74.04,67.84h7.2c8.18,0,14.8-6.63,14.8-14.8s-6.63-14.8-14.8-14.8c-.81,0-1.61.07-2.39.2.13-1.07.21-2.15.21-3.24,0-14.43-11.69-26.12-26.12-26.12-12.91,0-23.62,9.36-25.74,21.66-1.11-.21-2.26-.32-3.44-.32-10.34,0-18.72,8.38-18.72,18.72s8.38,18.72,18.72,18.72h3.28"></path><g><polyline class="cls-1" points="45.54 77.41 61.23 95.87 76.92 77.41 69.11 77.41 69.11 53.83 61.23 53.83"></polyline><polygon class="cls-1" points="41.47 31.37 25.78 49.83 33.59 49.83 33.59 73.41 49.35 73.41 49.35 49.83 57.16 49.83 41.47 31.37"></polygon></g></svg> 