<?xml version="1.0" encoding="UTF-8"?> <svg xmlns="http://www.w3.org/2000/svg" id="Warstwa_1" data-name="Warstwa 1" viewBox="0 0 100 100"><defs><style> .cls-1, .cls-2 { fill: none; stroke: #fc6623; stroke-linejoin: round; stroke-width: 3px; } .cls-2 { fill-rule: evenodd; } </style></defs><path class="cls-2" d="m72.43,76.59h6.87c7.8,0,14.13-6.33,14.13-14.13s-6.33-14.13-14.13-14.13c-.77,0-1.53.07-2.28.19.13-1.02.2-2.05.2-3.1,0-13.77-11.16-24.93-24.93-24.93-12.32,0-22.54,8.93-24.57,20.67-1.06-.2-2.16-.31-3.28-.31-9.87,0-17.87,8-17.87,17.87s8,17.87,17.87,17.87h47.99Z"></path><path class="cls-1" d="m46.7,68.11c-2.74-.7-5.34-2.13-7.49-4.27-6.38-6.38-6.38-16.74,0-23.12,2.15-2.15,4.74-3.57,7.49-4.27"></path><polyline class="cls-1" points="42.53 59.85 45.28 65.31 46.7 68.11 43.7 69.03 38.47 70.64"></polyline><path class="cls-1" d="m55.28,67.99c2.58-.74,5.02-2.12,7.05-4.16,6.38-6.38,6.38-16.74,0-23.12-2.03-2.03-4.47-3.42-7.05-4.16"></path><polyline class="cls-1" points="58.96 43.82 56.63 39.21 55.29 36.56 58.12 35.69 63.52 34.03"></polyline></svg> 