<?xml version="1.0" encoding="UTF-8"?> <svg xmlns="http://www.w3.org/2000/svg" id="Warstwa_1" data-name="Warstwa 1" viewBox="0 0 100 100"><defs><style> .cls-1 { fill: none; stroke: #fc6623; stroke-linejoin: round; stroke-width: 3px; } </style></defs><g><line class="cls-1" x1="44.01" y1="52.63" x2="51.67" y2="52.63"></line><polyline class="cls-1" points="53.49 56.3 47.79 43.3 42.09 56.3"></polyline><line class="cls-1" x1="59.11" y1="41.67" x2="59.11" y2="56.9"></line></g><path class="cls-1" d="m46.41,31.74c-.34-1.5.21-4.57.63-6.14h7.23c.42,1.56.97,4.63.63,6.14l5.03,2.11c.81-1.31,3.35-3.08,4.74-3.89l5.11,5.16c-.8,1.4-2.55,3.97-3.85,4.79l2.09,5.09c1.49-.35,4.53.22,6.07.64v7.3c-1.55.42-4.59.98-6.07.64l-2.09,5.09c1.29.82,3.05,3.39,3.85,4.79l-5.11,5.16c-1.39-.81-3.93-2.58-4.74-3.89l-5.03,2.11c.34,1.5-.21,4.57-.63,6.14h-7.23c-.42-1.56-.97-4.63-.63-6.14l-5.03-2.11c-.81,1.31-3.35,3.08-4.74,3.89l-5.11-5.16c.8-1.4,2.55-3.97,3.85-4.79l-2.09-5.09c-1.49.35-4.53-.22-6.07-.64v-7.3c1.55-.42,4.59-.98,6.07-.64l2.09-5.09c-1.29-.82-3.05-3.39-3.85-4.79l5.11-5.16c1.39.81,3.93,2.58,4.74,3.89l5.03-2.11Z"></path><path class="cls-1" d="m71.42,82.26H29.91l-11.88-11.88V28.2l11.88-11.88h41.51c4.64,4.64,7.24,7.24,11.88,11.88v42.18l-11.88,11.88Z"></path><g><line class="cls-1" x1="50.66" y1="4.62" x2="50.66" y2="13.18"></line><line class="cls-1" x1="77.38" y1="4.62" x2="77.38" y2="13.18"></line><line class="cls-1" x1="23.94" y1="4.62" x2="23.94" y2="13.18"></line><line class="cls-1" x1="32.85" y1="4.62" x2="32.85" y2="13.18"></line><line class="cls-1" x1="41.75" y1="4.62" x2="41.75" y2="13.18"></line><line class="cls-1" x1="59.57" y1="4.62" x2="59.57" y2="13.18"></line><line class="cls-1" x1="68.47" y1="4.62" x2="68.47" y2="13.18"></line></g><g><line class="cls-1" x1="6.45" y1="49.29" x2="14.92" y2="49.29"></line><line class="cls-1" x1="6.45" y1="22.3" x2="14.92" y2="22.3"></line><line class="cls-1" x1="6.45" y1="76.28" x2="14.92" y2="76.28"></line><line class="cls-1" x1="6.45" y1="67.28" x2="14.92" y2="67.28"></line><line class="cls-1" x1="6.45" y1="58.29" x2="14.92" y2="58.29"></line><line class="cls-1" x1="6.45" y1="40.29" x2="14.92" y2="40.29"></line><line class="cls-1" x1="6.45" y1="31.29" x2="14.92" y2="31.29"></line></g><g><line class="cls-1" x1="50.66" y1="93.95" x2="50.66" y2="85.4"></line><line class="cls-1" x1="23.94" y1="93.95" x2="23.94" y2="85.4"></line><line class="cls-1" x1="77.38" y1="93.95" x2="77.38" y2="85.4"></line><line class="cls-1" x1="68.47" y1="93.95" x2="68.47" y2="85.4"></line><line class="cls-1" x1="59.57" y1="93.95" x2="59.57" y2="85.4"></line><line class="cls-1" x1="41.76" y1="93.95" x2="41.76" y2="85.4"></line><line class="cls-1" x1="32.85" y1="93.95" x2="32.85" y2="85.4"></line></g><g><line class="cls-1" x1="94.87" y1="49.29" x2="86.4" y2="49.29"></line><line class="cls-1" x1="94.87" y1="76.28" x2="86.4" y2="76.28"></line><line class="cls-1" x1="94.87" y1="22.3" x2="86.4" y2="22.3"></line><line class="cls-1" x1="94.87" y1="31.29" x2="86.4" y2="31.29"></line><line class="cls-1" x1="94.87" y1="40.29" x2="86.4" y2="40.29"></line><line class="cls-1" x1="94.87" y1="58.29" x2="86.4" y2="58.29"></line><line class="cls-1" x1="94.87" y1="67.28" x2="86.4" y2="67.28"></line></g></svg> 