<?xml version="1.0" encoding="UTF-8"?> <svg xmlns="http://www.w3.org/2000/svg" id="Warstwa_1" data-name="Warstwa 1" viewBox="0 0 100 100"><defs><style> .cls-1 { fill: none; stroke: #fc6623; stroke-linejoin: round; stroke-width: 3px; } </style></defs><polygon class="cls-1" points="45.77 53.29 45.92 46.39 53.61 46.39 53.76 53.29 58.5 55.27 63.42 50.5 68.86 55.99 64.14 60.97 66.1 65.76 72.92 65.9 72.92 73.68 66.1 73.82 64.14 78.61 68.86 83.58 63.42 89.08 58.5 84.31 53.76 86.29 53.61 93.18 45.92 93.18 45.77 86.29 41.04 84.31 36.11 89.08 30.67 83.58 35.39 78.61 33.43 73.82 26.61 73.68 26.61 65.9 33.43 65.76 35.39 60.97 30.67 55.99 36.11 50.5 41.04 55.27 45.77 53.29"></polygon><path class="cls-1" d="m53.61,61.06c-1.17-.53-2.47-.82-3.84-.82-5.22,0-9.45,4.28-9.45,9.55s4.23,9.55,9.45,9.55,9.45-4.28,9.45-9.55c0-1.26-.24-2.46-.68-3.56"></path><path class="cls-1" d="m81.98,47.21c5.19,1.11,9.07,5.81,9.05,11.43-.02,6.43-5.14,11.64-11.44,11.62h-3.25"></path><path class="cls-1" d="m76.96,55.99c2.87-1.88,4.82-5.09,5.03-8.78.01-.21.02-.42.02-.63.02-6.19-4.89-11.23-10.96-11.24-2.59,0-4.98.9-6.86,2.43"></path><path class="cls-1" d="m40.69,45.75c-.11-1.98-.71-3.81-1.65-5.38-1.86-3.08-5.09-5.11-8.76-5.12-5.78-.01-10.47,5-10.49,11.19,0,.13,0,.26,0,.39"></path><path class="cls-1" d="m39.53,41.27c.61-6.35,5.97-11.31,12.49-11.3,5.89.01,10.82,4.09,12.14,9.56.23.95.35,1.94.35,2.96,0,1.52-.28,2.98-.78,4.33"></path><line class="cls-1" x1="26.61" y1="70.15" x2="26.61" y2="70.15"></line><path class="cls-1" d="m23.19,70.15h-3.31c-6.3-.02-11.4-5.25-11.39-11.68.02-6.44,5.14-11.64,11.44-11.63,3.21,0,6.11,1.37,8.19,3.55"></path><path class="cls-1" d="m49.78,6.13c1.96,0,3.54,1.61,3.53,3.59,0,1.98-1.59,3.57-3.55,3.57-1.96,0-3.54-1.61-3.53-3.59,0-1.98,1.59-3.57,3.55-3.57Z"></path><line class="cls-1" x1="49.77" y1="26.02" x2="49.77" y2="16.39"></line><path class="cls-1" d="m68.13,11.98c1.96,0,3.54,1.61,3.53,3.59,0,1.98-1.59,3.57-3.55,3.57-1.96,0-3.54-1.61-3.53-3.59,0-1.98,1.59-3.57,3.55-3.57Z"></path><path class="cls-1" d="m86.49,9.06c1.96,0,3.54,1.61,3.53,3.59,0,1.98-1.59,3.57-3.55,3.57-1.96,0-3.54-1.61-3.53-3.59,0-1.98,1.59-3.57,3.55-3.57Z"></path><path class="cls-1" d="m31.4,11.98c-1.96,0-3.54,1.61-3.53,3.59,0,1.98,1.59,3.57,3.55,3.57,1.96,0,3.54-1.61,3.53-3.59,0-1.98-1.59-3.57-3.55-3.57Z"></path><path class="cls-1" d="m13.04,9.06c-1.96,0-3.54,1.61-3.53,3.59,0,1.98,1.59,3.57,3.55,3.57,1.96,0,3.54-1.61,3.53-3.59,0-1.98-1.59-3.57-3.55-3.57Z"></path><polyline class="cls-1" points="86.48 19.32 86.48 30.38 81.42 35.49"></polyline><polyline class="cls-1" points="68.12 22.25 68.12 27.56 64.34 31.38"></polyline><polyline class="cls-1" points="13.05 19.32 13.05 31.33 18.77 37.11"></polyline><polyline class="cls-1" points="31.41 22.25 31.41 26.08 38.31 33.05"></polyline></svg> 