<?xml version="1.0" encoding="UTF-8"?> <svg xmlns="http://www.w3.org/2000/svg" id="Warstwa_1" data-name="Warstwa 1" viewBox="0 0 100 100"><defs><style> .cls-1 { fill: none; stroke: #fc6623; stroke-linecap: round; stroke-linejoin: round; stroke-width: 3px; } </style></defs><g><polyline class="cls-1" points="43.42 74.19 33.78 93.42 29.92 77.66 15.16 84.23 25.63 62.79"></polyline><polyline class="cls-1" points="56.58 74.19 66.22 93.42 70.08 77.66 84.84 84.23 74.37 62.79"></polyline></g><g><path class="cls-1" d="m48.97,7.65c.93-.59,2.42-.56,3.32.08l5.97,4.24c.9.64,2.52,1.27,3.61,1.42l7.26.95c1.09.14,2.21,1.13,2.49,2.19l1.85,7.09c.28,1.06,1.11,2.6,1.86,3.41l4.96,5.4c.74.81.97,2.29.5,3.28l-3.14,6.62c-.47.99-.82,2.71-.77,3.8l.33,7.32c.05,1.1-.73,2.37-1.73,2.83l-6.66,3.05c-1,.46-2.37,1.55-3.03,2.42l-4.45,5.82c-.67.87-2.08,1.35-3.14,1.06l-7.07-1.94c-1.06-.29-2.81-.33-3.88-.1l-7.15,1.59c-1.07.24-2.46-.31-3.09-1.21l-4.16-6.03c-.62-.91-1.93-2.06-2.91-2.57l-6.5-3.38c-.98-.51-1.69-1.82-1.59-2.91l.69-7.29c.1-1.1-.16-2.82-.58-3.84l-2.81-6.77c-.42-1.02-.13-2.48.66-3.25l5.22-5.15c.78-.77,1.69-2.26,2.02-3.31l2.19-6.99c.33-1.05,1.5-1.98,2.59-2.07l7.3-.59c1.1-.09,2.75-.65,3.68-1.24l6.18-3.94Z"></path><g><path class="cls-1" d="m38.29,24.13c1.89-1.52,4.1-2.7,6.58-3.41,9.9-2.83,20.22,2.9,23.04,12.8,2.83,9.9-2.91,20.21-12.8,23.04-9.9,2.83-20.21-2.9-23.04-12.8-1.38-4.83-.72-9.75,1.46-13.86"></path><polyline class="cls-1" points="40.11 37.5 46.78 46.74 59.08 32.04"></polyline></g></g></svg> 