<?xml version="1.0" encoding="UTF-8"?> <svg xmlns="http://www.w3.org/2000/svg" id="Warstwa_1" data-name="Warstwa 1" viewBox="0 0 100 100"><defs><style> .cls-1, .cls-2 { fill: none; stroke: #fc6623; stroke-linejoin: round; stroke-width: 3px; } .cls-2 { fill-rule: evenodd; } </style></defs><path class="cls-2" d="m87.81,77.09c3.35,0,6.06-2.71,6.06-6.06s-2.71-6.06-6.06-6.06c-.33,0-.66.03-.98.08.06-.44.09-.88.09-1.33,0-5.91-4.79-10.7-10.7-10.7-5.29,0-9.67,3.83-10.54,8.87-.46-.09-.93-.13-1.41-.13-4.24,0-7.67,3.43-7.67,7.67s3.43,7.67,7.67,7.67h23.54Z"></path><path class="cls-1" d="m41.45,37.18c4.21,0,7.63-3.41,7.63-7.63s-3.41-7.63-7.63-7.63c-.4,0-.8.03-1.19.09-.68-5.34-5.24-9.47-10.77-9.47s-9.66,3.75-10.65,8.73c-1.24-.7-2.66-1.1-4.19-1.1-4.71,0-8.53,3.82-8.53,8.53s3.82,8.53,8.53,8.53l26.8-.05Z"></path><path class="cls-1" d="m70.18,26.59c-2.4,0-4.35-1.95-4.35-4.35s1.95-4.35,4.35-4.35c.23,0,.46.02.68.05.39-3.05,2.99-5.4,6.14-5.4s5.51,2.14,6.07,4.98c.71-.4,1.52-.63,2.39-.63,2.69,0,4.86,2.18,4.86,4.86s-2.18,4.86-4.86,4.86l-15.28-.03Z"></path><path class="cls-1" d="m33.47,90.72h2.5c1.91,0,3.47-1.55,3.47-3.47,0-1.72-1.26-3.15-2.91-3.42-.04-3.4-2.81-6.14-6.22-6.14-.33,0-.65.03-.96.07-1.28-2.81-4.12-4.77-7.41-4.77-3.83,0-7.04,2.65-7.91,6.21-.45-.11-.93-.17-1.41-.17-3.23,0-5.84,2.62-5.84,5.84s2.62,5.84,5.84,5.84h20.87Z"></path><g><line class="cls-1" x1="53.55" y1="25.67" x2="56.58" y2="25.09"></line><line class="cls-1" x1="57.6" y1="24.9" x2="60.63" y2="24.33"></line></g><g><line class="cls-1" x1="50.18" y1="38.65" x2="52.29" y2="40.91"></line><line class="cls-1" x1="55.46" y1="44.31" x2="60.22" y2="49.41"></line><line class="cls-1" x1="61.8" y1="51.11" x2="63.91" y2="53.37"></line></g><g><line class="cls-1" x1="26.7" y1="42.87" x2="26.22" y2="45.92"></line><line class="cls-1" x1="25.2" y1="52.35" x2="23.67" y2="61.99"></line><line class="cls-1" x1="23.16" y1="65.2" x2="22.68" y2="68.25"></line></g></svg> 