<?xml version="1.0" encoding="UTF-8"?> <svg xmlns="http://www.w3.org/2000/svg" id="Warstwa_1" data-name="Warstwa 1" viewBox="0 0 100 100"><defs><style> .cls-1 { fill: none; stroke: #fc6623; stroke-linejoin: round; stroke-width: 3px; } .cls-2 { fill: #fc6623; opacity: 0; stroke-width: 0px; } </style></defs><rect class="cls-2" width="100" height="100"></rect><path class="cls-1" d="M6.3,85.08v-19.21c0-1.48,1.2-2.67,2.67-2.67h8.68M34.91,53.39h-8.68c-1.48,0-2.67,1.2-2.67,2.67v26.35c0,1.48-1.2,2.67-2.67,2.67h-8.04M52.16,42.15h-8.68c-1.48,0-2.67,1.2-2.67,2.67v37.59c0,1.48-1.2,2.67-2.67,2.67h-7.89M65.28,85.08h7.02c1.37,0,2.47-1.11,2.47-2.47v-5.17M74.77,41.11v-9.03l3.86-.61c1.14-.18,1.64-1.55.89-2.42l-11.66-13.47c-.76-.88-2.12-.88-2.89,0l-11.66,13.47c-.76.88-.26,2.24.89,2.42l3.86.61v13.88M47.78,85.08h7.61c1.48,0,2.67-1.2,2.67-2.67v-10.18M77.95,70.44l10.47,10.46c.61.6,1.4.91,2.19.91s1.59-.31,2.19-.91c1.21-1.21,1.21-3.18,0-4.39l-10.46-10.46M80.4,50.02c-5.11-5.11-13.38-5.11-18.49,0s-5.11,13.38,0,18.49c5.11,5.11,13.38,5.11,18.49,0,5.11-5.11,5.11-13.38,0-18.49Z"></path></svg> 