<svg xmlns="http://www.w3.org/2000/svg" xmlns:xlink="http://www.w3.org/1999/xlink" width="500" zoomAndPan="magnify" viewBox="0 0 375 374.999991" height="500" preserveAspectRatio="xMidYMid meet" version="1.0"><defs><clipPath id="3ad8a026c6"><path d="M 0 1 L 372.75 1 L 372.75 375 L 0 375 Z M 0 1 " clip-rule="nonzero"/></clipPath><clipPath id="1da7e83a90"><path d="M 32 57.609375 L 345 57.609375 L 345 313 L 32 313 Z M 32 57.609375 " clip-rule="nonzero"/></clipPath></defs><g clip-path="url(#3ad8a026c6)"><path fill="#ffffff" d="M 372.414062 8.355469 L 372.414062 369.011719 C 372.414062 369.480469 372.371094 369.945312 372.28125 370.40625 C 372.195312 370.867188 372.0625 371.3125 371.886719 371.75 C 371.714844 372.183594 371.5 372.601562 371.246094 372.996094 C 370.992188 373.390625 370.703125 373.757812 370.378906 374.097656 C 370.058594 374.433594 369.703125 374.742188 369.320312 375.011719 C 368.9375 375.285156 368.535156 375.519531 368.109375 375.710938 C 367.679688 375.90625 367.238281 376.058594 366.785156 376.167969 C 366.328125 376.28125 365.867188 376.34375 365.398438 376.367188 L 7.5 376.367188 C 7.023438 376.359375 6.546875 376.308594 6.082031 376.207031 C 5.613281 376.109375 5.15625 375.96875 4.714844 375.777344 C 4.277344 375.589844 3.855469 375.363281 3.460938 375.09375 C 3.066406 374.824219 2.699219 374.519531 2.363281 374.179688 C 2.027344 373.835938 1.726562 373.46875 1.460938 373.066406 C 1.199219 372.667969 0.972656 372.246094 0.792969 371.804688 C 0.609375 371.359375 0.472656 370.902344 0.382812 370.433594 C 0.289062 369.964844 0.242188 369.488281 0.242188 369.011719 L 0.242188 8.355469 C 0.242188 7.878906 0.289062 7.402344 0.382812 6.933594 C 0.472656 6.464844 0.609375 6.007812 0.792969 5.5625 C 0.972656 5.121094 1.199219 4.699219 1.460938 4.300781 C 1.726562 3.898438 2.027344 3.53125 2.363281 3.1875 C 2.699219 2.847656 3.066406 2.542969 3.460938 2.273438 C 3.855469 2.003906 4.277344 1.777344 4.714844 1.585938 C 5.15625 1.398438 5.613281 1.257812 6.082031 1.15625 C 6.546875 1.058594 7.023438 1.007812 7.5 1 L 365.398438 1 C 365.875 1.007812 366.347656 1.058594 366.816406 1.15625 C 367.285156 1.257812 367.742188 1.398438 368.183594 1.585938 C 368.621094 1.777344 369.042969 2.003906 369.4375 2.273438 C 369.832031 2.542969 370.199219 2.847656 370.535156 3.1875 C 370.871094 3.53125 371.171875 3.898438 371.4375 4.300781 C 371.699219 4.699219 371.921875 5.121094 372.105469 5.5625 C 372.289062 6.007812 372.425781 6.464844 372.515625 6.933594 C 372.609375 7.402344 372.65625 7.878906 372.65625 8.355469 Z M 357.894531 361.652344 L 357.894531 15.664062 L 14.761719 15.664062 L 14.761719 361.703125 Z M 357.894531 361.652344 " fill-opacity="1" fill-rule="nonzero"/></g><g clip-path="url(#1da7e83a90)"><path fill="#ffffff" d="M 32.5625 186.746094 C 50.585938 131.917969 122.148438 152.871094 139.261719 214.195312 C 139.261719 214.195312 213.496094 72.3125 344.941406 57.625 C 303.097656 92.632812 238.917969 156.765625 207.96875 202.59375 C 172.8125 254.660156 140.230469 315.425781 122.25 312.015625 C 107.945312 309.308594 94.035156 224.253906 32.5625 186.761719 Z M 32.5625 186.746094 " fill-opacity="1" fill-rule="evenodd"/></g></svg>