<?xml version="1.0" encoding="UTF-8"?> <svg xmlns="http://www.w3.org/2000/svg" id="Warstwa_1" data-name="Warstwa 1" viewBox="0 0 100 100"><defs><style> .cls-1 { fill: none; stroke: #fc6623; stroke-linejoin: round; stroke-width: 3px; } .cls-2 { fill: #fc6623; opacity: 0; stroke-width: 0px; } </style></defs><rect class="cls-2" width="100" height="100"></rect><path id="Eye" class="cls-1" d="M13.37,49.96s18.32-18.32,36.65-18.32,36.65,18.32,36.65,18.32M13.37,49.96s18.32,18.32,36.65,18.32,36.65-18.32,36.65-18.32M50.01,41.48c-4.69,0-8.48,3.8-8.48,8.48s3.8,8.48,8.48,8.48,8.48-3.8,8.48-8.48c0-1.69-.5-3.27-1.35-4.59M50,35.67c-7.9,0-14.3,6.4-14.3,14.3s6.4,14.3,14.3,14.3,14.3-6.4,14.3-14.3-6.4-14.3-14.3-14.3ZM42.12,32.68l-10.7-10.7h-6.42M21.21,20.91c-.88.88-.88,2.31,0,3.2s2.31.88,3.2,0,.88-2.31,0-3.2c-.88-.88-2.31-.88-3.2,0ZM28.53,38.44l-4.54-4.54M22.81,34.23c1.25,0,2.26-1.01,2.26-2.26s-1.01-2.26-2.26-2.26-2.26,1.01-2.26,2.26,1.01,2.26,2.26,2.26ZM20.33,44.01l-3.43-3.43h-6.42M6.68,39.51c-.88.88-.88,2.31,0,3.2.88.88,2.31.88,3.2,0,.88-.88.88-2.31,0-3.2s-2.31-.88-3.2,0ZM25.01,78.02h6.42l10.7-10.7M24.4,79.09c.88-.88.88-2.31,0-3.2-.88-.88-2.31-.88-3.2,0-.88.88-.88,2.31,0,3.2.88.88,2.31.88,3.2,0ZM23.99,66.1l4.54-4.54M20.55,68.03c0,1.25,1.01,2.26,2.26,2.26s2.26-1.01,2.26-2.26-1.01-2.26-2.26-2.26-2.26,1.01-2.26,2.26ZM10.48,59.42h6.42l3.43-3.43M9.88,60.49c.88-.88.88-2.31,0-3.2s-2.31-.88-3.2,0c-.88.88-.88,2.31,0,3.2.88.88,2.31.88,3.2,0ZM74.99,21.98h-6.42l-10.7,10.7M75.6,20.91c-.88.88-.88,2.31,0,3.2.88.88,2.31.88,3.2,0,.88-.88.88-2.31,0-3.2s-2.31-.88-3.2,0ZM76.01,33.9l-4.54,4.54M79.45,31.97c0-1.25-1.01-2.26-2.26-2.26s-2.26,1.01-2.26,2.26,1.01,2.26,2.26,2.26,2.26-1.01,2.26-2.26ZM89.52,40.58h-6.42l-3.43,3.43M90.12,39.51c-.88.88-.88,2.31,0,3.2s2.31.88,3.2,0c.88-.88.88-2.31,0-3.2-.88-.88-2.31-.88-3.2,0ZM57.88,67.32l10.7,10.7h6.42M78.79,79.09c.88-.88.88-2.31,0-3.2s-2.31-.88-3.2,0-.88,2.31,0,3.2c.88.88,2.31.88,3.2,0ZM71.47,61.56l4.54,4.54M77.19,65.77c-1.25,0-2.26,1.01-2.26,2.26s1.01,2.26,2.26,2.26,2.26-1.01,2.26-2.26-1.01-2.26-2.26-2.26ZM79.67,55.99l3.43,3.43h6.42M93.32,60.49c.88-.88.88-2.31,0-3.2s-2.31-.88-3.2,0c-.88.88-.88,2.31,0,3.2.88.88,2.31.88,3.2,0Z"></path></svg> 