<?xml version="1.0" encoding="UTF-8"?> <svg xmlns="http://www.w3.org/2000/svg" id="Warstwa_1" data-name="Warstwa 1" viewBox="0 0 100 100"><defs><style> .cls-1 { fill: none; stroke: #fc6623; stroke-linejoin: round; stroke-width: 3px; } .cls-2 { fill: #fc6623; opacity: 0; stroke-width: 0px; } </style></defs><rect class="cls-2" width="100" height="100"></rect><path class="cls-1" d="M51.32,35.06c-1.26.73-2.87.3-3.59-.96-.73-1.26-.3-2.87.96-3.59,1.26-.73,2.87-.3,3.59.96.73,1.26.3,2.87-.96,3.59ZM50,20.03c-1.45,0-2.63,1.18-2.63,2.63s1.18,2.63,2.63,2.63,2.63-1.18,2.63-2.63-1.18-2.63-2.63-2.63ZM56.48,29.04l-4.19,2.42M50,40.26v-4.84M43.52,29.04l4.19,2.42M58.76,35.2v-4.84M43.52,39.16l4.19,2.42M47.71,23.99l-4.19,2.42M61.04,26.41c-.73-1.26-2.34-1.69-3.59-.96-1.26.73-1.69,2.34-.96,3.59.73,1.26,2.34,1.69,3.59.96,1.26-.73,1.69-2.34.96-3.59ZM61.04,39.16c.73-1.26.3-2.87-.96-3.59-1.26-.73-2.87-.3-3.59.96-.73,1.26-.3,2.87.96,3.59,1.26.73,2.87.3,3.59-.96ZM50,45.53c1.45,0,2.63-1.18,2.63-2.63s-1.18-2.63-2.63-2.63-2.63,1.18-2.63,2.63,1.18,2.63,2.63,2.63ZM38.96,39.16c.73,1.26,2.34,1.69,3.59.96,1.26-.73,1.69-2.34.96-3.59-.73-1.26-2.34-1.69-3.59-.96-1.26.73-1.69,2.34-.96,3.59ZM38.96,26.41c-.73,1.26-.3,2.87.96,3.59,1.26.73,2.87.3,3.59-.96.73-1.26.3-2.87-.96-3.59-1.26-.73-2.87-.3-3.59.96ZM19.27,36.95l-11.79,22.37,25.51,10.58c4.66,1.93,9.02,4.63,12.55,8.23,2.4,2.44,6.5,2.45,8.91,0,3.13-3.18,6.74-5.83,10.86-7.54l27.21-11.28-11.78-22.37M33.57,30.44c-1.48-.49-3.09-.93-4.83-1.3l-11.48,25.07s21.98,1.52,32.74,17.85c10.76-16.33,32.74-17.85,32.74-17.85l-11.47-25.07c-2.21.48-4.21,1.06-6.01,1.71M50,50.59v21.46"></path></svg> 