<?xml version="1.0" encoding="UTF-8"?> <svg xmlns="http://www.w3.org/2000/svg" id="Warstwa_1" data-name="Warstwa 1" viewBox="0 0 100 100"><defs><style> .cls-1 { fill: none; stroke: #fc6623; stroke-linejoin: round; stroke-width: 3px; } .cls-2 { fill: #fc6623; opacity: 0; stroke-width: 0px; } </style></defs><rect class="cls-2" width="100" height="100"></rect><path class="cls-1" d="M95.09,44.26h0c0,10.39-8.42,18.8-18.8,18.8H23.71c-10.39,0-18.8-8.42-18.8-18.8h0c0-8.78,6.93-16.19,15.7-16.31,3.02-.04,5.86.76,8.29,2.19-.01-.37-.03-.74-.03-1.11,0-11.66,9.46-21.12,21.13-21.12s21.12,9.46,21.12,21.12c0,.37-.01.74-.03,1.11,2.44-1.44,5.3-2.24,8.34-2.18,8.76.15,15.66,7.56,15.66,16.31ZM62.98,23.21c-2.59-4.48-7.43-7.49-12.98-7.49s-10.39,3.01-12.98,7.49M45.1,63.07v21.82M45.1,84.88c-1.99,0-3.61,1.62-3.61,3.61s1.62,3.61,3.61,3.61,3.61-1.62,3.61-3.61-1.62-3.61-3.61-3.61ZM25.33,74.68h11.62v-11.62M21.72,71.08c-1.99,0-3.61,1.62-3.61,3.61s1.62,3.61,3.61,3.61,3.61-1.62,3.61-3.61-1.62-3.61-3.61-3.61ZM65.94,63.07v11.62h11.62M77.56,74.68c0,1.99,1.62,3.61,3.61,3.61s3.61-1.62,3.61-3.61-1.62-3.61-3.61-3.61-3.61,1.62-3.61,3.61ZM56.38,63.07v21.82M56.38,84.88c-1.99,0-3.61,1.62-3.61,3.61s1.62,3.61,3.61,3.61,3.61-1.62,3.61-3.61-1.62-3.61-3.61-3.61Z"></path></svg> 